<?xml version="1.0" standalone="no"?>
<!DOCTYPE svg PUBLIC "-//W3C//DTD SVG 20010904//EN"
 "http://www.w3.org/TR/2001/REC-SVG-20010904/DTD/svg10.dtd">
<svg version="1.0" xmlns="http://www.w3.org/2000/svg"
 width="223.000000pt" height="462.000000pt" viewBox="0 0 223.000000 462.000000"
 preserveAspectRatio="xMidYMid meet">

<g transform="translate(0.000000,462.000000) scale(0.100000,-0.100000)"
fill="#000000" stroke="none">
<path d="M0 2310 l0 -2310 1115 0 1115 0 0 2310 0 2310 -1115 0 -1115 0 0
-2310z m2198 2244 l22 -15 0 -2226 c0 -2058 -1 -2228 -17 -2245 -15 -17 -62
-18 -1079 -18 l-1064 0 -15 24 c-14 21 -15 256 -13 2238 3 2163 3 2216 22
2237 l19 21 1051 0 c936 0 1054 -2 1074 -16z"/>
<path d="M139 4514 c-6 -8 -20 -14 -30 -14 -11 0 -19 -7 -19 -15 0 -8 5 -15
11 -15 5 0 8 -4 5 -8 -4 -7 24 -8 61 -4 6 1 9 11 6 22 -3 11 -1 26 5 33 8 10
6 13 -8 14 -10 1 -24 -5 -31 -13z"/>
<path d="M250 4515 c7 -8 10 -22 6 -30 -3 -10 5 -20 24 -30 27 -14 33 -14 59
-1 28 15 41 34 41 62 0 11 -16 14 -71 14 -62 0 -70 -2 -59 -15z"/>
<path d="M410 4495 c7 -33 6 -35 -17 -35 -13 0 -37 -7 -53 -15 -23 -12 -30
-22 -30 -45 0 -17 4 -30 9 -30 5 0 13 -10 17 -22 3 -13 14 -32 23 -42 9 -11
10 -16 3 -12 -26 15 -91 13 -119 -4 -27 -16 -29 -16 -56 3 -27 18 -30 18 -45
3 -29 -28 -39 -75 -28 -118 8 -31 14 -38 29 -34 15 3 16 2 7 -9 -7 -8 -10 -36
-8 -64 2 -29 -1 -49 -7 -48 -16 3 -8 -276 10 -333 3 -11 -1 -66 -9 -122 -18
-124 -24 -188 -15 -182 3 2 4 -19 1 -46 -4 -43 -1 -53 19 -70 22 -20 23 -20 2
-11 -22 11 -25 9 -41 -49 -10 -36 -9 -87 3 -105 14 -23 24 -125 13 -125 -7 0
-10 21 -11 78 0 26 -16 30 -18 5 -1 -10 -3 -33 -5 -50 -2 -21 1 -33 8 -33 9 0
9 -3 0 -12 -8 -8 -12 -62 -12 -176 0 -99 -4 -161 -9 -157 -6 3 -8 -12 -5 -37
25 -250 28 -712 5 -905 -4 -35 -3 -63 1 -63 4 0 8 -7 8 -15 0 -8 -4 -15 -10
-15 -6 0 -10 -28 -10 -65 0 -37 4 -65 10 -65 6 0 10 -60 11 -157 1 -87 4 -185
8 -218 l7 -60 9 105 9 105 7 -60 c11 -80 11 -275 1 -405 -10 -137 -7 -253 7
-258 7 -2 6 -10 -3 -24 -8 -11 -12 -27 -9 -34 3 -8 1 -14 -5 -14 -5 0 -12 -14
-14 -31 -4 -23 1 -39 17 -57 18 -21 26 -24 51 -17 16 5 38 8 49 8 16 -1 17 1
4 11 -22 16 -23 64 -1 69 16 4 16 5 0 6 -25 1 -23 21 2 21 11 0 20 5 20 10 0
6 -9 10 -20 10 -11 0 -20 5 -20 10 0 6 8 10 17 10 15 0 14 2 -3 16 -19 15 -19
15 3 11 18 -4 22 0 25 22 3 23 8 26 44 29 33 2 43 8 48 25 l6 22 19 -25 c11
-14 19 -18 18 -10 -1 8 3 15 8 15 6 0 9 -6 9 -12 -1 -7 2 -10 7 -7 5 3 9 12 9
20 0 8 5 14 11 14 6 0 9 -9 6 -20 -4 -17 0 -20 29 -20 24 0 32 4 28 14 -3 8
-1 17 5 21 6 3 11 -2 11 -13 0 -18 9 -19 130 -21 124 -1 130 0 130 19 0 11 5
20 11 20 6 0 9 -9 6 -20 -3 -12 0 -20 8 -20 8 0 11 8 8 20 -3 11 0 20 6 20 6
0 11 -9 11 -20 0 -11 5 -20 10 -20 6 0 10 9 10 20 0 11 5 20 11 20 6 0 9 -9 6
-20 -4 -17 0 -20 28 -20 28 0 32 3 28 20 -3 11 0 20 6 20 10 0 14 -11 9 -27
-2 -5 17 -10 42 -13 34 -4 47 -11 56 -28 6 -13 15 -23 20 -23 5 1 9 -5 9 -11
0 -7 5 -17 10 -21 7 -6 6 -10 -1 -13 -7 -3 -10 -13 -7 -24 3 -12 -1 -20 -14
-23 -16 -4 -16 -5 0 -6 22 -1 25 -61 2 -61 -8 0 -15 -4 -15 -10 0 -5 7 -7 15
-4 9 4 15 0 15 -10 0 -10 -6 -13 -15 -10 -10 4 -15 0 -15 -15 0 -15 -9 -25
-30 -32 -16 -6 -30 -18 -30 -26 0 -8 -6 -13 -12 -10 -7 2 -12 10 -11 16 2 6
-2 11 -7 11 -6 0 -10 -7 -10 -15 0 -8 -4 -15 -10 -15 -5 0 -10 9 -10 20 0 19
-7 20 -196 20 -187 0 -196 -1 -201 -20 -6 -23 -23 -27 -23 -6 0 8 -5 18 -11
22 -8 4 -9 -1 -4 -16 5 -16 4 -21 -6 -18 -8 3 -13 13 -11 23 2 10 -1 14 -7 10
-6 -3 -11 -13 -11 -21 0 -8 -4 -14 -10 -14 -5 0 -10 7 -10 15 0 8 -5 15 -11
15 -6 0 -9 -7 -5 -15 3 -9 0 -15 -9 -15 -8 0 -15 9 -15 20 0 18 -7 20 -54 20
-41 0 -58 5 -68 18 -43 56 -88 41 -88 -30 0 -24 5 -49 11 -55 9 -9 7 -11 -8
-7 -12 3 -24 0 -28 -7 -6 -9 1 -11 30 -6 21 3 46 2 56 -4 14 -7 28 -5 50 7 17
8 29 11 25 6 -3 -5 4 -12 17 -16 32 -8 59 -7 53 2 -3 5 10 4 29 -2 52 -16 32
-26 -53 -26 -87 0 -98 -5 -105 -40 -4 -25 -4 -25 -6 2 -1 27 -3 28 -48 24 -27
-2 -58 -4 -70 -5 -34 -2 -17 -31 17 -31 16 0 30 -6 32 -12 5 -14 3 -14 1003
-10 520 2 650 -2 639 -19 -3 -5 14 -9 38 -9 24 0 38 4 32 8 -9 5 -8 11 2 20 9
8 14 9 14 2 0 -7 25 -10 72 -8 68 3 73 5 78 28 4 14 2 31 -3 38 -7 9 -6 11 7
6 9 -4 16 -17 16 -35 0 -26 2 -28 36 -25 20 1 39 8 44 16 4 7 15 10 23 7 13
-5 16 6 19 61 2 37 1 100 -1 140 -3 59 -6 72 -20 72 -13 0 -16 11 -14 62 1 43
6 66 17 73 13 10 15 38 16 161 0 82 4 183 9 224 12 103 1 886 -13 908 -12 19
-7 963 5 1047 16 107 22 425 9 425 -14 0 -12 28 2 32 9 3 10 16 2 54 -13 62
-18 349 -6 389 5 18 4 71 -2 127 -6 54 -8 110 -3 125 8 31 7 133 -2 133 -3 0
-5 31 -3 70 2 44 0 70 -7 70 -7 0 -11 -150 -11 -477 l0 -478 -72 -70 -72 -70
62 68 62 68 -2 202 c-1 122 -4 176 -7 137 l-6 -65 -8 75 c-4 41 -8 160 -10
263 -3 148 -7 191 -18 198 -8 5 -9 9 -3 9 13 0 34 64 35 106 0 25 2 26 9 9 8
-19 9 -19 9 1 1 27 -24 38 -52 23 l-22 -12 20 22 c14 16 18 34 16 63 -1 22 1
38 6 35 6 -4 10 0 10 8 0 8 -5 15 -10 15 -6 0 -7 3 -4 7 10 10 -62 33 -82 26
-13 -5 -14 -3 -3 8 15 17 16 37 0 21 -7 -7 -17 -8 -29 -2 -22 12 -95 -2 -92
-18 2 -7 -7 -7 -30 1 -39 14 -396 18 -482 4 -33 -5 -109 -11 -170 -13 -60 -3
-114 -10 -120 -15 -13 -13 23 -42 43 -34 7 2 11 1 7 -4 -3 -5 34 -31 82 -58
48 -26 100 -55 115 -63 14 -8 56 -32 91 -52 36 -21 77 -38 91 -38 14 0 26 -4
26 -10 0 -5 10 -10 23 -11 21 -1 21 -1 -3 -8 l-25 -7 25 -9 c14 -5 35 -9 47
-9 26 -2 56 -26 33 -26 -11 0 -9 -6 6 -18 19 -15 23 -31 28 -122 3 -58 6 -113
6 -123 0 -10 4 -16 9 -13 8 6 21 -71 21 -132 0 -19 -9 -45 -20 -59 -15 -20
-19 -39 -18 -94 1 -45 5 -69 13 -69 6 0 25 -15 43 -33 27 -27 32 -41 32 -79 0
-26 -4 -49 -9 -53 -6 -3 -6 -18 0 -38 5 -17 9 -48 9 -67 0 -31 -6 -39 -42 -63
-24 -15 -48 -25 -54 -23 -7 3 -29 -11 -50 -30 -22 -19 -49 -37 -62 -41 -25 -6
-82 20 -109 50 -9 9 -23 17 -31 17 -22 0 -102 53 -102 67 0 8 -12 4 -33 -10
-18 -12 -72 -42 -120 -67 l-87 -45 -32 19 c-18 10 -62 34 -98 54 -36 20 -87
48 -113 64 -27 16 -52 26 -57 23 -17 -11 -60 7 -60 24 0 20 -38 41 -78 42 -23
0 -24 1 -7 8 19 8 19 8 -2 19 -12 7 -34 12 -50 12 -20 0 -24 3 -14 9 10 6 1
11 -30 17 -24 4 -36 9 -26 12 15 3 14 6 -8 24 -21 16 -25 28 -25 73 0 48 -3
54 -22 58 l-23 4 23 2 22 1 0 204 c0 154 -3 206 -12 209 -10 4 -10 6 0 6 8 1
12 21 12 64 l0 63 79 47 c50 30 88 60 101 81 21 35 80 66 126 66 25 0 70 23
90 47 7 8 21 16 33 18 26 5 131 67 131 77 0 5 8 8 18 8 23 0 25 29 3 31 -9 1
-37 1 -63 -1 -26 -1 -62 3 -80 9 -18 5 -46 12 -63 15 -16 2 -50 9 -75 14 -25
6 -92 11 -150 12 -58 0 -123 5 -145 10 -22 5 -50 10 -61 10 -20 0 -21 -3 -14
-35z m1555 -150 c2 -11 20 -29 40 -39 19 -11 33 -21 31 -23 -2 -2 -19 5 -38
17 -22 12 -43 18 -54 14 -16 -6 -17 -5 -6 7 6 7 13 38 14 69 1 44 2 47 5 15 2
-22 5 -49 8 -60z m-1733 -150 c6 -28 1 -36 -16 -29 -8 3 -11 15 -8 30 6 31 18
31 24 -1z m233 -295 c-3 -5 -13 -10 -21 -10 -8 0 -14 5 -14 10 0 6 9 10 21 10
11 0 17 -4 14 -10z m-262 -755 c4 -8 2 -17 -3 -20 -6 -4 -10 3 -10 14 0 25 6
27 13 6z m1826 -171 c0 -70 -2 -124 -5 -121 -12 12 -17 247 -5 247 7 0 10 -42
10 -126z m-1211 -29 c28 -13 52 -26 52 -30 0 -3 -18 4 -40 15 -22 11 -66 27
-98 35 -52 14 -53 15 -12 10 25 -3 69 -17 98 -30z m799 19 c-3 -3 -12 -4 -19
-1 -8 3 -5 6 6 6 11 1 17 -2 13 -5z m38 -39 c28 -12 63 -21 77 -19 35 3 98
-63 135 -141 24 -51 28 -72 28 -145 -1 -103 -22 -156 -91 -230 -56 -60 -80
-75 -90 -58 -4 6 -3 8 3 5 6 -4 21 1 34 11 39 32 7 29 -60 -5 l-63 -33 42 4
c46 4 43 -5 -9 -23 -47 -15 -189 -13 -226 4 -36 16 -20 19 23 4 17 -6 39 -9
49 -7 11 3 1 9 -27 17 -49 14 -123 53 -155 80 -11 10 -26 22 -34 26 -16 9 -9
-6 18 -40 10 -13 6 -11 -12 5 -30 26 -59 68 -38 56 16 -10 13 13 -9 72 -12 31
-20 76 -20 112 0 57 -14 89 -23 53 -2 -10 -2 -2 0 17 3 19 11 48 18 65 14 29
14 29 9 3 -8 -38 11 -35 27 4 7 18 26 47 42 65 23 26 27 36 18 47 -9 11 -5 18
22 35 65 40 92 46 178 42 58 -2 99 -10 134 -26z m44 15 c24 -11 41 -23 38 -27
-4 -3 -18 2 -32 11 -14 9 -29 15 -33 12 -4 -2 -16 2 -27 10 -28 21 1 17 54 -6z
m-944 -21 c17 -12 22 -18 12 -15 -10 3 -34 6 -53 6 -24 0 -34 5 -34 15 0 22
40 19 75 -6z m170 -49 c21 -22 37 -40 34 -40 -3 0 -23 18 -44 40 -21 22 -37
40 -34 40 3 0 23 -18 44 -40z m-84 15 c13 9 92 -74 113 -119 12 -25 21 -72 24
-127 4 -78 2 -92 -21 -143 -14 -31 -31 -56 -36 -56 -16 0 -14 7 15 69 22 45
27 69 26 124 -2 87 -28 142 -99 207 -29 26 -49 51 -45 54 4 4 8 2 10 -3 2 -6
8 -9 13 -6z m444 -66 c-4 -5 -15 -14 -27 -20 -21 -11 -20 -3 5 28 10 14 31 7
22 -8z m-425 -26 c0 -7 -39 17 -46 28 -3 6 5 3 20 -6 14 -10 26 -19 26 -22z
m140 -26 c0 -12 0 -11 -24 28 l-17 30 20 -24 c12 -13 21 -28 21 -34z m25 -125
l4 -77 -8 65 c-5 36 -11 79 -15 95 -6 25 -5 27 4 12 6 -10 13 -53 15 -95z
m-400 88 c5 -8 11 -7 21 1 20 17 28 5 14 -21 -9 -16 -9 -25 1 -36 16 -19 4
-30 -16 -14 -12 10 -16 9 -21 -4 -3 -9 -13 -16 -20 -16 -12 0 -11 5 3 26 13
21 14 30 5 45 -7 10 -12 21 -12 24 0 9 19 5 25 -5z m135 -20 c0 -23 -5 -31
-25 -36 -14 -3 -25 -12 -25 -20 0 -8 -4 -14 -10 -14 -5 0 -10 23 -10 50 l0 50
35 0 c32 0 35 -2 35 -30z m150 -5 c0 -5 -5 -3 -10 5 -5 8 -10 20 -10 25 0 6 5
3 10 -5 5 -8 10 -19 10 -25z m7 -72 c-3 -10 -5 -4 -5 12 0 17 2 24 5 18 2 -7
2 -21 0 -30z m295 -39 c-2 -55 -11 -54 -10 0 0 26 3 44 6 41 3 -3 5 -21 4 -41z
m-875 -31 c-3 -10 -5 -4 -5 12 0 17 2 24 5 18 2 -7 2 -21 0 -30z m443 17 c0
-11 -2 -20 -4 -20 -2 0 -6 9 -9 20 -3 11 -1 20 4 20 5 0 9 -9 9 -20z m43 -42
c8 -5 6 -8 -5 -8 -14 0 -18 8 -17 38 2 34 2 34 6 7 3 -16 10 -33 16 -37z m187
-25 c-11 -17 -11 -17 -6 0 3 10 7 26 7 35 1 15 2 15 6 0 2 -10 -1 -25 -7 -35z
m216 10 c-10 -10 -19 5 -10 18 6 11 8 11 12 0 2 -7 1 -15 -2 -18z m-793 -132
c23 -24 69 -56 102 -72 33 -16 54 -29 47 -29 -27 0 -116 53 -156 93 -39 40
-87 122 -85 149 0 7 11 -12 25 -42 14 -30 44 -75 67 -99z m125 142 c-10 -2
-26 -2 -35 0 -10 3 -2 5 17 5 19 0 27 -2 18 -5z m685 -65 c6 -22 5 -22 -8 -4
-17 22 -20 40 -6 32 5 -3 11 -16 14 -28z m-251 0 c-7 -7 -12 -8 -12 -2 0 14
12 26 19 19 2 -3 -1 -11 -7 -17z m-21 -35 c-52 -98 -243 -184 -344 -156 -19 6
-4 8 52 9 105 2 187 38 251 112 49 56 56 61 41 35z m380 -90 c13 -16 12 -17
-3 -4 -10 7 -18 15 -18 17 0 8 8 3 21 -13z m44 -31 c-3 -3 -11 0 -18 7 -9 10
-8 11 6 5 10 -3 15 -9 12 -12z m-1135 -122 c0 -5 -8 -10 -17 -11 -14 0 -13 -3
5 -11 33 -16 29 -48 -5 -47 -17 1 -21 3 -10 6 21 5 23 23 3 23 -19 0 -29 17
-22 35 6 17 46 21 46 5z m75 0 c3 -5 -1 -10 -9 -10 -11 0 -17 -10 -18 -32 l-1
-33 -4 33 c-2 17 -8 32 -14 32 -5 0 -9 5 -9 10 0 6 11 10 24 10 14 0 28 -4 31
-10z m60 -26 c8 -20 15 -37 15 -38 0 -2 -16 -2 -35 -2 -19 1 -35 5 -35 9 0 11
29 67 35 67 3 0 12 -16 20 -36z m65 26 c0 -5 -5 -10 -11 -10 -7 0 -10 -12 -7
-30 3 -16 1 -30 -4 -30 -4 0 -8 14 -8 30 0 17 -4 30 -10 30 -5 0 -10 5 -10 10
0 6 11 10 25 10 14 0 25 -4 25 -10z m60 0 c0 -5 -8 -10 -17 -11 -14 0 -13 -3
5 -11 33 -16 29 -48 -5 -47 -17 1 -21 3 -10 6 17 4 24 23 10 23 -5 0 -14 4
-22 9 -12 8 -12 12 -2 25 15 18 41 21 41 6z m-123 -202 c-15 -9 -19 -4 -11 16
5 14 9 15 15 5 5 -8 3 -17 -4 -21z m43 23 c0 -6 -4 -13 -10 -16 -5 -3 -10 1
-10 9 0 9 5 16 10 16 6 0 10 -4 10 -9z m33 -5 c3 -8 -2 -16 -14 -19 -16 -4
-17 -2 -8 14 12 23 15 23 22 5z m40 -1 c16 6 43 -12 34 -22 -5 -4 -12 -1 -17
7 -8 13 -12 12 -24 -5 -15 -19 -15 -19 -15 10 0 17 3 25 5 18 3 -7 11 -10 17
-8z m57 -5 c0 -11 -2 -20 -4 -20 -2 0 -6 9 -9 20 -3 11 -1 20 4 20 5 0 9 -9 9
-20z m467 -2 c-3 -8 -6 -5 -6 6 -1 11 2 17 5 13 3 -3 4 -12 1 -19z m46 7 c4
-8 2 -17 -3 -20 -6 -4 -10 3 -10 14 0 25 6 27 13 6z m77 -20 c0 -5 -5 -3 -10
5 -5 8 -10 20 -10 25 0 6 5 3 10 -5 5 -8 10 -19 10 -25z m39 17 c7 -14 6 -18
-9 -18 -13 0 -16 4 -10 12 6 6 7 14 3 17 -3 4 -3 7 0 7 3 0 11 -8 16 -18z
m438 -14 c-3 -7 -5 -2 -5 12 0 14 2 19 5 13 2 -7 2 -19 0 -25z m73 16 c0 -7 6
-14 13 -17 6 -2 -5 -5 -25 -5 -31 0 -38 4 -38 19 0 14 6 18 25 17 14 -1 25 -8
25 -14z m58 -8 c1 -15 -1 -17 -7 -7 -7 11 -9 11 -14 0 -3 -9 -6 -6 -6 7 -1 27
25 27 27 0z m-1434 -15 c4 -5 -7 -23 -24 -39 -16 -17 -30 -36 -30 -43 0 -7 -3
-9 -7 -6 -3 4 -12 -1 -19 -11 -17 -23 -32 -6 -16 18 7 11 12 27 12 35 0 9 4
14 9 11 4 -3 19 6 31 19 25 27 35 30 44 16z m1171 -16 c-14 -13 -25 -30 -25
-38 0 -22 26 -39 52 -35 18 2 22 9 21 28 -2 22 -2 23 6 5 l8 -20 5 20 c4 15 6
16 7 3 1 -22 -44 -57 -67 -51 -9 2 -24 15 -34 27 -15 21 -15 24 9 54 13 18 28
32 33 32 5 0 -2 -11 -15 -25z m-569 -33 c0 -18 -3 -28 -6 -21 -5 7 -9 6 -13
-5 -6 -16 -48 -42 -46 -29 1 4 1 17 0 28 -1 17 -3 18 -11 5 -8 -11 -9 -7 -4
15 8 36 20 45 54 42 21 -2 25 -7 26 -35z m-500 -17 c1 -11 3 -24 4 -30 6 -27
-1 -36 -27 -33 -22 2 -29 9 -31 31 -5 42 5 59 30 55 15 -2 23 -10 24 -23z
m103 11 c7 -8 11 -27 9 -43 -2 -22 -9 -29 -30 -31 -27 -3 -28 -2 -28 42 0 38
3 46 19 46 10 0 24 -6 30 -14z m69 5 c8 -5 12 -22 10 -42 -2 -29 -7 -34 -28
-34 -21 0 -26 5 -28 34 -3 30 9 51 28 51 3 0 11 -4 18 -9z m420 -39 c2 -25 -1
-42 -7 -42 -6 0 -11 13 -11 29 0 16 -3 37 -7 47 -4 12 -2 15 8 12 8 -3 15 -21
17 -46z m72 38 c0 -5 -8 -10 -17 -10 -17 -1 -17 -1 0 -11 9 -5 17 -21 17 -34
0 -20 -5 -25 -25 -25 -31 0 -33 17 -2 23 l22 4 -22 8 c-34 11 -32 55 2 55 14
0 25 -4 25 -10z m98 -41 c1 -35 -2 -39 -23 -39 -13 0 -27 5 -30 10 -3 6 4 10
16 10 18 0 19 2 9 15 -9 10 -9 15 -1 15 6 0 11 4 11 10 0 5 -7 7 -15 4 -8 -4
-15 -2 -15 4 0 12 21 21 36 15 7 -2 12 -22 12 -44z m527 41 c7 -11 -23 -80
-35 -80 -13 0 -13 3 5 36 13 26 13 29 0 32 -8 2 -15 7 -15 11 0 10 39 11 45 1z
m85 -5 c0 -23 -33 -82 -37 -68 -2 7 0 21 6 32 14 26 14 31 -4 31 -8 0 -15 5
-15 10 0 6 11 10 25 10 16 0 25 -6 25 -15z m-532 -32 c-3 -33 -7 -38 -30 -41
-27 -3 -28 -1 -28 37 0 39 1 41 31 41 29 0 30 -2 27 -37z m382 -3 c0 -22 -4
-40 -10 -40 -5 0 -10 14 -10 30 0 17 -5 30 -11 30 -5 0 -7 5 -4 10 3 6 13 10
21 10 10 0 14 -12 14 -40z m200 6 c0 -19 -4 -38 -10 -41 -5 -3 -10 3 -10 15 0
12 -5 30 -10 41 -9 16 -7 19 10 19 16 0 20 -6 20 -34z m-1390 -36 c0 -5 -5
-10 -11 -10 -5 0 -7 5 -4 10 3 6 8 10 11 10 2 0 4 -4 4 -10z m660 0 c0 -5 -4
-10 -10 -10 -5 0 -10 5 -10 10 0 6 5 10 10 10 6 0 10 -4 10 -10z m620 0 c0 -5
-5 -10 -11 -10 -5 0 -7 5 -4 10 3 6 8 10 11 10 2 0 4 -4 4 -10z m-1044 -129
c8 7 14 6 20 -2 4 -7 3 -9 -4 -5 -6 3 -18 -4 -26 -16 l-16 -22 -1 24 -1 25 -7
-25 c-7 -25 -7 -25 -13 -3 -6 23 10 37 26 22 5 -5 15 -4 22 2z m-302 -9 c-6
-4 -14 -14 -17 -22 -4 -10 -6 -8 -6 8 -1 15 5 22 17 22 10 0 13 -3 6 -8z m44
-17 c-3 -3 -16 -8 -28 -10 -22 -4 -22 -4 -4 14 11 11 23 15 28 10 5 -5 7 -11
4 -14z m30 4 c9 -13 9 -16 -3 -16 -8 0 -15 9 -15 20 0 11 1 18 3 16 1 -2 8
-11 15 -20z m44 -9 c6 0 7 8 3 18 -5 13 -3 14 6 5 13 -13 4 -33 -17 -33 -8 0
-14 9 -13 23 1 16 2 18 6 5 2 -10 9 -18 15 -18z m115 -6 c-7 -7 -37 7 -37 18
0 6 6 5 15 -2 12 -10 15 -9 16 6 1 18 2 18 6 1 3 -10 3 -21 0 -23z m130 4 c-3
-7 -5 -2 -5 12 0 14 2 19 5 13 2 -7 2 -19 0 -25z m246 25 c-7 -2 -13 -12 -13
-20 0 -9 -3 -14 -6 -10 -10 10 4 37 18 36 10 0 10 -2 1 -6z m24 -25 c-3 -7 -5
-2 -5 12 0 14 2 19 5 13 2 -7 2 -19 0 -25z m20 10 c-3 -8 -6 -5 -6 6 -1 11 2
17 5 13 3 -3 4 -12 1 -19z m53 6 c0 15 3 16 15 6 8 -7 15 -18 15 -24 0 -6 -5
-4 -10 4 -5 8 -10 10 -10 4 0 -9 -50 -16 -50 -7 0 1 3 9 7 19 6 16 7 16 20 -2
12 -17 13 -17 13 0z m60 6 c-13 -9 -13 -11 0 -20 13 -8 12 -10 -2 -10 -11 0
-18 8 -18 20 0 12 7 20 18 20 14 0 15 -2 2 -10z m33 -10 c-3 -11 -7 -20 -9
-20 -2 0 -4 9 -4 20 0 11 4 20 9 20 5 0 7 -9 4 -20z m44 -12 c-3 -7 -5 -2 -5
12 0 14 2 19 5 13 2 -7 2 -19 0 -25z m47 17 c3 -8 1 -15 -4 -15 -6 0 -10 7
-10 15 0 8 2 15 4 15 2 0 6 -7 10 -15z m53 -17 c-3 -7 -5 -2 -5 12 0 14 2 19
5 13 2 -7 2 -19 0 -25z m43 14 c0 -9 7 -13 20 -9 11 3 20 1 20 -4 0 -5 -11 -9
-25 -9 -14 0 -25 6 -25 13 0 8 -4 7 -10 -3 -8 -12 -10 -11 -10 6 0 12 6 21 15
21 8 0 15 -7 15 -15z m274 2 c3 -8 2 -12 -4 -9 -6 3 -10 1 -10 -4 0 -20 -16
-11 -17 9 -2 24 22 27 31 4z m46 -15 c0 -5 -5 -9 -12 -9 -6 0 -8 3 -5 7 4 3 1
13 -6 22 -11 14 -10 14 6 2 9 -7 17 -17 17 -22z m27 -1 c-3 -7 -5 -2 -5 12 0
14 2 19 5 13 2 -7 2 -19 0 -25z m20 0 c-3 -7 -5 -2 -5 12 0 14 2 19 5 13 2 -7
2 -19 0 -25z m43 -2 c0 -6 -4 -5 -9 3 -7 11 -9 11 -14 0 -3 -8 -6 -3 -6 10 -1
20 1 21 14 11 8 -7 15 -18 15 -24z m33 14 c-3 -11 -7 -20 -9 -20 -2 0 -4 9 -4
20 0 11 4 20 9 20 5 0 7 -9 4 -20z m47 0 c0 -11 -7 -20 -15 -20 -8 0 -15 9
-15 20 0 11 7 20 15 20 8 0 15 -9 15 -20z m-1136 -8 c3 -5 -1 -9 -9 -9 -8 0
-12 4 -9 9 3 4 7 8 9 8 2 0 6 -4 9 -8z m-412 -81 c-5 -3 -12 -13 -16 -21 -3
-8 -4 -4 -2 8 6 31 -2 52 -20 52 -8 0 -14 2 -14 4 0 2 -3 13 -7 23 -4 10 10 0
30 -21 21 -22 34 -42 29 -45z m598 69 c13 -8 12 -11 -5 -24 -20 -15 -20 -15 0
-13 26 3 32 -34 10 -57 -19 -18 -35 -21 -35 -5 0 5 5 7 10 4 6 -3 10 -1 10 4
0 6 -4 11 -10 11 -5 0 -10 9 -10 19 0 10 -7 21 -15 25 -15 6 -19 -3 -15 -41 2
-24 -14 -31 -26 -12 -3 6 0 15 7 20 10 6 11 9 2 9 -7 0 -13 5 -13 11 0 5 6 7
13 3 9 -6 9 -4 -1 8 -26 32 38 63 78 38z m590 -44 c0 -30 -5 -58 -11 -61 -7
-5 -9 13 -7 54 3 76 18 81 18 7z m47 23 c12 -26 6 -82 -8 -73 -5 3 -9 0 -9 -5
0 -6 -4 -11 -10 -11 -6 0 -10 27 -10 61 0 65 14 76 37 28z m-1302 -1 c4 4 6 0
3 -8 -2 -8 -15 -16 -29 -18 -17 -2 -20 0 -10 6 8 6 10 15 5 23 -6 11 -5 12 8
2 8 -7 18 -9 23 -5z m1225 -28 c0 -22 -4 -40 -8 -40 -7 0 -8 29 -4 68 4 28 12
9 12 -28z m-1045 -24 c1 -16 6 -31 13 -34 7 -2 12 -9 12 -15 0 -8 -3 -8 -11 0
-8 8 -16 9 -29 1 -19 -12 -50 -5 -50 12 0 6 11 8 28 4 24 -7 26 -6 14 9 -8 9
-11 20 -8 26 3 5 -3 7 -14 4 -11 -3 -20 -1 -20 4 0 17 14 24 40 21 20 -2 25
-9 25 -32z m96 -1 c3 -16 3 -36 1 -42 -4 -14 -51 -18 -53 -5 -12 66 -6 84 23
80 16 -2 25 -12 29 -33z m49 -4 c0 -22 -4 -43 -10 -46 -6 -4 -10 8 -10 29 0
20 -4 36 -10 36 -5 0 -10 5 -10 10 0 6 9 10 20 10 17 0 20 -7 20 -39z m468 20
c3 -9 -2 -11 -17 -6 -12 4 -21 2 -21 -4 0 -6 3 -10 8 -10 24 4 33 -3 30 -23
-2 -17 -10 -23 -28 -23 -20 0 -26 6 -28 28 -2 16 -1 35 2 44 7 18 48 14 54 -6z
m92 9 c0 -16 -33 -80 -42 -80 -5 0 -2 13 7 30 19 37 19 40 -6 40 -11 0 -17 5
-14 10 8 13 55 13 55 0z m60 0 c0 -5 -8 -10 -17 -11 -14 0 -12 -3 5 -10 17 -6
22 -15 20 -31 -3 -26 -34 -36 -52 -18 -8 10 -6 12 12 7 15 -3 22 -1 22 9 0 8
-9 14 -20 14 -20 0 -28 28 -13 43 10 11 43 8 43 -3z m55 0 c4 -6 11 -7 17 -4
8 5 9 1 5 -10 -4 -10 -1 -24 9 -33 11 -12 12 -19 4 -27 -8 -8 -15 -6 -25 8 -8
10 -12 23 -9 27 3 5 -1 6 -9 3 -18 -7 -31 11 -23 31 6 17 22 20 31 5z m423
-37 c3 -42 2 -43 -27 -43 -29 0 -31 2 -31 38 0 45 6 54 35 50 16 -2 21 -12 23
-45z m165 33 c2 -6 4 -24 3 -41 -1 -32 -29 -46 -49 -26 -8 8 -5 11 11 11 23 0
32 19 10 21 -10 0 -10 2 0 6 20 8 14 21 -10 19 -13 0 -34 -11 -47 -23 -24 -23
-24 -23 -3 -23 12 0 22 -4 22 -10 0 -5 -13 -10 -30 -10 -37 0 -41 29 -7 54
l22 17 -22 -6 c-21 -6 -31 4 -17 18 10 10 113 5 117 -7z m64 5 c14 12 18 1 5
-16 -12 -16 -52 -18 -52 -2 0 20 12 29 24 17 6 -6 14 -6 23 1z m-1030 -48 c-3
-10 -5 -2 -5 17 0 19 2 27 5 18 2 -10 2 -26 0 -35z m-638 23 c10 -12 8 -17
-11 -27 -21 -11 -22 -11 -10 4 8 9 11 21 7 27 -9 15 1 12 14 -4z m1691 -37 c0
-11 -7 -19 -15 -19 -8 0 -15 6 -15 13 0 8 -3 7 -10 -3 -5 -8 -12 -12 -15 -8
-4 3 -1 15 6 26 15 24 49 18 49 -9z m-689 -12 c-10 -9 -11 -8 -5 6 3 10 9 15
12 12 3 -3 0 -11 -7 -18z m-161 9 c0 -3 -4 -8 -10 -11 -5 -3 -10 -1 -10 4 0 6
5 11 10 11 6 0 10 -2 10 -4z m630 -6 c0 -5 -4 -10 -10 -10 -5 0 -10 5 -10 10
0 6 5 10 10 10 6 0 10 -4 10 -10z m-1030 -165 c11 -13 -12 -15 -196 -15 -200
0 -209 -1 -231 -22 -20 -19 -23 -31 -23 -95 0 -58 -3 -73 -15 -73 -12 0 -15
15 -15 77 0 73 2 79 32 110 l32 33 202 0 c167 0 204 -3 214 -15z m36 4 c4 -8
9 -7 15 2 7 12 11 11 25 -3 16 -16 15 -17 -15 -16 -28 1 -70 28 -43 28 6 0 14
-5 18 -11z m80 0 c4 -8 9 -7 15 2 7 12 11 11 25 -2 15 -16 14 -17 -19 -17 -21
0 -38 6 -41 14 -6 17 10 19 20 3z m1126 -24 c30 -38 36 -58 37 -128 1 -50 -2
-58 -16 -55 -14 2 -16 15 -15 70 1 59 -2 69 -25 92 -23 23 -33 26 -99 26 -69
0 -85 6 -66 24 4 5 42 6 84 4 71 -4 79 -7 100 -33z m-32 -35 c19 -19 20 -33
20 -297 0 -243 -2 -279 -17 -295 -15 -17 -54 -18 -811 -18 l-796 0 -23 22
c-23 21 -23 22 -23 292 0 263 1 270 22 293 l21 23 794 0 c780 0 793 0 813 -20z
m-1662 -518 c3 -64 6 -73 30 -92 22 -18 37 -21 94 -18 59 3 68 1 68 -14 0 -16
-10 -18 -77 -18 -73 0 -79 2 -110 32 -32 31 -33 35 -33 111 0 58 3 78 13 75 8
-3 13 -30 15 -76z m1730 0 c3 -70 2 -73 -31 -107 l-35 -36 -226 1 c-144 1
-228 5 -232 12 -4 7 -9 6 -14 -2 -8 -13 -30 -6 -30 9 0 12 53 11 68 -1 8 -7
12 -7 12 1 0 8 60 11 203 11 201 0 204 0 226 24 17 18 23 40 28 95 8 94 27 89
31 -7z m-623 -123 c11 -17 -1 -21 -15 -4 -8 9 -8 15 -2 15 6 0 14 -5 17 -11z
m40 0 c11 -17 -1 -21 -15 -4 -8 9 -8 15 -2 15 6 0 14 -5 17 -11z m-1065 -104
c0 -8 -4 -15 -10 -15 -5 0 -10 7 -10 15 0 8 5 15 10 15 6 0 10 -7 10 -15z
m145 6 c3 -5 1 -12 -5 -16 -5 -3 -10 1 -10 9 0 18 6 21 15 7z m412 -13 c-3 -8
-6 -5 -6 6 -1 11 2 17 5 13 3 -3 4 -12 1 -19z m83 1 c0 -5 -4 -9 -10 -9 -5 0
-10 7 -10 16 0 8 5 12 10 9 6 -3 10 -10 10 -16z m280 4 c0 9 5 17 10 17 6 0
10 -7 10 -15 0 -8 5 -15 11 -15 5 0 8 4 4 9 -3 5 -1 12 5 16 6 3 13 -1 16 -10
5 -12 9 -14 14 -4 13 20 60 21 61 1 1 -15 2 -15 6 1 5 20 21 23 28 5 7 -17
237 -16 243 1 6 18 32 13 33 -6 1 -16 2 -16 6 -1 6 22 89 20 103 -2 9 -13 10
-13 10 1 0 11 9 16 30 16 17 0 30 -6 30 -13 0 -6 14 -17 30 -23 17 -5 30 -17
30 -25 0 -9 7 -16 15 -16 8 0 15 -7 15 -15 0 -8 -6 -15 -12 -15 -9 0 -10 -3
-2 -8 18 -12 24 -53 8 -59 -12 -4 -12 -7 2 -18 12 -8 14 -14 6 -19 -7 -4 -16
-4 -22 -1 -5 3 -10 1 -10 -4 0 -6 7 -11 15 -11 8 0 15 -4 15 -10 0 -5 -7 -10
-15 -10 -8 0 -15 -5 -15 -10 0 -6 5 -9 11 -8 6 2 14 -3 17 -11 3 -10 0 -12
-12 -8 -12 5 -16 0 -16 -18 0 -24 -9 -29 -47 -28 -7 1 -13 -7 -13 -17 0 -25
-59 -25 -61 -1 -1 13 -2 13 -6 -1 -5 -22 -23 -24 -23 -3 0 8 -4 15 -10 15 -5
0 -10 -7 -10 -15 0 -8 -4 -15 -10 -15 -5 0 -10 7 -10 15 0 8 -4 15 -10 15 -5
0 -10 -7 -10 -15 0 -21 -20 -19 -21 3 -1 16 -2 16 -6 0 -5 -20 -23 -24 -23 -5
0 9 -33 13 -124 15 -103 2 -125 0 -130 -13 -7 -21 -26 -19 -27 3 -1 14 -2 14
-6 1 -2 -10 -15 -16 -33 -16 -20 0 -30 6 -31 16 -1 13 -2 13 -6 -1 -2 -10 -11
-18 -18 -18 -9 0 -12 6 -9 15 4 8 1 15 -5 15 -6 0 -11 -7 -11 -15 0 -8 -4 -15
-10 -15 -5 0 -10 6 -10 13 0 8 -4 7 -10 -3 -9 -13 -12 -13 -24 2 -7 10 -17 18
-21 18 -18 0 -45 35 -46 59 -1 17 -3 20 -6 9 -2 -10 -9 -18 -15 -18 -5 0 -7 7
-4 16 4 9 1 23 -5 30 -9 11 -8 14 1 14 10 0 10 3 1 14 -10 11 -8 17 6 25 16 9
16 10 1 11 -14 0 -16 8 -12 47 5 51 11 64 23 44 6 -8 10 -3 14 18 5 21 14 32
31 37 13 3 27 13 31 22 6 15 8 15 21 -2 12 -17 14 -18 14 -3z m777 -200 c-3
-10 -5 -4 -5 12 0 17 2 24 5 18 2 -7 2 -21 0 -30z m-1667 -138 c0 -14 -42 -13
-47 2 -2 6 8 11 22 11 14 0 25 -6 25 -13z m430 -6 c0 -5 -4 -9 -10 -9 -5 0
-10 7 -10 16 0 8 5 12 10 9 6 -3 10 -10 10 -16z m30 0 c0 -5 -4 -9 -10 -9 -5
0 -10 7 -10 16 0 8 5 12 10 9 6 -3 10 -10 10 -16z m40 6 c0 -8 -4 -15 -10 -15
-5 0 -10 7 -10 15 0 8 5 15 10 15 6 0 10 -7 10 -15z m40 7 c0 -13 -12 -22 -22
-16 -10 6 -1 24 13 24 5 0 9 -4 9 -8z m1050 -26 c0 -2 -8 -10 -17 -17 -16 -13
-17 -12 -4 4 13 16 21 21 21 13z"/>
<path d="M1392 2926 c-13 -7 -19 -16 -15 -21 4 -4 0 -5 -9 -2 -10 3 -20 2 -23
-3 -12 -19 12 -17 54 4 29 15 39 25 29 28 -8 3 -24 0 -36 -6z"/>
<path d="M1463 2890 c-13 -5 -23 -14 -23 -19 0 -5 -17 -16 -39 -24 -44 -18
-101 -89 -121 -151 -18 -55 -9 -145 21 -201 29 -57 53 -76 71 -56 11 11 10 12
-1 6 -9 -5 -12 -4 -7 3 3 6 2 13 -4 17 -5 3 -15 16 -21 28 -6 12 4 5 23 -16
18 -21 47 -47 63 -57 17 -11 25 -20 19 -20 -5 0 -19 6 -29 14 -19 14 -45 11
-45 -5 0 -5 23 -21 52 -35 41 -21 67 -26 122 -27 88 0 146 24 203 86 66 71 78
101 77 189 -1 72 -3 81 -37 133 -21 30 -56 67 -80 81 -23 15 -44 30 -47 34
-20 28 -145 41 -197 20z m175 -39 c42 -17 122 -84 122 -103 0 -5 5 -6 12 -2 7
5 8 3 4 -5 -5 -7 -1 -20 7 -29 19 -21 17 -170 -2 -181 -7 -4 -11 -12 -10 -17
4 -13 -23 -64 -33 -64 -5 0 -26 -12 -48 -26 -22 -15 -43 -24 -47 -20 -3 3 -1
6 5 6 19 0 74 53 104 99 24 39 28 55 28 117 0 64 -3 77 -32 120 -78 116 -210
145 -327 74 -65 -40 -99 -97 -110 -182 -6 -42 -9 -51 -10 -28 -1 19 -4 46 -8
59 -5 18 -3 22 7 16 9 -6 11 -4 5 5 -4 7 -2 16 5 20 7 5 14 17 15 29 2 25 92
99 143 117 51 18 119 16 170 -5z m-238 -131 c-12 -8 -12 -10 -1 -10 10 0 11
-3 2 -14 -10 -11 -8 -15 6 -19 14 -4 13 -5 -4 -6 -19 -1 -23 4 -23 29 0 22 5
30 18 30 14 0 15 -2 2 -10z m41 -31 c-9 -23 -10 -22 -10 11 -1 23 2 31 9 24 7
-7 7 -19 1 -35z m29 9 c0 -21 -3 -29 -10 -22 -5 5 -7 19 -4 32 9 31 14 27 14
-10z m41 25 c-11 -5 -11 -7 0 -14 10 -6 11 -9 2 -9 -19 0 -16 -18 5 -23 13 -4
11 -5 -5 -6 -19 -1 -23 4 -23 29 0 22 5 30 18 29 12 0 13 -2 3 -6z m67 -24
c-1 -20 -4 -26 -10 -17 -6 10 -10 10 -18 -2 -7 -11 -10 -7 -10 18 0 25 4 32
19 32 15 0 19 -7 19 -31z m52 21 c0 -5 -7 -7 -15 -4 -10 4 -15 0 -15 -15 0
-23 16 -29 22 -9 3 7 7 3 10 -8 4 -18 2 -20 -14 -16 -23 6 -33 25 -24 47 6 16
36 21 36 5z m85 -35 c5 -21 4 -26 -3 -16 -6 8 -17 11 -26 8 -19 -7 -21 6 -5
35 13 24 25 14 34 -27z m-55 9 c0 -14 -4 -23 -10 -19 -5 3 -10 15 -10 26 0 10
5 19 10 19 6 0 10 -12 10 -26z m-242 -122 c2 -32 -1 -52 -7 -52 -6 0 -11 20
-11 45 0 25 -4 45 -10 45 -5 0 -10 5 -10 11 0 6 8 9 18 7 13 -2 18 -15 20 -56z
m96 42 c3 -9 6 -31 6 -49 0 -28 -4 -33 -28 -37 -46 -7 -52 0 -52 53 l0 49 34
0 c22 0 36 -6 40 -16z m100 0 c21 -54 -9 -103 -54 -89 -16 5 -20 15 -20 56 l0
49 34 0 c22 0 36 -6 40 -16z m52 5 c10 -17 -13 -36 -27 -22 -12 12 -4 33 11
33 5 0 12 -5 16 -11z m12 -44 c-16 -30 -31 -55 -34 -55 -2 0 8 25 23 55 15 30
30 55 34 55 4 0 -6 -25 -23 -55z m42 -10 c10 -12 10 -18 0 -30 -7 -8 -16 -15
-20 -15 -4 0 -10 7 -14 15 -6 17 2 45 14 45 4 0 13 -7 20 -15z m-391 -40 c0
-5 -4 -3 -9 5 -5 8 -9 22 -9 30 0 16 17 -16 18 -35z m298 -131 c-10 -10 -118
-33 -112 -24 3 5 0 10 -7 13 -7 2 -2 2 12 1 14 -2 41 0 60 5 45 11 55 12 47 5z"/>
<path d="M1550 2710 c0 -5 5 -10 10 -10 6 0 10 5 10 10 0 6 -4 10 -10 10 -5 0
-10 -4 -10 -10z"/>
<path d="M1466 2613 c-10 -11 -7 -61 5 -69 14 -8 29 14 29 42 0 21 -22 39 -34
27z"/>
<path d="M1560 2575 c0 -24 5 -35 15 -35 10 0 15 11 15 35 0 24 -5 35 -15 35
-10 0 -15 -11 -15 -35z"/>
<path d="M1640 2610 c0 -5 5 -10 10 -10 6 0 10 5 10 10 0 6 -4 10 -10 10 -5 0
-10 -4 -10 -10z"/>
<path d="M1690 2550 c0 -5 5 -10 10 -10 6 0 10 5 10 10 0 6 -4 10 -10 10 -5 0
-10 -4 -10 -10z"/>
<path d="M1756 2882 c-3 -5 5 -19 18 -31 13 -13 26 -18 30 -13 3 5 -5 19 -18
31 -13 13 -26 18 -30 13z"/>
<path d="M1837 2765 c9 -19 21 -32 26 -28 5 3 3 9 -4 14 -8 5 -10 9 -6 9 11 0
-12 40 -23 40 -5 0 -2 -16 7 -35z"/>
<path d="M1868 2660 c2 -22 8 -40 14 -40 6 0 7 13 3 33 -10 48 -21 52 -17 7z"/>
<path d="M1860 2539 c-8 -24 -14 -50 -13 -56 0 -7 -3 -13 -7 -13 -4 0 -10 -9
-13 -20 -3 -11 -1 -17 4 -14 9 5 40 59 39 69 0 3 2 16 6 30 11 45 -2 48 -16 4z"/>
<path d="M1770 2379 c0 -5 5 -7 10 -4 6 3 10 8 10 11 0 2 -4 4 -10 4 -5 0 -10
-5 -10 -11z"/>
<path d="M712 2709 c2 -6 8 -10 13 -10 5 0 11 4 13 10 2 6 -4 11 -13 11 -9 0
-15 -5 -13 -11z"/>
<path d="M366 2165 c-3 -8 -1 -15 4 -15 6 0 10 7 10 15 0 8 -2 15 -4 15 -2 0
-6 -7 -10 -15z"/>
<path d="M1670 1999 c0 -5 5 -7 10 -4 6 3 10 8 10 11 0 2 -4 4 -10 4 -5 0 -10
-5 -10 -11z"/>
<path d="M405 1910 c3 -5 8 -10 11 -10 2 0 4 5 4 10 0 6 -5 10 -11 10 -5 0 -7
-4 -4 -10z"/>
<path d="M405 1880 c-3 -5 1 -10 9 -10 9 0 16 5 16 10 0 6 -4 10 -9 10 -6 0
-13 -4 -16 -10z"/>
<path d="M500 1895 c0 -16 6 -25 15 -25 9 0 15 9 15 25 0 16 -6 25 -15 25 -9
0 -15 -9 -15 -25z"/>
<path d="M580 1890 c0 -16 5 -30 10 -30 6 0 10 14 10 30 0 17 -4 30 -10 30 -5
0 -10 -13 -10 -30z"/>
<path d="M1232 1895 c2 -14 8 -26 13 -26 6 0 11 12 13 26 2 18 -1 25 -13 25
-12 0 -15 -7 -13 -25z"/>
<path d="M500 1620 c0 -5 5 -10 10 -10 6 0 10 5 10 10 0 6 -4 10 -10 10 -5 0
-10 -4 -10 -10z"/>
<path d="M1020 1590 c0 -5 5 -10 10 -10 6 0 10 5 10 10 0 6 -4 10 -10 10 -5 0
-10 -4 -10 -10z"/>
<path d="M1240 1619 c0 -5 5 -7 10 -4 6 3 10 8 10 11 0 2 -4 4 -10 4 -5 0 -10
-5 -10 -11z"/>
<path d="M1650 1605 c0 -14 5 -25 10 -25 6 0 10 11 10 25 0 14 -4 25 -10 25
-5 0 -10 -11 -10 -25z"/>
<path d="M292 1344 c-22 -15 -22 -18 -22 -288 0 -214 3 -276 13 -284 20 -17
1589 -23 1573 -7 -8 10 -13 10 -18 1 -6 -8 -8 -7 -8 2 0 8 -8 10 -24 6 -13 -3
-26 -1 -30 4 -3 5 8 9 24 10 62 2 69 9 73 70 3 49 3 46 5 -22 1 -52 5 -77 12
-70 14 14 14 562 0 580 -10 11 -135 14 -794 14 -688 0 -785 -2 -804 -16z
m1585 -56 c-3 -8 -6 -5 -6 6 -1 11 2 17 5 13 3 -3 4 -12 1 -19z m-267 -23 c0
-9 -9 -15 -25 -15 -31 0 -33 17 -2 23 12 2 23 5 25 6 1 0 2 -6 2 -14z m-986
-28 c13 -9 17 -23 14 -51 -4 -45 -24 -62 -61 -52 -24 6 -27 11 -27 51 0 58 34
82 74 52z m215 7 c12 -4 11 -7 -2 -17 -9 -6 -17 -29 -19 -50 -4 -52 -22 -51
-26 1 -2 26 -9 45 -18 49 -7 3 -12 8 -10 12 5 8 57 12 75 5z m92 -4 c14 -8 19
-21 19 -55 0 -40 -2 -44 -30 -50 -41 -9 -60 8 -60 56 0 50 29 71 71 49z m113
-11 c-3 -5 -16 -9 -30 -9 -33 0 -31 -18 4 -22 20 -2 28 -9 30 -27 2 -13 -2
-28 -10 -32 -18 -12 -68 -11 -68 1 0 6 11 10 25 10 31 0 34 27 3 32 -28 4 -36
37 -14 53 18 13 69 8 60 -6z m470 15 c23 -9 9 -24 -20 -24 -22 0 -25 -4 -22
-32 2 -23 9 -34 24 -38 18 -4 20 -9 13 -28 l-9 -24 -30 30 c-41 41 -41 99 0
115 21 8 26 8 44 1z m210 -10 c19 -18 21 -75 4 -92 -7 -7 -24 -12 -38 -12 -34
0 -50 17 -50 55 0 34 8 49 30 58 26 9 38 8 54 -9z m-1427 -16 c-3 -8 -6 -5 -6
6 -1 11 2 17 5 13 3 -3 4 -12 1 -19z m238 2 c8 -25 -10 -50 -35 -50 -10 0 -25
-10 -33 -22 -15 -22 -16 -21 -16 35 l-1 57 39 0 c31 0 41 -4 46 -20z m169 -7
l15 -28 1 28 c0 17 5 27 15 27 11 0 15 -12 15 -50 0 -60 -17 -66 -49 -17 l-22
32 3 -34 c2 -21 -2 -36 -9 -38 -10 -3 -13 11 -13 51 0 64 19 76 44 29z m486
-17 c0 -49 -15 -68 -51 -64 -32 4 -39 15 -39 66 l0 42 45 0 45 0 0 -44z m100
34 c0 -5 -11 -10 -25 -10 -14 0 -25 -4 -25 -10 0 -5 9 -10 20 -10 11 0 20 -4
20 -10 0 -5 -9 -10 -20 -10 -11 0 -20 -7 -20 -15 0 -9 9 -15 25 -15 14 0 25
-5 25 -11 0 -6 -16 -9 -37 -7 l-38 3 -3 53 -3 52 40 0 c23 0 41 -4 41 -10z
m119 -8 c5 -9 13 -35 17 -57 l7 -40 -22 20 c-18 16 -25 17 -41 7 -32 -20 -40
-14 -26 21 7 17 16 40 19 50 8 22 34 22 46 -1z m200 -4 c5 -13 12 -39 16 -58
l7 -35 -21 20 c-18 16 -25 17 -41 7 -34 -21 -40 -14 -25 29 8 22 17 44 20 50
11 17 35 9 44 -13z m-506 -167 c17 -13 21 -149 5 -168 -6 -8 -34 -13 -69 -13
-52 0 -59 2 -59 19 0 17 8 20 48 23 55 4 67 29 17 38 -42 7 -47 40 -7 40 28 0
48 20 35 34 -4 3 -26 6 -50 6 -30 0 -43 4 -43 14 0 8 6 17 13 19 20 9 96 1
110 -12z m360 0 c21 -17 24 -150 5 -169 -7 -7 -36 -12 -65 -12 -41 0 -54 4
-63 19 -14 28 -13 146 3 159 26 21 96 23 120 3z m-693 -86 c0 -95 0 -95 -25
-95 -24 0 -25 2 -25 75 0 59 -3 73 -14 69 -7 -3 -16 2 -19 10 -8 19 18 35 56
36 l27 0 0 -95z m168 83 c7 -7 12 -41 12 -83 0 -42 -5 -76 -12 -83 -7 -7 -38
-12 -70 -12 -51 0 -58 2 -58 19 0 17 8 20 48 23 34 2 47 7 47 18 0 11 -9 14
-38 12 -21 -2 -45 2 -53 8 -17 15 -19 81 -2 98 16 16 110 16 126 0z m350 0 c7
-7 12 -40 12 -79 0 -85 -12 -99 -86 -99 -47 0 -54 3 -54 19 0 17 8 20 47 23
62 4 71 28 11 28 -52 0 -68 13 -68 56 0 58 7 64 69 64 31 0 62 -5 69 -12z
m-973 -248 c3 -5 -1 -10 -10 -10 -9 0 -13 5 -10 10 3 6 8 10 10 10 2 0 7 -4
10 -10z"/>
<path d="M570 1190 c0 -27 3 -31 23 -28 16 2 22 10 22 28 0 18 -6 26 -22 28
-20 3 -23 -1 -23 -28z"/>
<path d="M880 1208 c1 -49 30 -77 44 -42 13 35 7 54 -19 54 -14 0 -25 -6 -25
-12z"/>
<path d="M1672 1188 c2 -21 8 -33 18 -33 10 0 16 12 18 33 3 27 0 32 -18 32
-18 0 -21 -5 -18 -32z"/>
<path d="M476 1223 c-13 -14 -5 -33 14 -33 11 0 20 6 20 14 0 15 -24 28 -34
19z"/>
<path d="M1130 1190 c0 -23 4 -30 20 -30 22 0 23 3 14 38 -9 33 -34 28 -34 -8z"/>
<path d="M1381 1194 c0 -11 3 -14 6 -6 3 7 2 16 -1 19 -3 4 -6 -2 -5 -13z"/>
<path d="M1576 1195 c-3 -8 -1 -15 4 -15 6 0 10 7 10 15 0 8 -2 15 -4 15 -2 0
-6 -7 -10 -15z"/>
<path d="M1374 1017 c-3 -8 -4 -34 -2 -58 3 -41 5 -44 33 -44 30 0 30 1 30 55
0 53 -1 55 -28 58 -17 2 -29 -2 -33 -11z"/>
<path d="M848 1025 c-3 -3 -4 -15 -1 -26 4 -13 14 -19 35 -19 25 0 29 4 26 23
-2 15 -11 23 -28 25 -14 2 -28 0 -32 -3z"/>
<path d="M1194 1015 c-8 -21 4 -35 31 -35 26 0 42 29 23 42 -20 12 -48 9 -54
-7z"/>
<path d="M1164 557 c-2 -7 -3 -67 -2 -133 l3 -119 325 -2 c179 0 345 2 370 5
43 6 44 6 15 13 l-30 7 33 1 c32 1 32 2 31 49 0 26 -4 68 -8 95 -4 26 -5 47
-1 47 11 0 8 34 -4 42 -6 4 -172 8 -369 8 -285 0 -359 -3 -363 -13z m234 -69
c7 -7 12 -30 12 -53 0 -23 -5 -46 -12 -53 -7 -7 -43 -12 -89 -12 -89 0 -109
12 -109 65 0 63 4 65 99 65 54 0 92 -5 99 -12z m240 -10 c13 -13 16 -47 6 -72
-4 -9 -18 -16 -34 -16 -16 0 -30 7 -34 16 -8 21 -8 69 1 77 11 11 48 8 61 -5z"/>
<path d="M1243 445 c2 -36 5 -40 27 -40 21 0 26 5 28 33 2 17 -1 32 -5 32 -5
0 -9 -12 -8 -27 0 -42 -28 -36 -37 7 l-6 35 1 -40z"/>
<path d="M1323 473 c-18 -7 -16 -48 2 -63 12 -10 20 -10 38 -1 l22 12 -23 -5
c-26 -5 -38 14 -28 41 5 12 9 14 18 5 17 -17 33 -15 18 3 -13 15 -25 17 -47 8z"/>
<path d="M1600 440 c0 -16 5 -30 10 -30 6 0 10 14 10 30 0 17 -4 30 -10 30 -5
0 -10 -13 -10 -30z"/>
<path d="M1475 4520 c-11 -5 124 -9 317 -9 185 -1 343 -4 352 -7 9 -3 16 -15
16 -25 0 -10 4 -19 9 -19 6 0 9 9 8 20 -1 11 -5 20 -9 20 -4 0 -7 6 -6 13 2 9
-70 12 -332 14 -184 1 -344 -3 -355 -7z"/>
<path d="M2062 4486 c10 -7 16 -15 13 -17 -2 -3 4 -5 13 -5 9 -1 25 -4 35 -9
12 -5 17 -3 17 9 0 20 -31 36 -67 36 -25 -1 -26 -2 -11 -14z"/>
<path d="M190 4447 c0 -6 -3 -7 -6 -4 -11 10 -44 -12 -44 -30 0 -36 25 -96 47
-110 33 -22 79 -1 98 45 20 45 19 65 -3 85 -20 19 -92 29 -92 14z"/>
<path d="M2162 4383 c3 -76 21 -92 26 -24 4 52 -4 91 -19 91 -6 0 -9 -26 -7
-67z"/>
<path d="M94 4391 c0 -52 10 -57 21 -11 3 15 0 33 -8 43 -11 17 -13 13 -13
-32z"/>
<path d="M1087 4394 c-2 -3 -17 -7 -33 -10 -30 -5 -124 -62 -124 -75 0 -10 99
30 121 48 21 18 32 17 74 -8 19 -12 50 -25 68 -29 17 -4 41 -11 52 -15 16 -6
16 -4 -3 10 -35 26 -150 84 -155 79z"/>
<path d="M1044 4296 c-11 -8 -41 -26 -65 -39 -75 -41 -343 -192 -367 -208
l-23 -14 2 -265 c0 -146 -1 -271 -3 -279 -6 -26 19 -21 32 6 l14 28 6 -45 c5
-44 6 -45 95 -96 98 -57 114 -63 94 -36 -7 9 -2 7 12 -5 14 -13 30 -23 36 -23
6 0 13 -6 16 -14 6 -15 114 -81 134 -81 6 0 20 -9 32 -19 20 -18 21 -18 66 8
30 18 45 34 46 49 1 17 2 18 6 5 5 -22 23 -24 23 -3 0 8 9 15 20 15 12 0 38 9
59 19 l38 20 6 92 c6 96 -3 126 -36 113 -23 -8 -55 13 -60 38 -2 13 -5 4 -6
-19 -1 -39 -14 -58 -23 -34 -1 6 -27 11 -56 12 -51 3 -64 9 -68 37 -3 19 -34
52 -47 49 -6 -1 -11 3 -12 8 -1 20 -17 36 -32 31 -8 -3 -12 -2 -9 3 3 5 -1 14
-9 21 -20 16 -19 27 5 52 15 17 21 18 25 7 4 -10 21 -14 55 -13 27 1 48 -2 47
-6 -1 -4 8 -22 21 -39 16 -23 30 -31 50 -30 24 2 25 2 4 6 -13 3 -26 12 -28
21 -3 9 -10 25 -15 35 -13 24 -1 40 24 33 12 -3 27 0 34 6 11 9 15 7 20 -10 3
-12 11 -22 18 -22 7 0 15 10 18 22 5 18 8 19 21 9 9 -7 21 -11 28 -8 8 3 3 9
-14 17 -19 9 -27 22 -30 45 -3 26 -1 31 14 27 14 -3 50 -45 54 -62 0 -3 6 -18
13 -35 39 -93 50 -148 38 -192 -9 -33 -8 -46 1 -55 10 -10 14 -8 19 10 4 18
11 22 27 18 14 -3 38 7 72 30 44 31 55 34 73 24 l21 -11 -2 242 -3 242 -65 40
c-120 73 -418 237 -432 237 -7 0 -23 -6 -34 -14z m116 -86 c44 -22 60 -45 60
-87 0 -15 9 -39 20 -53 21 -27 26 -76 10 -100 -8 -13 -10 -12 -10 3 0 9 -5 17
-11 17 -7 0 -8 -14 -4 -39 4 -27 2 -48 -9 -68 l-15 -28 -1 33 c0 17 -5 32 -11
32 -5 0 -7 -5 -4 -11 4 -6 0 -16 -8 -22 -8 -7 -17 -21 -19 -32 -5 -25 -53 -24
-77 0 -15 15 -13 16 22 13 33 -2 41 1 53 22 18 33 18 49 -1 24 -17 -23 -20
-12 -3 16 10 16 9 22 -12 40 -18 16 -36 20 -72 19 -47 -3 -95 22 -82 42 3 5
-1 9 -8 9 -28 1 -46 25 -41 54 4 21 8 24 15 14 5 -8 7 0 3 22 -5 27 -2 40 12
52 56 51 128 61 193 28z m-241 -202 c-1 -51 -3 -56 -8 -28 -6 34 -3 90 5 90 2
0 3 -28 3 -62z m45 -84 c8 -22 -4 -40 -15 -23 -11 18 -11 39 0 39 5 0 12 -7
15 -16z m-171 -26 c-23 -11 -30 -47 -17 -82 6 -17 44 -23 44 -7 0 5 9 11 21
14 15 4 19 1 17 -11 -2 -9 -12 -17 -23 -17 -27 0 -25 -12 9 -63 22 -32 26 -46
18 -54 -9 -9 -12 -9 -12 0 0 7 -11 12 -24 12 -17 0 -25 7 -28 25 -3 14 -1 25
4 25 5 0 6 5 3 10 -9 15 -57 12 -101 -5 l-39 -16 26 23 c14 13 33 28 41 33 22
14 32 75 13 75 -8 0 -15 5 -15 11 0 6 7 9 15 5 8 -3 15 -1 15 4 0 6 -6 10 -12
10 -9 0 -8 4 2 10 8 5 26 9 40 9 l25 0 -22 -11z m111 -80 c56 -56 64 -60 74
-42 7 13 10 13 20 1 10 -11 7 -16 -15 -26 -24 -11 -29 -9 -65 26 -39 37 -64
73 -53 73 4 0 21 -15 39 -32z m303 26 c-3 -3 -12 -4 -19 -1 -8 3 -5 6 6 6 11
1 17 -2 13 -5z m-21 -71 c-10 -10 -19 5 -10 18 6 11 8 11 12 0 2 -7 1 -15 -2
-18z m222 -28 c40 -35 55 -73 66 -155 5 -36 4 -41 -5 -24 -6 11 -24 28 -40 38
-30 18 -39 50 -16 60 6 2 1 4 -13 3 -23 -2 -25 2 -28 46 -2 26 -7 47 -13 47
-5 0 -9 5 -9 10 0 19 20 10 58 -25z m-728 -37 c-1 -7 -9 -31 -20 -53 -11 -22
-20 -51 -20 -65 -1 -38 -14 -54 -29 -36 -21 25 30 166 59 166 6 0 10 -6 10
-12z m150 -68 c0 -5 -7 -10 -15 -10 -8 0 -15 5 -15 10 0 6 7 10 15 10 8 0 15
-4 15 -10z m-60 -135 c11 -13 10 -14 -4 -9 -9 3 -16 10 -16 15 0 13 6 11 20
-6z m-100 -35 c0 -5 -5 -10 -11 -10 -5 0 -7 5 -4 10 3 6 8 10 11 10 2 0 4 -4
4 -10z m301 -57 c13 -16 12 -17 -3 -4 -10 7 -18 15 -18 17 0 8 8 3 21 -13z
m318 -26 c1 -5 -3 -5 -9 -2 -5 3 -10 16 -9 28 0 21 1 21 9 2 5 -11 9 -24 9
-28z m-106 -24 c-7 -2 -19 -2 -25 0 -7 3 -2 5 12 5 14 0 19 -2 13 -5z m60 0
c-7 -2 -19 -2 -25 0 -7 3 -2 5 12 5 14 0 19 -2 13 -5z"/>
<path d="M989 4184 c-5 -7 -6 -37 -3 -70 9 -76 35 -104 96 -104 62 0 76 12 44
38 -14 11 -26 25 -26 30 0 6 -10 13 -22 15 -14 2 -7 5 16 6 44 1 44 10 0 15
-24 3 -29 8 -31 32 0 16 -2 34 -2 41 -1 15 -59 12 -72 -3z"/>
<path d="M1170 3949 c0 -5 5 -7 10 -4 6 3 10 8 10 11 0 2 -4 4 -10 4 -5 0 -10
-5 -10 -11z"/>
<path d="M874 4285 c-10 -8 -26 -15 -34 -15 -8 0 -26 -9 -40 -20 -19 -14 -22
-22 -14 -30 14 -14 110 35 125 62 12 23 -9 24 -37 3z"/>
<path d="M1290 4270 c-11 -7 -7 -12 13 -21 18 -8 31 -9 38 -2 13 13 -33 34
-51 23z"/>
<path d="M1371 4224 c0 -11 3 -14 6 -6 3 7 2 16 -1 19 -3 4 -6 -2 -5 -13z"/>
<path d="M1397 4219 c7 -7 15 -10 18 -7 3 3 -2 9 -12 12 -14 6 -15 5 -6 -5z"/>
<path d="M1456 4165 c10 -8 33 -14 49 -14 l30 0 -25 14 c-14 8 -36 14 -49 15
-24 0 -24 0 -5 -15z"/>
<path d="M546 4100 c-30 -20 -46 -36 -44 -47 4 -23 25 -27 32 -6 4 10 21 27
38 38 31 20 48 45 31 45 -5 0 -31 -14 -57 -30z"/>
<path d="M111 4107 c-16 -20 -6 -56 10 -40 6 6 9 21 7 33 -3 21 -4 22 -17 7z"/>
<path d="M1600 4100 c8 -5 11 -10 6 -10 -5 0 -2 -8 7 -18 13 -14 17 -43 18
-136 1 -68 5 -112 10 -104 5 7 9 45 9 83 0 39 4 85 10 104 8 31 7 36 -21 62
-17 16 -36 29 -43 29 -6 0 -4 -5 4 -10z"/>
<path d="M506 3991 c-4 -7 -5 -15 -2 -18 9 -9 19 4 14 18 -4 11 -6 11 -12 0z"/>
<path d="M520 3660 c0 -33 -4 -60 -10 -60 -6 0 -10 -36 -10 -89 l0 -89 41 -16
c22 -9 45 -14 50 -11 5 4 9 1 9 -4 0 -6 7 -11 16 -11 10 0 6 8 -14 25 -17 14
-35 25 -41 25 -23 0 -31 53 -25 170 4 84 3 120 -5 120 -7 0 -11 -23 -11 -60z"/>
<path d="M1210 3650 c-9 -6 -10 -10 -3 -10 6 0 15 5 18 10 8 12 4 12 -15 0z"/>
<path d="M1631 3582 c1 -62 5 -74 22 -83 17 -10 19 -9 12 7 -4 11 -8 42 -9 71
-1 29 -7 58 -14 65 -10 10 -12 -2 -11 -60z"/>
<path d="M1085 3540 c3 -5 8 -10 11 -10 2 0 4 5 4 10 0 6 -5 10 -11 10 -5 0
-7 -4 -4 -10z"/>
<path d="M1445 3487 l-90 -52 -5 -119 c-3 -65 -3 -121 0 -125 7 -9 116 -72
162 -94 42 -20 43 -19 176 62 l52 33 0 117 c0 100 -3 120 -17 133 -23 19 -168
98 -179 98 -5 -1 -49 -24 -99 -53z m1 -78 c5 -8 9 -8 14 1 5 8 10 2 14 -15 9
-35 0 -44 -19 -19 -13 17 -14 17 -15 2 0 -31 -20 -19 -20 12 0 30 13 40 26 19z
m51 -36 c-3 -10 -5 -2 -5 17 0 19 2 27 5 18 2 -10 2 -26 0 -35z m33 30 c0 -15
2 -14 16 3 14 17 15 17 10 1 -3 -10 -6 -25 -6 -33 0 -25 -18 -15 -29 16 -6 18
-6 30 0 30 5 0 9 -8 9 -17z m75 9 c-5 -4 -10 -14 -10 -22 0 -8 5 -18 10 -22 6
-4 1 -8 -10 -8 -16 0 -21 7 -23 30 -2 25 1 30 20 30 13 0 19 -4 13 -8z m53
-45 c12 -3 10 -5 -5 -6 -20 -1 -23 4 -22 32 2 29 2 29 6 5 2 -15 12 -29 21
-31z m-71 -45 c7 -5 11 -32 10 -77 l-2 -70 -50 0 c-44 0 -50 3 -53 23 -3 23
21 32 33 12 11 -18 35 -11 35 10 0 13 -7 20 -20 20 -11 0 -20 7 -20 15 0 8 9
15 20 15 11 0 20 7 20 15 0 8 -9 15 -20 15 -11 0 -20 -4 -20 -10 0 -5 -7 -10
-15 -10 -15 0 -21 31 -8 43 9 9 75 9 90 -1z"/>
<path d="M655 3333 c21 -15 45 -17 45 -4 0 5 -14 11 -32 13 -28 5 -29 4 -13
-9z"/>
<path d="M750 3285 c14 -8 38 -14 54 -15 28 0 29 1 10 15 -10 8 -35 14 -54 14
l-35 0 25 -14z"/>
<path d="M836 3253 c-8 -8 12 -21 140 -94 l108 -62 51 28 c94 52 115 67 109
76 -7 11 -45 2 -59 -15 -5 -6 -31 -21 -58 -34 l-47 -24 -53 35 c-81 54 -180
100 -191 90z"/>
<path d="M1286 3235 c-3 -8 -2 -15 3 -15 5 0 14 7 21 15 10 12 10 15 -3 15 -8
0 -17 -7 -21 -15z"/>
<path d="M97 603 c-10 -10 -8 -91 2 -97 5 -3 9 19 10 49 0 56 -1 60 -12 48z"/>
<path d="M262 558 c-18 -18 -17 -232 2 -247 9 -8 119 -11 375 -11 l362 1 -3
132 -3 132 -360 3 c-272 2 -364 -1 -373 -10z m197 -75 c7 -16 15 -39 17 -52 4
-21 2 -23 -21 -17 -17 4 -24 3 -20 -3 4 -7 -1 -8 -11 -4 -12 4 -15 3 -10 -5 5
-8 2 -10 -8 -6 -9 3 -25 -5 -39 -20 -23 -25 -44 -36 -33 -17 3 5 -1 15 -10 22
-11 9 -14 22 -10 43 4 22 3 27 -4 16 -8 -13 -10 -13 -10 2 0 10 11 19 28 22
15 4 41 15 57 26 41 27 59 25 74 -7z m139 -11 c3 -9 -3 -11 -22 -6 -33 8 -34
-3 -1 -16 17 -7 25 -17 25 -34 0 -29 -24 -40 -53 -24 -19 11 -20 13 -4 16 21
4 22 18 2 26 -15 6 -20 37 -8 50 11 11 56 2 61 -12z m170 -1 c3 -9 -2 -11 -17
-6 -12 3 -21 2 -21 -4 0 -5 10 -11 23 -13 16 -2 22 -10 22 -28 0 -22 -4 -25
-35 -25 -33 0 -35 2 -38 39 -4 42 9 58 42 54 11 -2 21 -9 24 -17z m80 10 c8
-5 12 -23 10 -47 -3 -36 -6 -39 -35 -42 -33 -3 -33 -3 -33 41 0 24 3 47 7 50
9 9 35 8 51 -2z m90 -3 c19 -19 14 -34 -15 -48 -27 -13 -27 -14 -5 -18 32 -5
27 -22 -7 -22 -43 0 -49 19 -16 46 16 13 26 26 22 30 -3 4 -13 1 -21 -5 -9 -8
-16 -8 -20 -2 -6 10 20 30 40 31 5 0 15 -5 22 -12z m-288 -43 c0 -25 -4 -45
-10 -45 -5 0 -10 12 -10 26 0 14 -5 34 -10 45 -9 16 -7 19 10 19 17 0 20 -6
20 -45z m37 -41 c-9 -9 -28 6 -21 18 4 6 10 6 17 -1 6 -6 8 -13 4 -17z m-292
-14 c-3 -5 -12 -10 -18 -10 -7 0 -6 4 3 10 19 12 23 12 15 0z"/>
<path d="M372 457 c-16 -19 11 -58 28 -41 14 14 10 46 -6 51 -6 2 -16 -2 -22
-10z"/>
<path d="M730 420 c0 -5 7 -10 15 -10 8 0 15 5 15 10 0 6 -7 10 -15 10 -8 0
-15 -4 -15 -10z"/>
<path d="M812 438 c2 -18 8 -33 13 -33 6 0 11 15 13 33 3 24 -1 32 -13 32 -12
0 -16 -8 -13 -32z"/>
<path d="M2167 523 c-11 -10 -8 -101 3 -108 6 -4 10 17 10 54 0 62 -1 66 -13
54z"/>
<path d="M90 330 c0 -14 6 -20 18 -18 13 2 18 -5 20 -34 2 -29 -1 -38 -12 -38
-10 0 -13 6 -9 17 4 11 3 14 -5 9 -7 -4 -12 -21 -12 -37 l0 -30 30 16 c27 14
30 20 30 65 0 47 -2 50 -26 50 -14 0 -23 4 -19 10 3 6 1 10 -4 10 -6 0 -11 -9
-11 -20z"/>
<path d="M303 73 c15 -2 37 -2 50 0 12 2 0 4 -28 4 -27 0 -38 -2 -22 -4z"/>
<path d="M1913 73 c15 -2 37 -2 50 0 12 2 0 4 -28 4 -27 0 -38 -2 -22 -4z"/>
</g>
</svg>
