<?xml version="1.0" standalone="no"?>
<!DOCTYPE svg PUBLIC "-//W3C//DTD SVG 20010904//EN"
 "http://www.w3.org/TR/2001/REC-SVG-20010904/DTD/svg10.dtd">
<svg version="1.0" xmlns="http://www.w3.org/2000/svg"
 width="180.000000pt" height="376.000000pt" viewBox="0 0 180.000000 376.000000"
 preserveAspectRatio="xMidYMid meet">

<g transform="translate(0.000000,376.000000) scale(0.100000,-0.100000)"
fill="#000000" stroke="none">
<path d="M0 1880 l1 -1880 899 0 900 0 -2 183 c-1 149 -3 166 -8 92 -4 -54 -7
-71 -8 -43 -1 32 -7 51 -19 58 -17 11 -17 11 1 6 17 -6 18 -2 11 46 -8 58 -7
116 6 213 1 11 5 -11 9 -50 4 -38 7 678 8 1593 l2 1662 -900 0 -900 0 0 -1880z
m1088 1847 c-104 -6 -235 -6 -350 0 -179 10 -175 10 167 10 331 0 341 -1 183
-10z m652 -269 c0 -122 -4 -178 -10 -168 -9 13 -10 13 -11 0 -1 -8 -7 12 -14
45 -6 34 -8 67 -3 77 4 9 8 29 8 45 0 22 2 25 10 13 7 -11 10 -5 10 24 0 34
-2 38 -21 33 -17 -4 -19 -3 -10 6 6 6 11 30 11 53 0 36 5 46 28 53 1 1 2 -81
2 -181z m-850 141 l25 -20 -31 15 c-31 15 -33 14 -123 -39 -50 -29 -100 -56
-110 -60 -11 -3 -35 -25 -53 -48 l-33 -41 55 31 c30 17 59 31 64 31 5 -1 23
10 40 24 17 13 54 37 81 52 l50 28 115 -65 c112 -64 170 -88 170 -70 0 9 -25
27 -75 53 -62 33 -126 73 -122 76 2 2 60 -27 128 -66 68 -38 135 -70 149 -70
19 0 21 -3 11 -9 -8 -5 -29 -7 -48 -4 -34 6 -47 -10 -17 -21 24 -9 54 -7 54 4
0 6 8 6 23 0 12 -5 35 -11 50 -15 15 -3 25 -9 23 -14 -3 -5 3 -16 14 -26 19
-17 20 -32 20 -252 l0 -234 34 -30 34 -29 0 -105 0 -104 -35 -21 c-38 -22 -43
-24 -43 -12 0 4 14 16 30 25 l30 18 0 96 c0 90 -2 97 -26 119 -14 13 -28 24
-32 24 -4 0 -6 26 -5 57 1 32 -2 62 -7 68 -5 6 -10 28 -13 50 -2 22 -4 -4 -5
-57 -1 -54 -4 -98 -7 -98 -4 0 -19 7 -36 15 -28 15 -32 14 -69 -6 -22 -13 -42
-20 -46 -17 -10 10 72 60 93 56 17 -3 18 9 21 189 l2 191 -27 20 c-16 10 -86
52 -158 92 -71 40 -152 86 -178 101 l-49 29 -61 -34 c-102 -56 -331 -187 -342
-196 -6 -5 -8 -80 -5 -207 3 -115 1 -209 -5 -225 -14 -42 8 -59 29 -22 l15 29
1 -32 c0 -41 9 -49 115 -103 49 -25 97 -52 106 -60 10 -8 47 -30 83 -49 l65
-34 33 20 c20 12 32 26 30 36 -2 9 2 17 8 17 5 0 10 -4 10 -10 0 -5 5 -10 11
-10 5 0 7 5 4 10 -3 6 3 10 14 10 12 0 21 4 21 9 0 5 13 11 29 14 28 6 29 8
33 79 6 87 -3 110 -38 104 -19 -4 -27 1 -34 17 -8 20 -9 18 -9 -10 -1 -18 -5
-33 -11 -33 -5 0 -10 5 -10 10 0 6 -15 10 -32 10 -27 0 -42 10 -85 56 -29 31
-57 53 -63 49 -6 -3 -10 -3 -9 2 1 4 -1 16 -6 26 -12 28 5 36 58 30 38 -4 52
-12 68 -34 13 -18 29 -29 42 -28 14 1 16 3 6 6 -9 2 -23 19 -32 38 l-17 35 40
0 c21 0 42 -5 46 -12 5 -8 11 -6 20 6 10 15 17 16 36 6 22 -11 22 -10 4 4 -11
9 -23 16 -28 16 -4 0 -8 11 -8 25 0 14 4 25 10 25 10 0 60 -47 55 -52 -2 -2 7
-35 20 -73 17 -53 22 -83 18 -120 -6 -49 -6 -50 14 -32 23 20 33 22 33 4 0 -8
-16 -22 -35 -33 l-35 -19 0 -97 0 -97 43 -25 c23 -14 36 -26 29 -26 -18 0 -52
18 -78 42 -21 19 -22 19 -70 -9 -27 -16 -70 -39 -95 -52 l-46 -24 -119 66
c-66 37 -128 67 -138 67 -10 0 -29 11 -42 25 -14 15 -34 25 -51 25 -22 0 -25
2 -13 10 8 6 28 7 44 4 21 -5 27 -3 24 7 -3 8 -19 15 -37 17 -24 3 -31 0 -25
-9 5 -9 2 -10 -10 -6 -10 4 -27 7 -37 7 -11 0 -17 5 -14 10 3 6 0 10 -8 10 -7
0 -25 13 -40 28 l-27 28 0 272 0 271 68 40 c37 21 82 53 100 69 18 16 46 32
63 36 16 3 80 35 142 71 61 36 116 65 122 65 5 0 21 -10 35 -21z m695 -59 c3
-5 -1 -10 -10 -10 -9 0 -13 5 -10 10 3 6 8 10 10 10 2 0 7 -4 10 -10z m-661
-101 c27 -16 37 -29 42 -57 4 -20 13 -46 20 -57 8 -11 14 -35 14 -53 0 -31 -2
-33 -17 -21 -15 13 -16 11 -11 -21 4 -23 1 -45 -9 -60 -8 -14 -12 -17 -9 -7 3
11 0 17 -9 17 -8 0 -15 -3 -15 -7 -1 -22 -30 -44 -49 -38 -29 9 -26 25 3 25
13 0 26 7 30 15 3 8 2 14 -2 14 -19 -3 -20 3 -5 20 9 11 20 18 25 15 4 -3 8
-3 8 0 0 3 -16 13 -36 22 -34 16 -35 18 -18 31 17 12 16 14 -6 38 -21 22 -22
28 -10 35 14 9 10 11 -17 10 -5 -1 -10 14 -13 32 -4 29 -9 33 -35 33 -32 0
-31 5 -27 -85 2 -35 6 -42 40 -59 30 -17 33 -20 15 -21 -13 0 -32 9 -43 20
-11 11 -24 20 -30 20 -17 0 -23 50 -11 89 19 65 107 90 175 50z m-207 -181
c-2 -13 -4 -3 -4 22 0 25 2 35 4 23 2 -13 2 -33 0 -45z m-677 -193 c1 -38 -2
-104 -6 -145 l-8 -75 -8 70 c-4 39 -4 135 0 215 6 135 7 140 13 75 4 -38 8
-101 9 -140z m712 123 c-9 -9 -12 -7 -12 12 0 19 3 21 12 12 9 -9 9 -15 0 -24z
m967 -50 c-1 -50 -3 -57 -8 -32 -7 29 -4 94 5 94 2 0 4 -28 3 -62z m-1120 25
c-5 -60 -2 -64 39 -58 30 4 33 3 15 -4 l-23 -10 25 -37 c31 -45 32 -57 3 -48
-32 10 -49 35 -36 51 13 16 -28 18 -68 3 -39 -15 -42 -4 -5 17 28 16 31 23 31
66 0 26 5 47 11 47 5 0 9 -12 8 -27z m115 -58 c36 -27 56 -32 56 -13 0 9 3 9
12 0 10 -10 10 -15 -2 -22 -23 -15 -32 -12 -74 25 -45 40 -40 47 8 10z m236
-27 c0 -5 -4 -8 -10 -8 -5 0 -10 10 -10 23 0 18 2 19 10 7 5 -8 10 -18 10 -22z
m192 -34 c16 -19 38 -85 38 -117 0 -17 -1 -17 -16 -3 -8 9 -19 16 -24 16 -12
0 -40 59 -40 84 0 12 -7 32 -16 45 l-16 23 28 -15 c16 -8 36 -23 46 -33z
m-626 -32 c-8 -16 -20 -50 -27 -77 -10 -39 -14 -44 -22 -29 -10 18 3 69 29
112 21 32 37 27 20 -6z m89 -160 c-3 -3 -11 0 -18 7 -9 10 -8 11 6 5 10 -3 15
-9 12 -12z m415 -72 c0 -5 -4 -10 -10 -10 -5 0 -10 5 -10 10 0 6 5 10 10 10 6
0 10 -4 10 -10z m133 -20 c-7 -28 -13 -25 -13 6 0 14 4 23 9 20 5 -3 7 -15 4
-26z m27 3 c0 -19 -3 -24 -10 -17 -6 6 -8 18 -4 27 9 24 14 21 14 -10z m17
-10 c-3 -10 -5 -4 -5 12 0 17 2 24 5 18 2 -7 2 -21 0 -30z m45 7 c-6 -15 -11
-19 -16 -12 -4 7 -1 18 6 26 17 19 20 14 10 -14z m39 23 c-11 -5 -11 -7 0 -14
12 -7 11 -9 -1 -9 -13 0 -13 -1 0 -10 13 -8 12 -10 -2 -10 -13 0 -18 8 -18 25
0 17 5 25 18 24 12 0 13 -2 3 -6z m-344 -39 c-3 -3 -12 -4 -19 -1 -8 3 -5 6 6
6 11 1 17 -2 13 -5z m50 0 c-3 -3 -12 -4 -19 -1 -8 3 -5 6 6 6 11 1 17 -2 13
-5z m288 -99 c0 -50 -3 -60 -18 -63 -30 -6 -67 7 -67 24 0 12 7 14 35 8 30 -5
34 -4 29 10 -3 9 -12 16 -20 16 -8 0 -14 5 -14 10 0 6 7 10 15 10 8 0 15 7 15
16 0 12 -7 14 -30 9 -16 -4 -30 -2 -30 3 0 17 14 23 50 20 l35 -3 0 -60z m-5
-121 c17 9 30 12 30 7 0 -6 -14 -18 -31 -27 -29 -15 -34 -15 -65 2 -45 24 -44
38 1 17 34 -16 37 -16 65 1z m-693 -110 c-3 -3 -12 -4 -19 -1 -8 3 -5 6 6 6
11 1 17 -2 13 -5z m773 -44 c142 -72 197 -229 125 -358 -51 -94 -134 -146
-230 -146 -198 0 -332 203 -246 373 41 80 103 131 186 152 43 11 122 1 165
-21z m96 -42 l29 -33 -32 29 c-18 17 -33 31 -33 33 0 8 8 1 36 -29z m-951
-108 c13 21 24 9 13 -15 -8 -19 -8 -28 2 -40 8 -9 8 -15 2 -15 -6 0 -14 5 -17
10 -5 7 -11 8 -19 1 -8 -7 -11 0 -11 29 0 29 3 36 11 29 8 -7 14 -6 19 1z m93
-17 c2 -14 -3 -23 -17 -28 -12 -3 -21 -11 -21 -16 0 -5 -4 -9 -10 -9 -5 0 -10
18 -10 41 0 38 1 40 28 37 19 -2 28 -9 30 -25z m941 -77 c1 -57 -5 -40 -12 29
-3 37 -2 51 3 35 4 -14 8 -43 9 -64z m-722 -23 c-2 -16 -4 -5 -4 22 0 28 2 40
4 28 2 -13 2 -35 0 -50z m150 0 c-2 -16 -4 -5 -4 22 0 28 2 40 4 28 2 -13 2
-35 0 -50z m523 -136 c0 -2 -19 -21 -42 -42 l-43 -40 40 43 c36 39 45 47 45
39z m-365 -95 c-3 -3 -11 0 -18 7 -9 10 -8 11 6 5 10 -3 15 -9 12 -12z m212
-18 c-3 -3 -12 -4 -19 -1 -8 3 -5 6 6 6 11 1 17 -2 13 -5z m-789 -11 c-10 -2
-26 -2 -35 0 -10 3 -2 5 17 5 19 0 27 -2 18 -5z m725 0 c-13 -2 -33 -2 -45 0
-13 2 -3 4 22 4 25 0 35 -2 23 -4z m-1100 -70 c-18 -7 -16 -23 3 -23 20 0 15
-32 -6 -37 -13 -4 -13 -3 0 6 13 9 12 12 -4 24 -19 14 -15 38 7 36 9 0 9 -2 0
-6z m58 -25 c-5 -30 -6 -31 -9 -8 -2 14 -9 28 -16 32 -7 5 -3 8 10 8 18 0 20
-5 15 -32z m110 0 c-5 -30 -6 -31 -9 -8 -2 14 -9 28 -16 32 -7 5 -3 8 10 8 18
0 20 -5 15 -32z m44 19 c-17 -13 -17 -14 5 -20 24 -6 23 -31 -1 -33 -9 -1 -10
1 -1 3 17 6 15 23 -2 23 -18 0 -29 16 -21 30 3 6 14 10 23 10 14 0 13 -2 -3
-13z m-102 -4 c-7 -2 -13 -9 -13 -15 0 -6 7 -8 15 -4 8 3 15 0 15 -7 0 -7 -11
-12 -24 -12 -13 0 -23 2 -22 5 2 3 6 13 9 23 4 9 12 17 19 16 10 0 10 -2 1 -6z
m-43 -170 c-1 -9 -68 -83 -75 -83 -12 0 -3 18 26 53 28 34 49 47 49 30z m494
-37 c-11 -36 -24 -43 -40 -22 -19 26 -18 44 4 48 29 7 43 -3 36 -26z m-404 -6
c0 -5 -7 -7 -15 -4 -8 4 -15 2 -15 -4 0 -5 9 -12 21 -15 26 -7 20 -32 -7 -32
-14 0 -20 8 -22 33 -3 27 0 32 17 32 12 0 21 -4 21 -10z m88 -22 c-2 -25 -8
-33 -23 -33 -20 0 -31 25 -21 51 3 8 15 14 26 14 18 0 21 -5 18 -32z m62 -3
c0 -28 -4 -35 -20 -35 -16 0 -20 7 -20 35 0 28 4 35 20 35 16 0 20 -7 20 -35z
m340 -1 c0 -21 -4 -33 -10 -29 -5 3 -10 19 -10 36 0 16 5 29 10 29 6 0 10 -16
10 -36z m47 29 c-17 -4 -17 -5 -1 -17 10 -8 15 -20 11 -30 -7 -17 -37 -23 -37
-6 0 5 7 7 15 4 8 -4 15 -1 15 5 0 6 -7 11 -15 11 -8 0 -15 9 -15 20 0 14 6
20 23 19 18 -1 18 -2 4 -6z m93 -18 c0 -14 1 -28 3 -32 1 -5 -8 -9 -20 -11
-13 -2 -23 1 -23 7 0 6 7 8 15 5 8 -4 15 -1 15 5 0 6 -6 11 -12 12 -10 0 -10
2 0 6 6 2 12 9 12 15 0 6 -7 8 -15 4 -8 -3 -15 -1 -15 4 0 6 9 10 20 10 15 0
20 -7 20 -25z m65 14 c13 -19 -4 -59 -25 -59 -16 0 -20 7 -20 35 0 28 4 35 19
35 11 0 23 -5 26 -11z m314 -26 c-2 -31 -3 -33 -6 -10 -2 15 -9 27 -14 27 -6
0 -7 5 -4 10 13 22 25 8 24 -27z m61 33 c0 -15 -24 -66 -31 -66 -12 0 -11 7 2
32 9 16 8 23 -2 29 -10 6 -8 9 9 9 12 0 22 -2 22 -4z m70 -1 c0 -13 -32 -66
-37 -62 -2 3 0 14 6 25 15 27 14 30 -6 35 -11 3 -7 5 10 6 15 0 27 -1 27 -4z
m30 -32 c0 -43 -5 -41 -13 5 -4 18 -2 32 3 32 6 0 10 -16 10 -37z m-764 -167
c18 -14 18 -15 -8 -21 -15 -4 -32 -4 -37 0 -7 3 -8 0 -5 -9 3 -9 1 -16 -4 -16
-14 0 -6 41 10 52 18 11 21 10 44 -6z m467 -26 c3 -11 1 -20 -4 -20 -5 0 -9 9
-9 20 0 11 2 20 4 20 2 0 6 -9 9 -20z m-973 -5 c7 -9 8 -15 2 -15 -5 0 -12 7
-16 15 -3 8 -4 15 -2 15 2 0 9 -7 16 -15z m1027 0 c0 -8 -4 -15 -9 -15 -4 0
-8 7 -8 15 0 8 4 15 8 15 5 0 9 -7 9 -15z m-511 -7 c4 -7 3 -8 -4 -4 -7 4 -12
2 -12 -3 0 -6 5 -11 10 -11 6 0 10 -5 10 -12 0 -8 -6 -7 -16 4 -9 9 -13 21
-10 27 9 14 13 14 22 -1z m-410 -30 c-2 -34 -27 -50 -42 -27 -5 8 -2 10 8 6
12 -4 15 1 14 19 0 15 -6 22 -13 19 -7 -2 -13 0 -13 5 0 6 11 10 24 10 20 0
23 -4 22 -32z m81 0 c-2 -25 -7 -33 -22 -33 -15 0 -21 8 -23 33 -3 28 -1 32
22 32 23 0 25 -4 23 -32z m33 -3 c0 -19 -2 -35 -4 -35 -2 0 -6 16 -8 35 -2 19
0 35 4 35 4 0 8 -16 8 -35z m262 10 c3 -14 1 -25 -3 -25 -5 0 -9 11 -9 25 0
14 2 25 4 25 2 0 6 -11 8 -25z m125 -7 c-3 -45 -33 -51 -39 -8 -5 34 -2 40 23
40 13 0 17 -8 16 -32z m83 27 c0 -13 -32 -66 -37 -62 -2 3 1 15 7 27 10 18 9
24 -1 31 -10 6 -8 9 9 9 12 0 22 -2 22 -5z m36 -4 c-19 -7 -19 -8 2 -13 25 -7
29 -36 6 -45 -8 -3 -21 0 -27 7 -10 10 -8 12 5 7 10 -3 20 -2 24 4 3 6 -3 13
-15 16 -28 7 -27 33 2 32 20 0 21 -1 3 -8z m77 -4 c-3 -4 1 -14 7 -22 23 -28
-1 -37 -26 -10 -30 33 -30 43 0 41 13 0 22 -5 19 -9z m332 -22 c0 -23 -5 -31
-22 -33 -20 -3 -23 1 -23 33 0 32 3 36 23 33 17 -2 22 -10 22 -33z m85 21 c0
-8 -7 -16 -15 -20 -20 -7 -19 -24 3 -29 10 -3 6 -5 -10 -6 -31 -1 -40 25 -13
35 8 4 15 10 15 15 0 4 -7 6 -15 3 -8 -4 -15 -1 -15 5 0 6 11 11 25 11 15 0
25 -6 25 -14z m50 0 c0 -8 3 -21 6 -30 8 -21 -23 -33 -39 -16 -9 10 -9 12 4 7
12 -4 17 1 17 19 0 17 -5 24 -14 20 -8 -3 -14 -1 -14 4 0 6 9 10 20 10 11 0
20 -6 20 -14z m52 -21 c10 -19 13 -35 8 -35 -6 0 -10 5 -10 11 0 5 -5 7 -12 3
-7 -5 -9 -2 -5 9 3 9 0 18 -9 21 -17 7 -19 26 -1 26 6 0 20 -16 29 -35z m-862
5 c0 -5 -2 -10 -4 -10 -3 0 -8 5 -11 10 -3 6 -1 10 4 10 6 0 11 -4 11 -10z
m580 6 c0 -2 -8 -10 -17 -17 -16 -13 -17 -12 -4 4 13 16 21 21 21 13z m-400
-30 c0 -3 -4 -8 -10 -11 -5 -3 -10 -1 -10 4 0 6 5 11 10 11 6 0 10 -2 10 -4z
m-325 -146 c4 -7 -54 -10 -166 -10 -206 0 -209 -1 -209 -92 0 -45 -3 -58 -15
-58 -12 0 -15 13 -15 57 0 48 4 61 27 85 l27 28 172 0 c105 0 175 -4 179 -10z
m95 0 c0 -5 -2 -10 -4 -10 -3 0 -8 5 -11 10 -3 6 -1 10 4 10 6 0 11 -4 11 -10z
m30 0 c0 -5 -2 -10 -4 -10 -3 0 -8 5 -11 10 -3 6 -1 10 4 10 6 0 11 -4 11 -10z
m897 -12 c19 -18 23 -32 23 -85 0 -35 -4 -63 -10 -63 -5 0 -10 26 -10 57 0 78
-15 93 -97 93 -35 0 -63 4 -63 10 0 6 29 10 67 10 55 0 71 -4 90 -22z m-25
-35 c16 -15 18 -36 18 -241 0 -196 -2 -228 -17 -244 -15 -17 -49 -18 -671 -18
-596 0 -657 2 -674 17 -16 15 -18 36 -18 240 0 136 4 232 10 244 10 18 28 19
672 19 601 0 663 -2 680 -17z m-1475 -365 c-2 -24 -4 -5 -4 42 0 47 2 66 4 43
2 -24 2 -62 0 -85z m103 -55 c0 -78 15 -93 97 -93 35 0 63 -4 63 -10 0 -6 -29
-10 -67 -10 -59 0 -70 3 -95 27 -24 23 -28 34 -28 85 0 45 3 58 15 58 12 0 15
-13 15 -57z m1420 -5 c0 -50 -4 -66 -22 -85 -21 -22 -26 -23 -200 -23 -112 0
-178 4 -178 10 0 6 64 10 172 10 205 0 208 1 208 92 0 32 4 58 10 58 6 0 10
-27 10 -62z m-1543 -70 c-3 -8 -6 -5 -6 6 -1 11 2 17 5 13 3 -3 4 -12 1 -19z
m1033 -28 c0 -5 -2 -10 -4 -10 -3 0 -8 5 -11 10 -3 6 -1 10 4 10 6 0 11 -4 11
-10z m35 0 c3 -5 2 -10 -4 -10 -5 0 -13 5 -16 10 -3 6 -2 10 4 10 5 0 13 -4
16 -10z m30 0 c3 -5 1 -10 -4 -10 -6 0 -11 5 -11 10 0 6 2 10 4 10 3 0 8 -4
11 -10z m-33 -89 c7 11 11 11 15 2 7 -18 209 -18 217 0 5 9 7 9 12 -2 5 -11 8
-11 16 0 8 12 10 12 15 0 5 -11 7 -11 15 0 8 12 10 12 15 0 5 -11 7 -11 14 0
8 12 11 11 19 -1 6 -10 10 -11 10 -2 0 6 5 12 10 12 6 0 10 -9 10 -20 0 -20
-7 -20 -275 -20 l-275 0 0 -109 0 -110 298 4 c350 5 312 3 310 13 -1 4 1 23 5
44 4 20 4 54 -1 76 -6 23 -6 46 0 55 6 11 3 19 -9 26 -14 8 -15 10 -3 11 23 0
55 -41 40 -50 -8 -5 -8 -9 -2 -11 16 -6 21 -109 5 -109 -7 0 -13 -4 -13 -10 0
-5 6 -10 13 -10 8 0 8 -3 1 -8 -6 -4 -13 -15 -17 -24 -3 -10 -15 -18 -26 -18
-11 0 -25 -8 -30 -17 -10 -17 -10 -17 -11 0 0 9 -5 17 -11 17 -5 0 -8 -4 -4
-9 3 -5 1 -12 -5 -16 -5 -3 -10 0 -10 7 0 10 -3 9 -11 -2 -9 -12 -12 -13 -16
-1 -5 11 -7 11 -15 0 -8 -12 -10 -12 -15 0 -5 11 -7 11 -14 0 -8 -12 -11 -11
-19 1 -6 10 -10 11 -10 3 0 -7 -4 -13 -10 -13 -5 0 -10 6 -10 13 0 14 -203 11
-208 -4 -6 -16 -22 -10 -23 9 0 15 -1 14 -8 -3 -8 -19 -8 -19 -19 0 -11 20
-11 20 -12 0 -1 -20 -1 -20 -15 -1 -14 19 -15 19 -15 1 0 -18 -1 -18 -15 1
-14 19 -14 19 -15 -1 -1 -20 -1 -20 -15 -1 -15 20 -15 20 -15 0 -1 -18 -1 -18
-14 -1 -7 9 -17 17 -21 17 -16 0 -53 49 -42 54 9 5 9 8 0 12 -7 3 -13 10 -13
15 0 6 5 7 10 4 6 -3 10 -1 10 4 0 6 -7 11 -16 11 -9 0 -12 5 -8 12 12 19 12
48 0 48 -6 0 -3 7 7 14 13 10 15 15 5 18 -15 5 38 58 58 58 8 0 14 6 14 13 0
8 4 7 11 -3 8 -12 12 -12 16 -2 4 10 9 9 20 -5 13 -17 14 -17 9 0 -3 9 -1 17
4 17 6 0 10 -7 10 -15 0 -8 5 -15 11 -15 5 0 8 4 4 9 -3 5 -1 12 5 16 5 3 10
0 10 -7 0 -7 6 -4 12 7 12 19 12 19 16 1 3 -15 6 -16 14 -5z m-812 5 c0 -3 -4
-8 -10 -11 -5 -3 -10 -1 -10 4 0 6 5 11 10 11 6 0 10 -2 10 -4z m1197 -18 c-3
-8 -6 -5 -6 6 -1 11 2 17 5 13 3 -3 4 -12 1 -19z m-689 -46 c2 -18 7 -30 12
-27 5 3 11 1 15 -5 3 -5 -1 -10 -9 -10 -9 0 -16 -5 -16 -11 0 -5 4 -8 9 -4 5
3 12 1 16 -5 3 -5 -1 -10 -9 -10 -9 0 -16 -5 -16 -10 0 -6 6 -9 13 -8 8 2 12
-10 12 -34 1 -37 -14 -55 -16 -20 -1 9 -4 1 -8 -18 -4 -26 -12 -36 -28 -38
-13 -2 -23 -10 -23 -18 0 -8 -5 -12 -10 -9 -6 4 -8 11 -5 16 4 5 -68 9 -180 9
-112 0 -184 -4 -180 -9 3 -5 1 -12 -5 -16 -5 -3 -10 1 -10 9 0 10 -9 16 -25
16 -18 0 -23 -4 -19 -15 4 -8 1 -15 -5 -15 -6 0 -11 7 -11 15 0 11 -13 15 -54
15 -73 0 -86 6 -86 41 0 21 -5 29 -17 30 -15 0 -15 2 2 9 17 7 17 9 3 9 -23 1
-24 21 -1 21 15 0 14 2 -3 16 -16 13 -16 15 -1 10 15 -5 17 1 17 43 0 26 3 51
7 54 4 4 146 6 317 5 l311 -3 3 -33z m317 -77 l0 -50 -75 0 -75 0 -3 39 c-5
64 -1 67 80 64 l73 -3 0 -50z m203 -4 c-3 -31 -6 -36 -28 -36 -21 0 -26 5 -28
34 -4 37 9 51 40 43 15 -4 18 -12 16 -41z m-1088 -141 c0 -5 -4 -10 -10 -10
-5 0 -10 5 -10 10 0 6 5 10 10 10 6 0 10 -4 10 -10z m60 0 c0 -5 -4 -10 -10
-10 -5 0 -10 5 -10 10 0 6 5 10 10 10 6 0 10 -4 10 -10z m370 0 c0 -5 -2 -10
-4 -10 -3 0 -8 5 -11 10 -3 6 -1 10 4 10 6 0 11 -4 11 -10z m30 0 c0 -5 -2
-10 -4 -10 -3 0 -8 5 -11 10 -3 6 -1 10 4 10 6 0 11 -4 11 -10z m30 0 c0 -5
-2 -10 -4 -10 -3 0 -8 5 -11 10 -3 6 -1 10 4 10 6 0 11 -4 11 -10z m-533 -61
c36 -1 35 -2 -15 -11 -63 -12 -90 -5 -72 17 9 11 17 12 30 5 10 -6 36 -11 57
-11z m1472 -104 c-5 -5 -9 8 -8 35 l1 45 8 -35 c5 -20 5 -39 -1 -45z m-445 19
c46 -18 -20 -24 -249 -24 -247 0 -285 3 -285 21 0 10 509 13 534 3z"/>
<path d="M417 3360 l-47 -30 1 -70 c1 -40 6 -70 11 -70 6 0 8 9 5 20 -3 11 -1
23 4 26 5 3 9 18 9 33 0 28 26 61 48 61 7 0 12 5 12 11 0 5 3 8 8 5 4 -2 18 2
32 10 23 12 23 13 5 14 -12 0 -26 5 -31 10 -7 7 -26 0 -57 -20z"/>
<path d="M1266 3352 c-3 -5 6 -19 19 -30 23 -20 25 -29 25 -107 0 -71 2 -83
15 -79 12 5 15 26 15 99 0 87 -1 94 -25 109 -27 18 -41 20 -49 8z"/>
<path d="M370 3173 c0 -5 7 -18 15 -29 15 -18 15 -18 13 5 -3 23 -28 44 -28
24z"/>
<path d="M390 3023 c0 -51 -4 -83 -10 -83 -7 0 -10 -28 -8 -76 l3 -75 48 -21
c50 -22 75 -18 41 6 -59 43 -57 34 -54 269 1 15 -4 35 -9 45 -8 12 -10 -5 -11
-65z"/>
<path d="M965 2980 c-3 -5 -1 -10 4 -10 6 0 11 5 11 10 0 6 -2 10 -4 10 -3 0
-8 -4 -11 -10z"/>
<path d="M566 2691 c-6 -10 46 -31 73 -31 12 1 10 5 -8 20 -24 21 -56 26 -65
11z"/>
<path d="M655 2651 c-7 -12 6 -21 109 -80 50 -29 97 -49 105 -46 46 18 181
109 181 122 0 14 -2 14 -22 -1 -13 -9 -30 -19 -38 -22 -8 -3 -43 -20 -76 -37
l-62 -31 -58 36 c-73 44 -132 69 -139 59z"/>
<path d="M1146 2335 c-65 -33 -73 -41 -107 -100 -92 -160 45 -354 234 -332 62
8 119 44 161 105 64 91 38 229 -57 298 -81 60 -153 69 -231 29z m61 -11 c-3
-3 -12 -4 -19 -1 -8 3 -5 6 6 6 11 1 17 -2 13 -5z m86 -1 c-7 -2 -21 -2 -30 0
-10 3 -4 5 12 5 17 0 24 -2 18 -5z m-148 -21 c-6 -4 -24 -18 -40 -32 -29 -24
-29 -23 2 8 18 17 36 32 40 32 4 0 3 -3 -2 -8z m267 -67 c11 -21 10 -20 -37
35 l-30 35 28 -25 c16 -14 33 -34 39 -45z m-294 -44 c-6 -2 -4 -7 3 -12 11 -7
10 -9 -3 -9 -13 0 -18 8 -18 25 0 22 2 24 14 13 8 -8 10 -15 4 -17z m33 -8
c-9 -16 -10 -14 -11 12 0 21 3 26 11 18 8 -8 8 -16 0 -30z m86 0 c-3 -10 -5
-4 -5 12 0 17 2 24 5 18 2 -7 2 -21 0 -30z m49 28 c8 7 14 7 19 -1 4 -6 1 -9
-7 -8 -7 2 -12 -4 -12 -13 1 -10 -5 -16 -15 -14 -9 1 -17 12 -17 24 -1 16 2
19 9 12 7 -7 14 -7 23 0z m41 -28 c-3 -10 -5 -4 -5 12 0 17 2 24 5 18 2 -7 2
-21 0 -30z m53 -3 c0 -3 -9 -6 -20 -6 -13 0 -19 5 -15 14 3 7 5 19 5 25 1 12
30 -21 30 -33z m-200 9 c0 -11 -4 -18 -10 -14 -5 3 -7 12 -3 20 7 21 13 19 13
-6z m25 1 c-3 -4 1 -11 7 -13 8 -3 6 -6 -4 -6 -12 -1 -18 6 -18 20 0 11 5 17
10 14 6 -4 8 -10 5 -15z m235 -29 c0 -32 -6 -24 -14 19 -4 25 -3 31 4 20 5 -8
10 -26 10 -39z m-393 7 c-3 -8 -6 -5 -6 6 -1 11 2 17 5 13 3 -3 4 -12 1 -19z
m246 -49 c5 -9 7 -28 3 -43 -5 -22 -11 -27 -34 -24 -23 2 -28 8 -30 37 -5 49
36 69 61 30z m-163 -29 c0 -22 -4 -40 -9 -40 -5 0 -11 18 -13 40 -2 28 0 40 9
40 8 0 13 -14 13 -40z m85 0 c0 -32 -2 -35 -30 -35 -28 0 -30 3 -33 38 -3 38
-3 38 30 35 30 -3 33 -6 33 -38z m120 21 c-3 -6 -11 -11 -16 -11 -5 0 -4 6 3
14 14 16 24 13 13 -3z m25 0 c-14 -26 -13 -31 5 -25 10 4 15 0 15 -15 0 -25
-18 -28 -27 -5 -6 15 -8 15 -21 -2 -16 -20 -12 -7 10 38 7 16 17 28 21 28 4 0
3 -9 -3 -19z m77 -33 c-3 -7 -5 -2 -5 12 0 14 2 19 5 13 2 -7 2 -19 0 -25z
m-27 -61 c0 -2 -15 -16 -32 -33 l-33 -29 29 33 c28 30 36 37 36 29z"/>
<path d="M1250 2089 c0 -38 24 -35 28 4 2 19 -1 27 -12 27 -11 0 -16 -10 -16
-31z"/>
<path d="M1170 2089 c0 -38 24 -35 28 4 2 19 -1 27 -12 27 -11 0 -16 -10 -16
-31z"/>
<path d="M550 2200 c0 -5 5 -10 10 -10 6 0 10 5 10 10 0 6 -4 10 -10 10 -5 0
-10 -4 -10 -10z"/>
<path d="M295 1510 c3 -5 8 -10 11 -10 2 0 4 5 4 10 0 6 -5 10 -11 10 -5 0 -7
-4 -4 -10z"/>
<path d="M380 1524 c0 -14 4 -23 10 -19 6 3 10 15 10 26 0 10 -4 19 -10 19 -5
0 -10 -12 -10 -26z"/>
<path d="M440 1525 c0 -14 5 -25 10 -25 6 0 10 11 10 25 0 14 -4 25 -10 25 -5
0 -10 -11 -10 -25z"/>
<path d="M980 1525 c0 -14 5 -25 10 -25 6 0 10 11 10 25 0 14 -4 25 -10 25 -5
0 -10 -11 -10 -25z"/>
<path d="M375 1300 c3 -5 8 -10 11 -10 2 0 4 5 4 10 0 6 -5 10 -11 10 -5 0 -7
-4 -4 -10z"/>
<path d="M375 1270 c3 -5 8 -10 11 -10 2 0 4 5 4 10 0 6 -5 10 -11 10 -5 0 -7
-4 -4 -10z"/>
<path d="M800 1275 c0 -8 5 -15 10 -15 6 0 10 7 10 15 0 8 -4 15 -10 15 -5 0
-10 -7 -10 -15z"/>
<path d="M990 1306 c0 -2 8 -10 18 -17 15 -13 16 -12 3 4 -13 16 -21 21 -21
13z"/>
<path d="M1320 1291 c0 -11 5 -23 10 -26 6 -4 10 5 10 19 0 14 -4 26 -10 26
-5 0 -10 -9 -10 -19z"/>
<path d="M195 1070 c-12 -19 -10 -457 3 -472 10 -12 111 -14 663 -12 359 2
655 6 659 11 13 13 18 461 6 473 -13 13 -1322 14 -1331 0z m1095 -62 c0 -4 -9
-8 -20 -8 -11 0 -20 4 -20 9 0 6 9 9 20 8 11 -1 20 -5 20 -9z m-892 -50 c3
-24 0 -28 -22 -28 -16 0 -26 -6 -26 -15 0 -8 -4 -15 -10 -15 -5 0 -10 21 -10
46 0 45 0 45 33 42 27 -2 33 -8 35 -30z m87 -13 c0 -37 -2 -40 -29 -43 -31 -4
-46 10 -46 44 0 28 20 45 50 42 22 -3 25 -8 25 -43z m57 18 l17 -28 1 28 c0
15 5 27 10 27 6 0 10 -20 10 -45 0 -52 -10 -56 -38 -18 l-20 28 5 -28 c3 -16
1 -27 -6 -27 -6 0 -11 19 -11 45 0 52 8 56 32 18z m118 17 c0 -5 -4 -10 -10
-10 -5 0 -10 -16 -10 -35 0 -19 -4 -35 -10 -35 -5 0 -10 14 -10 31 0 19 -7 37
-17 45 -16 12 -14 13 20 14 20 0 37 -4 37 -10z m85 -35 c0 -39 -1 -40 -35 -40
-31 0 -35 3 -38 28 -5 46 4 59 40 55 31 -3 33 -5 33 -43z m75 35 c0 -5 -9 -10
-20 -10 -11 0 -20 -4 -20 -10 0 -5 12 -10 26 -10 21 0 25 -4 22 -22 -2 -18
-11 -24 -35 -26 -19 -2 -33 1 -33 7 0 6 12 11 27 11 23 0 25 13 2 16 -5 1 -13
2 -19 3 -11 1 -14 34 -3 44 10 11 53 8 53 -3z m124 -16 c11 -44 -1 -64 -40
-64 -34 0 -34 0 -34 45 0 44 0 45 34 45 28 0 35 -4 40 -26z m81 17 c-6 -5 -19
-11 -30 -14 -18 -4 -18 -5 5 -15 24 -10 24 -11 3 -11 -31 -1 -29 -21 2 -21 14
0 25 -4 25 -10 0 -5 -16 -10 -35 -10 -35 0 -35 0 -35 45 l0 45 37 0 c22 0 33
-4 28 -9z m108 -36 c17 -49 16 -51 -13 -33 -15 10 -22 10 -32 0 -23 -23 -27
-12 -11 33 8 25 21 45 28 45 7 0 20 -20 28 -45z m87 35 c0 -5 -9 -10 -19 -10
-17 0 -31 -18 -31 -41 0 -5 11 -9 25 -9 14 0 25 -4 25 -10 0 -5 -5 -10 -11
-10 -5 0 -8 -4 -4 -9 3 -5 1 -12 -3 -15 -12 -7 -52 49 -52 72 0 10 5 23 12 30
15 15 58 16 58 2z m77 -35 c7 -21 10 -41 7 -44 -4 -3 -9 0 -11 7 -5 14 -43 16
-43 2 0 -5 -5 -10 -10 -10 -11 0 -4 42 12 73 14 26 29 16 45 -28z m99 21 c3
-14 3 -34 -1 -46 -5 -17 -13 -20 -38 -18 -27 2 -33 8 -35 31 -5 43 4 57 37 57
24 0 32 -5 37 -24z m-801 -206 c0 -63 -3 -75 -17 -78 -16 -3 -18 5 -18 57 0
48 -3 61 -15 61 -18 0 -20 26 -2 34 6 2 21 4 32 3 18 -2 20 -9 20 -77z m143
68 c7 -7 12 -38 12 -70 0 -66 -15 -81 -77 -76 -50 4 -55 26 -7 30 49 4 59 28
12 28 -19 0 -39 5 -46 12 -15 15 -15 61 0 76 16 16 90 16 106 0z m139 0 c13
-17 14 -120 1 -135 -6 -7 -32 -13 -60 -13 -42 0 -49 3 -46 18 2 12 14 18 41
20 43 4 54 32 12 32 -16 0 -25 6 -25 15 0 9 9 15 25 15 16 0 25 6 25 15 0 11
-11 15 -40 15 -29 0 -40 4 -40 15 0 19 93 21 107 3z m154 -9 c14 -28 6 -118
-12 -130 -8 -5 -33 -9 -56 -9 -32 0 -43 4 -43 15 0 9 9 15 24 15 31 0 56 10
56 21 0 5 -13 9 -29 9 -48 0 -61 9 -61 44 0 43 16 56 67 56 33 0 45 -5 54 -21z
m149 2 c13 -25 13 -82 0 -115 -8 -22 -16 -26 -53 -26 -24 0 -48 5 -55 12 -13
13 -17 130 -5 141 3 4 28 7 54 7 38 0 51 -4 59 -19z"/>
<path d="M350 955 c0 -8 7 -15 15 -15 8 0 15 7 15 15 0 8 -7 15 -15 15 -8 0
-15 -7 -15 -15z"/>
<path d="M437 974 c-4 -4 -7 -18 -7 -31 0 -17 6 -23 21 -23 16 0 20 5 17 27
-3 26 -18 39 -31 27z"/>
<path d="M690 945 c0 -18 5 -25 20 -25 15 0 20 7 20 25 0 18 -5 25 -20 25 -15
0 -20 -7 -20 -25z"/>
<path d="M892 948 c5 -32 28 -35 28 -4 0 17 -5 26 -16 26 -10 0 -14 -7 -12
-22z"/>
<path d="M1260 939 c0 -5 5 -7 10 -4 6 3 10 8 10 11 0 2 -4 4 -10 4 -5 0 -10
-5 -10 -11z"/>
<path d="M1340 945 c0 -28 24 -34 34 -9 8 20 -1 34 -20 34 -8 0 -14 -10 -14
-25z"/>
<path d="M660 790 c0 -15 7 -20 25 -20 18 0 25 5 25 20 0 15 -7 20 -25 20 -18
0 -25 -5 -25 -20z"/>
<path d="M950 790 c0 -15 7 -20 25 -20 18 0 25 5 25 20 0 15 -7 20 -25 20 -18
0 -25 -5 -25 -20z"/>
<path d="M1098 776 c-5 -46 0 -56 28 -56 22 0 24 4 24 45 0 41 -2 45 -24 45
-20 0 -25 -6 -28 -34z"/>
<path d="M174 417 c-2 -7 -3 -56 -2 -108 l3 -94 305 0 305 0 0 105 0 105 -303
3 c-245 2 -303 0 -308 -11z m182 -101 c2 -14 -1 -17 -16 -13 -11 3 -20 1 -20
-5 0 -5 -4 -6 -10 -3 -5 3 -10 1 -10 -5 0 -6 -4 -8 -10 -5 -5 3 -10 1 -10 -5
0 -6 -4 -9 -9 -6 -5 4 -11 0 -14 -6 -7 -18 -34 10 -41 42 -6 23 -1 28 51 51
l58 25 13 -25 c8 -14 15 -34 18 -45z m94 39 c0 -9 -6 -12 -17 -8 -12 4 -11 0
5 -11 38 -29 19 -68 -25 -52 -15 6 -15 8 -3 17 11 8 12 12 3 16 -14 5 -18 35
-6 46 12 13 43 7 43 -8z m290 -11 c0 -7 -9 -19 -21 -28 l-21 -14 23 -5 c19 -3
17 -5 -8 -6 -37 -1 -43 13 -13 31 23 15 27 33 5 24 -8 -3 -15 -1 -15 3 0 12
21 19 38 13 6 -2 12 -10 12 -18z m-240 -19 c0 -19 -4 -35 -10 -35 -5 0 -10 9
-10 19 0 11 -3 26 -6 35 -4 11 -1 16 10 16 12 0 16 -10 16 -35z m100 26 c0 -5
-10 -7 -22 -3 -14 3 -19 2 -14 -6 4 -7 14 -12 22 -12 21 0 17 -38 -6 -45 -29
-9 -40 2 -40 41 0 31 2 34 30 34 17 0 30 -4 30 -9z m70 -26 c0 -32 -2 -35 -30
-35 -26 0 -30 4 -30 28 0 35 6 42 37 42 20 0 23 -5 23 -35z"/>
<path d="M265 340 c-10 -16 16 -43 28 -31 11 11 2 41 -12 41 -5 0 -13 -5 -16
-10z"/>
<path d="M560 310 c0 -5 5 -10 10 -10 6 0 10 5 10 10 0 6 -4 10 -10 10 -5 0
-10 -4 -10 -10z"/>
<path d="M630 325 c0 -16 6 -25 15 -25 9 0 15 9 15 25 0 16 -6 25 -15 25 -9 0
-15 -9 -15 -25z"/>
<path d="M980 330 c0 -35 23 -49 51 -31 12 7 19 7 19 1 0 -13 37 -13 45 1 4 6
0 9 -11 7 -11 -2 -20 4 -22 15 -3 15 0 18 18 12 16 -5 21 -3 18 6 -5 17 -48
25 -48 10 0 -6 -7 -8 -15 -5 -11 5 -15 -1 -15 -20 0 -14 -4 -26 -10 -26 -5 0
-10 11 -10 24 0 14 -4 28 -10 31 -6 4 -10 -7 -10 -25z"/>
<path d="M1280 325 c0 -14 5 -25 10 -25 6 0 10 11 10 25 0 14 -4 25 -10 25 -5
0 -10 -11 -10 -25z"/>
</g>
</svg>
