<svg xmlns="http://www.w3.org/2000/svg" xmlns:xlink="http://www.w3.org/1999/xlink" width="2000" zoomAndPan="magnify" viewBox="0 0 1500 1499.999933" height="2000" preserveAspectRatio="xMidYMid meet" version="1.0"><defs><g/><clipPath id="6d73e189f0"><path d="M 965 139 L 1498 139 L 1498 705 L 965 705 Z M 965 139 " clip-rule="nonzero"/></clipPath><clipPath id="9583e2300f"><rect x="0" width="1498" y="0" height="842"/></clipPath></defs><g transform="matrix(1, 0, 0, 1, 2, 329)"><g clip-path="url(#9583e2300f)"><g fill="#000000" fill-opacity="1"><g transform="translate(5.769125, 676.98879)"><g><path d="M 338.222656 -504.691406 C 346.304688 -517.625 357.851562 -526.464844 372.863281 -531.203125 C 384.265625 -534.804688 397.925781 -536.601562 413.855469 -536.601562 C 429.601562 -536.601562 442.636719 -535.085938 452.953125 -532.050781 C 464.042969 -528.789062 472.996094 -524.507812 479.8125 -519.207031 C 488.535156 -512.421875 494.617188 -503.011719 498.054688 -490.976562 L 472.578125 -483.699219 L 497.566406 -492.515625 C 501.351562 -481.789062 503.246094 -466.800781 503.246094 -447.558594 L 503.246094 -237.679688 C 503.246094 -170.578125 482.453125 -109.636719 440.863281 -54.863281 C 419.710938 -27.894531 392.769531 -6.222656 360.027344 10.148438 C 327.109375 26.605469 290.84375 34.835938 251.230469 34.835938 C 211.527344 34.835938 175.304688 26.453125 142.554688 9.683594 C 109.964844 -7 83.414062 -29.023438 62.894531 -56.378906 C 21.832031 -110.113281 1.304688 -171.007812 1.304688 -239.070312 L 1.304688 -448.253906 C 1.304688 -460.523438 1.726562 -469.886719 2.566406 -476.355469 C 3.679688 -484.871094 6.84375 -494.023438 12.066406 -503.8125 C 19.164062 -517.121094 30.550781 -526.253906 46.230469 -531.203125 C 57.628906 -534.804688 72.101562 -536.601562 89.652344 -536.601562 C 107.199219 -536.601562 121.675781 -534.804688 133.074219 -531.203125 C 149.28125 -526.085938 160.648438 -516.535156 167.171875 -502.546875 L 143.164062 -491.34375 L 166.65625 -503.597656 C 174.21875 -489.105469 178 -470.425781 178 -447.558594 L 178 -239.070312 C 178 -215.3125 183.871094 -192.667969 195.613281 -171.140625 C 200.210938 -162.558594 207.238281 -155.585938 216.6875 -150.230469 C 226.535156 -144.652344 238.628906 -141.859375 252.96875 -141.859375 C 265.746094 -141.859375 276.589844 -144.070312 285.511719 -148.488281 C 293.902344 -152.644531 300.957031 -159.011719 306.675781 -167.589844 C 320.386719 -188.160156 327.242188 -212.21875 327.242188 -239.765625 L 327.242188 -452.425781 C 327.242188 -475.558594 330.902344 -492.980469 338.222656 -504.691406 Z M 383.15625 -476.605469 C 382.636719 -475.769531 382.097656 -473.832031 381.546875 -470.792969 C 380.671875 -465.988281 380.234375 -459.867188 380.234375 -452.425781 L 380.234375 -239.765625 C 380.234375 -201.519531 370.414062 -167.664062 350.765625 -138.195312 C 339.804688 -121.753906 325.894531 -109.359375 309.035156 -101.003906 C 292.703125 -92.914062 274.015625 -88.871094 252.96875 -88.871094 C 229.316406 -88.871094 208.515625 -93.957031 190.5625 -104.128906 C 172.214844 -114.523438 158.390625 -128.402344 149.09375 -145.765625 C 133.035156 -175.203125 125.007812 -206.304688 125.007812 -239.070312 L 125.007812 -447.558594 C 125.007812 -461.761719 123.230469 -472.269531 119.671875 -479.085938 L 119.402344 -479.605469 L 119.152344 -480.140625 C 119.261719 -479.910156 119.398438 -479.726562 119.566406 -479.59375 C 119.152344 -479.925781 118.335938 -480.289062 117.117188 -480.671875 C 110.910156 -482.632812 101.753906 -483.613281 89.652344 -483.613281 C 77.546875 -483.613281 68.394531 -482.632812 62.1875 -480.671875 C 60.257812 -480.0625 59.136719 -479.464844 58.820312 -478.875 C 56.628906 -474.761719 55.394531 -471.636719 55.113281 -469.5 C 54.566406 -465.308594 54.292969 -458.226562 54.292969 -448.253906 L 54.292969 -239.070312 C 54.292969 -182.960938 71.292969 -132.664062 105.289062 -88.175781 C 120.910156 -67.347656 141.382812 -50.449219 166.707031 -37.484375 C 191.871094 -24.597656 220.046875 -18.15625 251.230469 -18.15625 C 282.503906 -18.15625 310.871094 -24.519531 336.332031 -37.25 C 361.96875 -50.070312 382.746094 -66.621094 398.660156 -86.910156 C 433.054688 -132.210938 450.253906 -182.46875 450.253906 -237.679688 L 450.253906 -447.558594 C 450.253906 -460.75 449.367188 -469.855469 447.59375 -474.878906 L 447.324219 -475.644531 L 447.101562 -476.417969 C 446.851562 -477.304688 446.617188 -477.917969 446.402344 -478.265625 C 446.566406 -478 446.859375 -477.703125 447.277344 -477.378906 C 445.753906 -478.5625 442.660156 -479.84375 438 -481.214844 C 432.5625 -482.8125 424.515625 -483.613281 413.855469 -483.613281 C 403.371094 -483.613281 395.027344 -482.632812 388.820312 -480.671875 C 386.226562 -479.851562 384.339844 -478.496094 383.15625 -476.605469 Z M 383.15625 -476.605469 "/></g></g></g><g fill="#000000" fill-opacity="1"><g transform="translate(510.316831, 676.98879)"><g><path d="M 330.582031 -154.914062 L 344.097656 -164.675781 L 345.171875 -165.304688 C 365.070312 -177.011719 380.667969 -182.863281 391.960938 -182.863281 C 415.96875 -182.863281 438.917969 -165.835938 460.8125 -131.777344 C 473.8125 -111.101562 480.3125 -93.351562 480.3125 -78.53125 C 480.3125 -61.671875 474.710938 -47.433594 463.507812 -35.816406 C 455.679688 -27.699219 446.628906 -20.503906 436.359375 -14.226562 L 412.339844 0.394531 C 402.839844 6.152344 385.253906 13.058594 359.585938 21.109375 C 333.375 29.335938 307.914062 33.445312 283.199219 33.445312 C 258.953125 33.445312 234.511719 30.269531 209.871094 23.917969 C 185.09375 17.535156 159.742188 6.914062 133.816406 -7.933594 C 107.769531 -22.855469 84.375 -41.066406 63.632812 -62.566406 C 42.226562 -84.757812 24.742188 -112.871094 11.175781 -146.90625 C -2.355469 -180.867188 -9.121094 -217.609375 -9.121094 -257.140625 C -9.121094 -296.753906 -2.441406 -332.878906 10.921875 -365.515625 C 24.273438 -398.121094 41.53125 -425.265625 62.695312 -446.953125 C 83.347656 -468.117188 106.910156 -485.824219 133.382812 -500.078125 C 182.617188 -527.207031 232.441406 -540.773438 282.851562 -540.773438 C 307.210938 -540.773438 331.867188 -537.042969 356.8125 -529.585938 C 381.40625 -522.234375 400.449219 -514.511719 413.933594 -506.417969 L 430.332031 -496.855469 C 439.449219 -491.289062 446.550781 -486.722656 451.636719 -483.164062 L 452.382812 -482.644531 L 453.089844 -482.070312 C 471.699219 -467.039062 481.007812 -449.164062 481.007812 -428.449219 C 481.007812 -410.445312 474.460938 -392.410156 461.375 -374.339844 C 438.03125 -342.015625 414.664062 -325.855469 391.269531 -325.855469 C 377.578125 -325.855469 360.867188 -332.433594 341.128906 -345.59375 L 340.105469 -346.273438 L 339.152344 -347.046875 C 324.554688 -358.863281 304.167969 -364.773438 277.988281 -364.773438 C 253.53125 -364.773438 229.015625 -355.992188 204.433594 -338.433594 C 194.15625 -330.894531 185.339844 -319.769531 177.980469 -305.058594 C 170.582031 -290.253906 166.878906 -273.238281 166.878906 -254.011719 C 166.878906 -234.785156 170.582031 -217.769531 177.980469 -202.964844 C 185.363281 -188.207031 194.539062 -176.753906 205.515625 -168.613281 C 228.957031 -151.703125 253.113281 -143.25 277.988281 -143.25 C 289.832031 -143.25 300.917969 -144.753906 311.242188 -147.753906 C 321.378906 -150.703125 328.097656 -153.277344 331.398438 -155.480469 L 346.09375 -133.433594 Z M 361.609375 -111.953125 L 361.207031 -111.664062 L 360.792969 -111.386719 C 352.972656 -106.175781 341.390625 -101.339844 326.042969 -96.875 C 310.886719 -92.464844 294.867188 -90.257812 277.988281 -90.257812 C 241.703125 -90.257812 207.019531 -102.191406 173.9375 -126.054688 C 156.1875 -139.222656 141.738281 -156.960938 130.585938 -179.265625 C 119.453125 -201.53125 113.886719 -226.445312 113.886719 -254.011719 C 113.886719 -281.578125 119.453125 -306.492188 130.585938 -328.753906 C 141.761719 -351.105469 156.109375 -368.707031 173.632812 -381.554688 C 207.425781 -405.695312 242.210938 -417.761719 277.988281 -417.761719 C 316.671875 -417.761719 348.175781 -407.921875 372.496094 -388.234375 L 355.824219 -367.640625 L 370.523438 -389.683594 C 376.835938 -385.476562 382.210938 -382.414062 386.648438 -380.5 C 388.304688 -379.785156 389.707031 -379.285156 390.855469 -378.992188 C 391.171875 -378.914062 391.421875 -378.859375 391.609375 -378.835938 C 391.554688 -378.839844 391.441406 -378.84375 391.269531 -378.84375 L 391.273438 -378.859375 C 391.5625 -378.921875 391.921875 -379.042969 392.355469 -379.21875 C 393.96875 -379.878906 395.855469 -381.042969 398.019531 -382.710938 C 404.097656 -387.398438 410.910156 -394.96875 418.457031 -405.417969 C 424.828125 -414.21875 428.015625 -421.894531 428.015625 -428.449219 C 428.015625 -432.289062 425.273438 -436.421875 419.792969 -440.847656 L 436.441406 -461.460938 L 421.246094 -439.753906 C 417.0625 -442.683594 411.191406 -446.457031 403.632812 -451.082031 L 386.671875 -460.980469 C 376.992188 -466.785156 361.976562 -472.730469 341.632812 -478.816406 C 321.636719 -484.792969 302.042969 -487.78125 282.851562 -487.78125 C 241.527344 -487.78125 200.078125 -476.328125 158.503906 -453.421875 C 136.792969 -441.730469 117.496094 -427.238281 100.621094 -409.941406 C 84.257812 -393.175781 70.707031 -371.675781 59.964844 -345.4375 C 49.234375 -319.234375 43.871094 -289.800781 43.871094 -257.140625 C 43.871094 -224.390625 49.382812 -194.183594 60.40625 -166.523438 C 71.398438 -138.941406 85.183594 -116.550781 101.769531 -99.359375 C 119.019531 -81.480469 138.480469 -66.332031 160.15625 -53.917969 C 181.949219 -41.433594 202.929688 -32.59375 223.097656 -27.394531 C 243.398438 -22.164062 263.433594 -19.546875 283.199219 -19.546875 C 302.5 -19.546875 322.675781 -22.847656 343.722656 -29.449219 C 365.3125 -36.222656 379 -41.363281 384.789062 -44.871094 L 408.726562 -59.441406 C 415.132812 -63.355469 420.675781 -67.742188 425.359375 -72.597656 C 426.667969 -73.953125 427.320312 -75.929688 427.320312 -78.53125 C 427.320312 -80.050781 426.65625 -82.496094 425.332031 -85.871094 C 423.390625 -90.816406 420.359375 -96.566406 416.238281 -103.121094 C 409.359375 -113.824219 403.074219 -121.554688 397.382812 -126.308594 C 395.460938 -127.917969 393.796875 -129.023438 392.402344 -129.632812 C 392.089844 -129.765625 391.851562 -129.851562 391.675781 -129.890625 C 391.730469 -129.878906 391.828125 -129.871094 391.960938 -129.871094 C 392.484375 -129.871094 392.921875 -129.898438 393.28125 -129.953125 C 393.261719 -129.949219 393.160156 -129.925781 392.972656 -129.875 C 391.949219 -129.605469 390.605469 -129.125 388.949219 -128.4375 C 384.507812 -126.585938 378.871094 -123.648438 372.039062 -119.632812 L 358.605469 -142.46875 L 374.117188 -120.988281 Z M 361.609375 -111.953125 "/></g></g></g><g clip-path="url(#6d73e189f0)"><g fill="#000000" fill-opacity="1"><g transform="translate(982.206791, 676.98879)"><g><path d="M 61.15625 -536.601562 L 447.558594 -536.601562 C 466.554688 -536.601562 481.394531 -533.933594 492.074219 -528.59375 C 505.742188 -521.757812 514.855469 -511.050781 519.414062 -496.464844 C 522.535156 -486.480469 524.09375 -474.117188 524.09375 -459.375 C 524.09375 -444.550781 522.507812 -432.226562 519.339844 -422.398438 C 514.746094 -408.160156 506.351562 -397.992188 494.15625 -391.894531 C 482.089844 -385.859375 466.324219 -382.839844 446.867188 -382.839844 L 314.125 -382.839844 L 314.125 -409.335938 L 340.621094 -409.335938 L 340.621094 -59.765625 C 340.621094 -47.914062 340.195312 -38.84375 339.335938 -32.558594 C 338.230469 -24.441406 335.238281 -15.667969 330.363281 -6.242188 C 323.515625 6.992188 312.191406 16.105469 296.390625 21.097656 C 284.992188 24.695312 270.75 26.496094 253.664062 26.496094 C 236.507812 26.496094 222.316406 24.675781 211.089844 21.035156 C 195.613281 16.015625 184.46875 6.921875 177.660156 -6.242188 C 172.761719 -15.71875 169.761719 -24.65625 168.664062 -33.058594 C 167.824219 -39.523438 167.402344 -48.660156 167.402344 -60.460938 L 167.402344 -409.335938 L 193.898438 -409.335938 L 193.898438 -382.839844 L 60.460938 -382.839844 C 41.464844 -382.839844 26.628906 -385.511719 15.949219 -390.851562 C 2.28125 -397.683594 -6.832031 -408.394531 -11.390625 -422.976562 C -14.511719 -432.964844 -16.070312 -445.328125 -16.070312 -460.070312 C -16.070312 -474.894531 -14.488281 -487.21875 -11.316406 -497.046875 C -6.722656 -511.285156 1.671875 -521.453125 13.863281 -527.550781 C 25.933594 -533.585938 41.699219 -536.601562 61.15625 -536.601562 Z M 61.15625 -483.613281 C 50.039062 -483.613281 42.171875 -482.460938 37.5625 -480.15625 C 38.300781 -480.523438 38.902344 -481.003906 39.375 -481.597656 C 39.457031 -481.703125 39.5 -481.757812 39.503906 -481.765625 C 39.382812 -481.527344 39.25 -481.199219 39.117188 -480.777344 C 37.652344 -476.238281 36.921875 -469.335938 36.921875 -460.070312 C 36.921875 -450.71875 37.675781 -443.625 39.1875 -438.785156 C 39.265625 -438.542969 39.417969 -438.363281 39.648438 -438.246094 C 42.867188 -436.636719 49.804688 -435.832031 60.460938 -435.832031 L 220.390625 -435.832031 L 220.390625 -60.460938 C 220.390625 -50.953125 220.664062 -44.101562 221.210938 -39.914062 C 221.507812 -37.660156 222.679688 -34.550781 224.726562 -30.589844 L 224.722656 -30.621094 C 225.253906 -30.203125 226.15625 -29.789062 227.4375 -29.375 C 233.351562 -27.453125 242.09375 -26.496094 253.664062 -26.496094 C 265.304688 -26.496094 274.226562 -27.476562 280.433594 -29.4375 C 281.835938 -29.878906 282.824219 -30.324219 283.40625 -30.773438 C 283.386719 -30.757812 283.351562 -30.699219 283.296875 -30.589844 C 285.371094 -34.601562 286.546875 -37.644531 286.832031 -39.71875 C 287.363281 -43.625 287.628906 -50.308594 287.628906 -59.765625 L 287.628906 -435.832031 L 446.867188 -435.832031 C 457.984375 -435.832031 465.851562 -436.984375 470.460938 -439.289062 C 469.722656 -438.921875 469.117188 -438.441406 468.648438 -437.847656 C 468.566406 -437.742188 468.523438 -437.6875 468.519531 -437.679688 C 468.640625 -437.914062 468.769531 -438.246094 468.90625 -438.667969 C 470.371094 -443.203125 471.101562 -450.105469 471.101562 -459.375 C 471.101562 -468.726562 470.347656 -475.820312 468.832031 -480.660156 C 468.757812 -480.902344 468.605469 -481.082031 468.375 -481.195312 C 465.15625 -482.808594 458.214844 -483.613281 447.558594 -483.613281 Z M 61.15625 -483.613281 "/></g></g></g></g><g fill="#f97c2b" fill-opacity="1"><g transform="translate(5.769125, 676.98879)"><g><path d="M 360.6875 -490.640625 C 365.320312 -498.054688 372.039062 -503.15625 380.84375 -505.9375 C 389.644531 -508.71875 400.644531 -510.109375 413.84375 -510.109375 C 427.050781 -510.109375 437.59375 -508.945312 445.46875 -506.625 C 453.351562 -504.3125 459.378906 -501.53125 463.546875 -498.28125 C 467.710938 -495.039062 470.722656 -490.179688 472.578125 -483.703125 C 475.359375 -475.828125 476.75 -463.78125 476.75 -447.5625 L 476.75 -237.671875 C 476.75 -176.515625 457.753906 -120.921875 419.765625 -70.890625 C 401.234375 -47.253906 377.367188 -28.140625 348.171875 -13.546875 C 318.984375 1.046875 286.664062 8.34375 251.21875 8.34375 C 215.78125 8.34375 183.582031 0.929688 154.625 -13.890625 C 125.664062 -28.722656 102.15625 -48.1875 84.09375 -72.28125 C 46.5625 -121.382812 27.796875 -176.976562 27.796875 -239.0625 L 27.796875 -448.25 C 27.796875 -459.375 28.144531 -467.597656 28.84375 -472.921875 C 29.539062 -478.253906 31.738281 -484.394531 35.4375 -491.34375 C 39.144531 -498.289062 45.398438 -503.15625 54.203125 -505.9375 C 63.003906 -508.71875 74.816406 -510.109375 89.640625 -510.109375 C 104.472656 -510.109375 116.289062 -508.71875 125.09375 -505.9375 C 133.894531 -503.15625 139.914062 -498.289062 143.15625 -491.34375 C 148.71875 -480.6875 151.5 -466.09375 151.5 -447.5625 L 151.5 -239.0625 C 151.5 -210.800781 158.453125 -183.929688 172.359375 -158.453125 C 179.304688 -145.484375 189.726562 -135.054688 203.625 -127.171875 C 217.519531 -119.296875 233.96875 -115.359375 252.96875 -115.359375 C 286.789062 -115.359375 312.039062 -127.867188 328.71875 -152.890625 C 345.394531 -177.910156 353.734375 -206.867188 353.734375 -239.765625 L 353.734375 -452.421875 C 353.734375 -470.492188 356.050781 -483.234375 360.6875 -490.640625 Z M 360.6875 -490.640625 "/></g></g></g><g fill="#0085cd" fill-opacity="1"><g transform="translate(510.316831, 676.98879)"><g><path d="M 346.09375 -133.4375 L 358.609375 -142.46875 C 374.359375 -151.738281 385.476562 -156.375 391.96875 -156.375 C 406.320312 -156.375 421.84375 -143.398438 438.53125 -117.453125 C 448.71875 -101.234375 453.8125 -88.257812 453.8125 -78.53125 C 453.8125 -68.800781 450.679688 -60.691406 444.421875 -54.203125 C 438.171875 -47.722656 430.875 -41.929688 422.53125 -36.828125 C 414.195312 -31.734375 406.207031 -26.867188 398.5625 -22.234375 C 390.914062 -17.609375 375.273438 -11.585938 351.640625 -4.171875 C 328.015625 3.242188 305.195312 6.953125 283.1875 6.953125 C 261.1875 6.953125 238.953125 4.054688 216.484375 -1.734375 C 194.015625 -7.523438 170.847656 -17.253906 146.984375 -30.921875 C 123.117188 -44.585938 101.6875 -61.265625 82.6875 -80.953125 C 63.695312 -100.648438 48.0625 -125.90625 35.78125 -156.71875 C 23.507812 -187.53125 17.375 -221.003906 17.375 -257.140625 C 17.375 -293.273438 23.394531 -326.050781 35.4375 -355.46875 C 47.488281 -384.894531 62.894531 -409.222656 81.65625 -428.453125 C 100.425781 -447.679688 121.851562 -463.78125 145.9375 -476.75 C 191.34375 -501.769531 236.984375 -514.28125 282.859375 -514.28125 C 304.628906 -514.28125 326.75 -510.921875 349.21875 -504.203125 C 371.6875 -497.484375 388.710938 -490.648438 400.296875 -483.703125 L 416.984375 -473.96875 C 425.316406 -468.875 431.800781 -464.703125 436.4375 -461.453125 C 448.488281 -451.722656 454.515625 -440.71875 454.515625 -428.4375 C 454.515625 -416.164062 449.648438 -403.3125 439.921875 -389.875 C 421.847656 -364.851562 405.628906 -352.34375 391.265625 -352.34375 C 382.929688 -352.34375 371.117188 -357.441406 355.828125 -367.640625 C 336.367188 -383.390625 310.421875 -391.265625 277.984375 -391.265625 C 247.867188 -391.265625 218.21875 -380.84375 189.03125 -360 C 175.132812 -349.800781 163.550781 -335.4375 154.28125 -316.90625 C 145.019531 -298.375 140.390625 -277.410156 140.390625 -254.015625 C 140.390625 -230.617188 145.019531 -209.648438 154.28125 -191.109375 C 163.550781 -172.578125 175.363281 -157.984375 189.71875 -147.328125 C 217.988281 -126.941406 247.410156 -116.75 277.984375 -116.75 C 292.347656 -116.75 305.898438 -118.601562 318.640625 -122.3125 C 331.378906 -126.019531 340.53125 -129.726562 346.09375 -133.4375 Z M 346.09375 -133.4375 "/></g></g></g><g fill="#5247a7" fill-opacity="1"><g transform="translate(982.206791, 676.98879)"><g><path d="M 61.15625 -510.109375 L 447.5625 -510.109375 C 462.382812 -510.109375 473.269531 -508.367188 480.21875 -504.890625 C 487.164062 -501.421875 491.796875 -495.976562 494.109375 -488.5625 C 496.429688 -481.144531 497.59375 -471.414062 497.59375 -459.375 C 497.59375 -447.332031 496.429688 -437.71875 494.109375 -430.53125 C 491.796875 -423.351562 487.863281 -418.375 482.3125 -415.59375 C 473.96875 -411.425781 462.148438 -409.34375 446.859375 -409.34375 L 314.125 -409.34375 L 314.125 -59.765625 C 314.125 -49.109375 313.773438 -41.234375 313.078125 -36.140625 C 312.390625 -31.046875 310.304688 -25.140625 306.828125 -18.421875 C 303.347656 -11.703125 297.207031 -6.953125 288.40625 -4.171875 C 279.601562 -1.390625 268.019531 0 253.65625 0 C 239.300781 0 227.835938 -1.390625 219.265625 -4.171875 C 210.691406 -6.953125 204.664062 -11.703125 201.1875 -18.421875 C 197.71875 -25.140625 195.632812 -31.160156 194.9375 -36.484375 C 194.238281 -41.816406 193.890625 -49.8125 193.890625 -60.46875 L 193.890625 -409.34375 L 60.46875 -409.34375 C 45.632812 -409.34375 34.742188 -411.078125 27.796875 -414.546875 C 20.847656 -418.023438 16.210938 -423.46875 13.890625 -430.875 C 11.578125 -438.289062 10.421875 -448.019531 10.421875 -460.0625 C 10.421875 -472.113281 11.578125 -481.726562 13.890625 -488.90625 C 16.210938 -496.09375 20.15625 -501.078125 25.71875 -503.859375 C 34.050781 -508.023438 45.863281 -510.109375 61.15625 -510.109375 Z M 61.15625 -510.109375 "/></g></g></g></g></g></svg>