<svg xmlns="http://www.w3.org/2000/svg" xmlns:xlink="http://www.w3.org/1999/xlink" width="2000" zoomAndPan="magnify" viewBox="0 0 1500 1499.999933" height="2000" preserveAspectRatio="xMidYMid meet" version="1.0"><defs><g/></defs><rect x="-150" width="1800" fill="#ffffff" y="-149.999993" height="1799.99992" fill-opacity="1"/><rect x="-150" width="1800" fill="#000000" y="-149.999993" height="1799.99992" fill-opacity="1"/><g fill="#f97c2b" fill-opacity="1"><g transform="translate(90.002612, 977.843596)"><g><path d="M 320.71875 -436.28125 C 324.84375 -442.875 330.816406 -447.40625 338.640625 -449.875 C 346.472656 -452.351562 356.257812 -453.59375 368 -453.59375 C 379.738281 -453.59375 389.109375 -452.5625 396.109375 -450.5 C 403.117188 -448.4375 408.476562 -445.960938 412.1875 -443.078125 C 415.894531 -440.203125 418.570312 -435.878906 420.21875 -430.109375 C 422.6875 -423.097656 423.921875 -412.382812 423.921875 -397.96875 L 423.921875 -211.34375 C 423.921875 -156.96875 407.03125 -107.53125 373.25 -63.03125 C 356.769531 -42.019531 335.550781 -25.023438 309.59375 -12.046875 C 283.644531 0.929688 254.910156 7.421875 223.390625 7.421875 C 191.878906 7.421875 163.25 0.828125 137.5 -12.359375 C 111.75 -25.546875 90.84375 -42.847656 74.78125 -64.265625 C 41.40625 -107.941406 24.71875 -157.378906 24.71875 -212.578125 L 24.71875 -398.59375 C 24.71875 -408.476562 25.023438 -415.789062 25.640625 -420.53125 C 26.265625 -425.269531 28.222656 -430.726562 31.515625 -436.90625 C 34.804688 -443.082031 40.363281 -447.40625 48.1875 -449.875 C 56.019531 -452.351562 66.53125 -453.59375 79.71875 -453.59375 C 92.90625 -453.59375 103.410156 -452.351562 111.234375 -449.875 C 119.054688 -447.40625 124.410156 -443.082031 127.296875 -436.90625 C 132.242188 -427.425781 134.71875 -414.445312 134.71875 -397.96875 L 134.71875 -212.578125 C 134.71875 -187.453125 140.894531 -163.554688 153.25 -140.890625 C 159.4375 -129.359375 168.707031 -120.085938 181.0625 -113.078125 C 193.425781 -106.078125 208.050781 -102.578125 224.9375 -102.578125 C 255.007812 -102.578125 277.460938 -113.703125 292.296875 -135.953125 C 307.128906 -158.203125 314.546875 -183.953125 314.546875 -213.203125 L 314.546875 -402.296875 C 314.546875 -418.367188 316.601562 -429.695312 320.71875 -436.28125 Z M 320.71875 -436.28125 "/></g></g></g><g fill="#0085cd" fill-opacity="1"><g transform="translate(538.643213, 977.843596)"><g><path d="M 307.75 -118.65625 L 318.875 -126.6875 C 332.882812 -134.925781 342.769531 -139.046875 348.53125 -139.046875 C 361.300781 -139.046875 375.101562 -127.507812 389.9375 -104.4375 C 399 -90.019531 403.53125 -78.484375 403.53125 -69.828125 C 403.53125 -61.179688 400.75 -53.972656 395.1875 -48.203125 C 389.625 -42.429688 383.132812 -37.28125 375.71875 -32.75 C 368.3125 -28.21875 361.207031 -23.890625 354.40625 -19.765625 C 347.601562 -15.648438 333.695312 -10.296875 312.6875 -3.703125 C 291.675781 2.890625 271.382812 6.1875 251.8125 6.1875 C 232.25 6.1875 212.476562 3.613281 192.5 -1.53125 C 172.519531 -6.6875 151.921875 -15.34375 130.703125 -27.5 C 109.484375 -39.65625 90.425781 -54.484375 73.53125 -71.984375 C 56.644531 -89.492188 42.742188 -111.945312 31.828125 -139.34375 C 20.910156 -166.75 15.453125 -196.515625 15.453125 -228.640625 C 15.453125 -260.773438 20.804688 -289.921875 31.515625 -316.078125 C 42.222656 -342.242188 55.921875 -363.875 72.609375 -380.96875 C 89.296875 -398.070312 108.351562 -412.390625 129.78125 -423.921875 C 170.144531 -446.171875 210.722656 -457.296875 251.515625 -457.296875 C 270.878906 -457.296875 290.550781 -454.304688 310.53125 -448.328125 C 330.507812 -442.359375 345.648438 -436.285156 355.953125 -430.109375 L 370.78125 -421.453125 C 378.195312 -416.921875 383.960938 -413.210938 388.078125 -410.328125 C 398.796875 -401.679688 404.15625 -391.898438 404.15625 -380.984375 C 404.15625 -370.066406 399.828125 -358.632812 391.171875 -346.6875 C 375.109375 -324.4375 360.691406 -313.3125 347.921875 -313.3125 C 340.503906 -313.3125 330 -317.84375 316.40625 -326.90625 C 299.101562 -340.914062 276.03125 -347.921875 247.1875 -347.921875 C 220.40625 -347.921875 194.039062 -338.648438 168.09375 -320.109375 C 155.726562 -311.046875 145.425781 -298.273438 137.1875 -281.796875 C 128.945312 -265.316406 124.828125 -246.671875 124.828125 -225.859375 C 124.828125 -205.054688 128.945312 -186.414062 137.1875 -169.9375 C 145.425781 -153.457031 155.929688 -140.484375 168.703125 -131.015625 C 193.835938 -112.878906 220 -103.8125 247.1875 -103.8125 C 259.957031 -103.8125 272.003906 -105.457031 283.328125 -108.75 C 294.660156 -112.050781 302.800781 -115.351562 307.75 -118.65625 Z M 307.75 -118.65625 "/></g></g></g><g fill="#5247a7" fill-opacity="1"><g transform="translate(958.244702, 977.843596)"><g><path d="M 54.375 -453.59375 L 397.96875 -453.59375 C 411.15625 -453.59375 420.835938 -452.046875 427.015625 -448.953125 C 433.191406 -445.859375 437.3125 -441.015625 439.375 -434.421875 C 441.4375 -427.835938 442.46875 -419.1875 442.46875 -408.46875 C 442.46875 -397.757812 441.4375 -389.210938 439.375 -382.828125 C 437.3125 -376.441406 433.8125 -372.015625 428.875 -369.546875 C 421.457031 -365.835938 410.953125 -363.984375 397.359375 -363.984375 L 279.328125 -363.984375 L 279.328125 -53.140625 C 279.328125 -43.671875 279.015625 -36.671875 278.390625 -32.140625 C 277.773438 -27.609375 275.921875 -22.351562 272.828125 -16.375 C 269.742188 -10.40625 264.285156 -6.179688 256.453125 -3.703125 C 248.628906 -1.234375 238.332031 0 225.5625 0 C 212.789062 0 202.59375 -1.234375 194.96875 -3.703125 C 187.34375 -6.179688 181.984375 -10.40625 178.890625 -16.375 C 175.804688 -22.351562 173.953125 -27.707031 173.328125 -32.4375 C 172.710938 -37.175781 172.40625 -44.285156 172.40625 -53.765625 L 172.40625 -363.984375 L 53.765625 -363.984375 C 40.578125 -363.984375 30.894531 -365.523438 24.71875 -368.609375 C 18.539062 -371.703125 14.421875 -376.546875 12.359375 -383.140625 C 10.296875 -389.734375 9.265625 -398.382812 9.265625 -409.09375 C 9.265625 -419.800781 10.296875 -428.347656 12.359375 -434.734375 C 14.421875 -441.117188 17.921875 -445.550781 22.859375 -448.03125 C 30.273438 -451.738281 40.78125 -453.59375 54.375 -453.59375 Z M 54.375 -453.59375 "/></g></g></g></svg>