<svg width="1920" height="1080" viewBox="0 0 1920 1080" fill="none" xmlns="http://www.w3.org/2000/svg">
  <!-- Background -->
  <rect width="1920" height="1080" fill="#121212"/>
  
  <!-- Sidebar -->
  <rect x="0" y="0" width="280" height="1080" fill="#1E1E1E"/>
  
  <!-- Logo Area -->
  <rect x="40" y="40" width="200" height="60" rx="8" fill="#333333"/>
  <text x="140" y="75" font-family="Arial" font-size="24" fill="#FF6B00" text-anchor="middle">URBAN CLASH</text>
  
  <!-- Navigation Items -->
  <!-- Dashboard -->
  <rect x="20" y="140" width="240" height="50" rx="8" fill="#333333"/>
  <text x="70" y="170" font-family="Arial" font-size="16" fill="#FFFFFF">Dashboard</text>
  
  <!-- Tasks -->
  <rect x="20" y="200" width="240" height="50" rx="8" fill="#333333"/>
  <text x="70" y="230" font-family="Arial" font-size="16" fill="#FFFFFF">Tarefas</text>
  
  <!-- Restaurant -->
  <rect x="20" y="260" width="240" height="50" rx="8" fill="#FF6B00"/>
  <text x="70" y="290" font-family="Arial" font-size="16" fill="#FFFFFF">Restaurante</text>
  
  <!-- Duels -->
  <rect x="20" y="320" width="240" height="50" rx="8" fill="#333333"/>
  <text x="70" y="350" font-family="Arial" font-size="16" fill="#FFFFFF">Duelos</text>
  
  <!-- Territory -->
  <rect x="20" y="380" width="240" height="50" rx="8" fill="#333333"/>
  <text x="70" y="410" font-family="Arial" font-size="16" fill="#FFFFFF">Território</text>
  
  <!-- Hospital -->
  <rect x="20" y="440" width="240" height="50" rx="8" fill="#333333"/>
  <text x="70" y="470" font-family="Arial" font-size="16" fill="#FFFFFF">Hospital</text>
  
  <!-- Prison -->
  <rect x="20" y="500" width="240" height="50" rx="8" fill="#333333"/>
  <text x="70" y="530" font-family="Arial" font-size="16" fill="#FFFFFF">Prisão</text>
  
  <!-- VIP Area -->
  <rect x="20" y="560" width="240" height="50" rx="8" fill="#333333"/>
  <text x="70" y="590" font-family="Arial" font-size="16" fill="#FFFFFF">Área VIP</text>
  
  <!-- Black Market -->
  <rect x="20" y="620" width="240" height="50" rx="8" fill="#333333"/>
  <text x="70" y="650" font-family="Arial" font-size="16" fill="#FFFFFF">Mercado Negro</text>
  
  <!-- Square -->
  <rect x="20" y="680" width="240" height="50" rx="8" fill="#333333"/>
  <text x="70" y="710" font-family="Arial" font-size="16" fill="#FFFFFF">Praça</text>
  
  <!-- Clan -->
  <rect x="20" y="740" width="240" height="50" rx="8" fill="#333333"/>
  <text x="70" y="770" font-family="Arial" font-size="16" fill="#FFFFFF">Clã</text>
  
  <!-- Profile -->
  <rect x="20" y="800" width="240" height="50" rx="8" fill="#333333"/>
  <text x="70" y="830" font-family="Arial" font-size="16" fill="#FFFFFF">Perfil</text>
  
  <!-- Gym -->
  <rect x="20" y="860" width="240" height="50" rx="8" fill="#333333"/>
  <text x="70" y="890" font-family="Arial" font-size="16" fill="#FFFFFF">Academia</text>
  
  <!-- Bank -->
  <rect x="20" y="920" width="240" height="50" rx="8" fill="#333333"/>
  <text x="70" y="950" font-family="Arial" font-size="16" fill="#FFFFFF">Banco</text>
  
  <!-- Enterprise -->
  <rect x="20" y="980" width="240" height="50" rx="8" fill="#333333"/>
  <text x="70" y="1010" font-family="Arial" font-size="16" fill="#FFFFFF">Empresas</text>
  
  <!-- Main Content Area -->
  <rect x="300" y="40" width="1580" height="1000" rx="16" fill="#1E1E1E"/>
  
  <!-- Header -->
  <rect x="340" y="80" width="1500" height="80" rx="8" fill="#333333"/>
  <text x="380" y="125" font-family="Arial" font-size="24" fill="#FFFFFF">Restaurante</text>
  
  <!-- User Profile Quick Access -->
  <circle cx="1740" cy="120" r="30" fill="#FF6B00"/>
  <text x="1740" y="128" font-family="Arial" font-size="20" fill="#FFFFFF" text-anchor="middle">US</text>
  
  <!-- Restaurant Stats -->
  <rect x="340" y="180" width="360" height="100" rx="16" fill="#333333"/>
  <text x="380" y="220" font-family="Arial" font-size="18" fill="#AAAAAA">Energia</text>
  <text x="380" y="260" font-family="Arial" font-size="36" fill="#FFFFFF">75/100</text>
  
  <rect x="720" y="180" width="360" height="100" rx="16" fill="#333333"/>
  <text x="760" y="220" font-family="Arial" font-size="18" fill="#AAAAAA">Bônus Ativo</text>
  <text x="760" y="260" font-family="Arial" font-size="36" fill="#FFFFFF">+15% XP</text>
  
  <rect x="1100" y="180" width="360" height="100" rx="16" fill="#333333"/>
  <text x="1140" y="220" font-family="Arial" font-size="18" fill="#AAAAAA">Tempo Restante</text>
  <text x="1140" y="260" font-family="Arial" font-size="36" fill="#FFFFFF">45:30</text>
  
  <rect x="1480" y="180" width="360" height="100" rx="16" fill="#333333"/>
  <text x="1520" y="220" font-family="Arial" font-size="18" fill="#AAAAAA">Dinheiro</text>
  <text x="1520" y="260" font-family="Arial" font-size="36" fill="#FFFFFF">$5,750</text>
  
  <!-- Restaurant Menu Section -->
  <text x="340" y="320" font-family="Arial" font-size="24" fill="#FFFFFF">Menu do Dia</text>
  
  <!-- Food Categories -->
  <rect x="340" y="350" width="1500" height="60" rx="8" fill="#333333"/>
  
  <!-- All Category (Active) -->
  <rect x="360" y="360" width="150" height="40" rx="8" fill="#FF6B00"/>
  <text x="435" y="385" font-family="Arial" font-size="16" fill="#FFFFFF" text-anchor="middle">TODOS</text>
  
  <!-- Meals Category -->
  <rect x="530" y="360" width="150" height="40" rx="8" fill="#444444"/>
  <text x="605" y="385" font-family="Arial" font-size="16" fill="#AAAAAA" text-anchor="middle">REFEIÇÕES</text>
  
  <!-- Drinks Category -->
  <rect x="700" y="360" width="150" height="40" rx="8" fill="#444444"/>
  <text x="775" y="385" font-family="Arial" font-size="16" fill="#AAAAAA" text-anchor="middle">BEBIDAS</text>
  
  <!-- Desserts Category -->
  <rect x="870" y="360" width="150" height="40" rx="8" fill="#444444"/>
  <text x="945" y="385" font-family="Arial" font-size="16" fill="#AAAAAA" text-anchor="middle">SOBREMESAS</text>
  
  <!-- Special Category -->
  <rect x="1040" y="360" width="150" height="40" rx="8" fill="#444444"/>
  <text x="1115" y="385" font-family="Arial" font-size="16" fill="#AAAAAA" text-anchor="middle">ESPECIAIS</text>
  
  <!-- Food Items Grid -->
  <!-- Row 1 -->
  <!-- Food Item 1 -->
  <rect x="340" y="430" width="360" height="280" rx="16" fill="#333333"/>
  <rect x="360" y="450" width="320" height="160" rx="8" fill="#444444"/>
  <text x="520" y="530" font-family="Arial" font-size="16" fill="#AAAAAA" text-anchor="middle">[Imagem: Bife com Batatas]</text>
  <text x="380" y="640" font-family="Arial" font-size="20" fill="#FFFFFF">Bife com Batatas</text>
  <text x="380" y="670" font-family="Arial" font-size="14" fill="#AAAAAA">+25 Energia | +5% Força (30min)</text>
  <rect x="520" y="650" width="160" height="40" rx="8" fill="#FF6B00"/>
  <text x="600" y="675" font-family="Arial" font-size="16" fill="#FFFFFF" text-anchor="middle">$250</text>
  
  <!-- Food Item 2 -->
  <rect x="720" y="430" width="360" height="280" rx="16" fill="#333333"/>
  <rect x="740" y="450" width="320" height="160" rx="8" fill="#444444"/>
  <text x="900" y="530" font-family="Arial" font-size="16" fill="#AAAAAA" text-anchor="middle">[Imagem: Frango Grelhado]</text>
  <text x="760" y="640" font-family="Arial" font-size="20" fill="#FFFFFF">Frango Grelhado</text>
  <text x="760" y="670" font-family="Arial" font-size="14" fill="#AAAAAA">+20 Energia | +10% XP (1h)</text>
  <rect x="900" y="650" width="160" height="40" rx="8" fill="#FF6B00"/>
  <text x="980" y="675" font-family="Arial" font-size="16" fill="#FFFFFF" text-anchor="middle">$200</text>
  
  <!-- Food Item 3 -->
  <rect x="1100" y="430" width="360" height="280" rx="16" fill="#333333"/>
  <rect x="1120" y="450" width="320" height="160" rx="8" fill="#444444"/>
  <text x="1280" y="530" font-family="Arial" font-size="16" fill="#AAAAAA" text-anchor="middle">[Imagem: Café Especial]</text>
  <text x="1140" y="640" font-family="Arial" font-size="20" fill="#FFFFFF">Café Especial</text>
  <text x="1140" y="670" font-family="Arial" font-size="14" fill="#AAAAAA">+15 Energia | +15% Agilidade (45min)</text>
  <rect x="1280" y="650" width="160" height="40" rx="8" fill="#FF6B00"/>
  <text x="1360" y="675" font-family="Arial" font-size="16" fill="#FFFFFF" text-anchor="middle">$150</text>
  
  <!-- Food Item 4 -->
  <rect x="1480" y="430" width="360" height="280" rx="16" fill="#333333"/>
  <rect x="1500" y="450" width="320" height="160" rx="8" fill="#444444"/>
  <text x="1660" y="530" font-family="Arial" font-size="16" fill="#AAAAAA" text-anchor="middle">[Imagem: Água Energética]</text>
  <text x="1520" y="640" font-family="Arial" font-size="20" fill="#FFFFFF">Água Energética</text>
  <text x="1520" y="670" font-family="Arial" font-size="14" fill="#AAAAAA">+10 Energia | +5% Resistência (1h)</text>
  <rect x="1660" y="650" width="160" height="40" rx="8" fill="#FF6B00"/>
  <text x="1740" y="675" font-family="Arial" font-size="16" fill="#FFFFFF" text-anchor="middle">$100</text>
  
  <!-- Row 2 -->
  <!-- Food Item 5 -->
  <rect x="340" y="730" width="360" height="280" rx="16" fill="#333333"/>
  <rect x="360" y="750" width="320" height="160" rx="8" fill="#444444"/>
  <text x="520" y="830" font-family="Arial" font-size="16" fill="#AAAAAA" text-anchor="middle">[Imagem: Banquete VIP]</text>
  <text x="380" y="940" font-family="Arial" font-size="20" fill="#FFFFFF">Banquete VIP</text>
  <text x="380" y="970" font-family="Arial" font-size="14" fill="#AAAAAA">+50 Energia | +20% Todos Atributos (2h)</text>
  <rect x="520" y="950" width="160" height="40" rx="8" fill="#FF6B00"/>
  <text x="600" y="975" font-family="Arial" font-size="16" fill="#FFFFFF" text-anchor="middle">$1000</text>
  
  <!-- Food Item 6 -->
  <rect x="720" y="730" width="360" height="280" rx="16" fill="#333333"/>
  <rect x="740" y="750" width="320" height="160" rx="8" fill="#444444"/>
  <text x="900" y="830" font-family="Arial" font-size="16" fill="#AAAAAA" text-anchor="middle">[Imagem: Sobremesa Especial]</text>
  <text x="760" y="940" font-family="Arial" font-size="20" fill="#FFFFFF">Sobremesa Especial</text>
  <text x="760" y="970" font-family="Arial" font-size="14" fill="#AAAAAA">+15 Energia | +10% Dinheiro (30min)</text>
  <rect x="900" y="950" width="160" height="40" rx="8" fill="#FF6B00"/>
  <text x="980" y="975" font-family="Arial" font-size="16" fill="#FFFFFF" text-anchor="middle">$300</text>
  
  <!-- Food Item 7 -->
  <rect x="1100" y="730" width="360" height="280" rx="16" fill="#333333"/>
  <rect x="1120" y="750" width="320" height="160" rx="8" fill="#444444"/>
  <text x="1280" y="830" font-family="Arial" font-size="16" fill="#AAAAAA" text-anchor="middle">[Imagem: Suco Energético]</text>
  <text x="1140" y="940" font-family="Arial" font-size="20" fill="#FFFFFF">Suco Energético</text>
  <text x="1140" y="970" font-family="Arial" font-size="14" fill="#AAAAAA">+20 Energia | +8% Inteligência (1h)</text>
  <rect x="1280" y="950" width="160" height="40" rx="8" fill="#FF6B00"/>
  <text x="1360" y="975" font-family="Arial" font-size="16" fill="#FFFFFF" text-anchor="middle">$180</text>
  
  <!-- Food Item 8 -->
  <rect x="1480" y="730" width="360" height="280" rx="16" fill="#333333"/>
  <rect x="1500" y="750" width="320" height="160" rx="8" fill="#444444"/>
  <text x="1660" y="830" font-family="Arial" font-size="16" fill="#AAAAAA" text-anchor="middle">[Imagem: Prato do Dia]</text>
  <text x="1520" y="940" font-family="Arial" font-size="20" fill="#FFFFFF">Prato do Dia</text>
  <text x="1520" y="970" font-family="Arial" font-size="14" fill="#AAAAAA">+30 Energia | Bônus Aleatório</text>
  <rect x="1660" y="950" width="160" height="40" rx="8" fill="#FF6B00"/>
  <text x="1740" y="975" font-family="Arial" font-size="16" fill="#FFFFFF" text-anchor="middle">$350</text>
</svg>