<svg width="1920" height="1080" viewBox="0 0 1920 1080" fill="none" xmlns="http://www.w3.org/2000/svg">
  <!-- Background -->
  <rect width="1920" height="1080" fill="#121212"/>
  
  <!-- Sidebar -->
  <rect x="0" y="0" width="280" height="1080" fill="#1E1E1E"/>
  
  <!-- Logo Area -->
  <rect x="40" y="40" width="200" height="60" rx="8" fill="#333333"/>
  <text x="140" y="75" font-family="Arial" font-size="24" fill="#FF6B00" text-anchor="middle">URBAN CLASH</text>
  
  <!-- Navigation Items -->
  <!-- Dashboard -->
  <rect x="20" y="140" width="240" height="50" rx="8" fill="#333333"/>
  <text x="70" y="170" font-family="Arial" font-size="16" fill="#FFFFFF">Dashboard</text>
  
  <!-- Tasks -->
  <rect x="20" y="200" width="240" height="50" rx="8" fill="#FF6B00"/>
  <text x="70" y="230" font-family="Arial" font-size="16" fill="#FFFFFF">Tarefas</text>
  
  <!-- Restaurant -->
  <rect x="20" y="260" width="240" height="50" rx="8" fill="#333333"/>
  <text x="70" y="290" font-family="Arial" font-size="16" fill="#FFFFFF">Restaurante</text>
  
  <!-- Duels -->
  <rect x="20" y="320" width="240" height="50" rx="8" fill="#333333"/>
  <text x="70" y="350" font-family="Arial" font-size="16" fill="#FFFFFF">Duelos</text>
  
  <!-- Territory -->
  <rect x="20" y="380" width="240" height="50" rx="8" fill="#333333"/>
  <text x="70" y="410" font-family="Arial" font-size="16" fill="#FFFFFF">Território</text>
  
  <!-- Hospital -->
  <rect x="20" y="440" width="240" height="50" rx="8" fill="#333333"/>
  <text x="70" y="470" font-family="Arial" font-size="16" fill="#FFFFFF">Hospital</text>
  
  <!-- Prison -->
  <rect x="20" y="500" width="240" height="50" rx="8" fill="#333333"/>
  <text x="70" y="530" font-family="Arial" font-size="16" fill="#FFFFFF">Prisão</text>
  
  <!-- VIP Area -->
  <rect x="20" y="560" width="240" height="50" rx="8" fill="#333333"/>
  <text x="70" y="590" font-family="Arial" font-size="16" fill="#FFFFFF">Área VIP</text>
  
  <!-- Black Market -->
  <rect x="20" y="620" width="240" height="50" rx="8" fill="#333333"/>
  <text x="70" y="650" font-family="Arial" font-size="16" fill="#FFFFFF">Mercado Negro</text>
  
  <!-- Square -->
  <rect x="20" y="680" width="240" height="50" rx="8" fill="#333333"/>
  <text x="70" y="710" font-family="Arial" font-size="16" fill="#FFFFFF">Praça</text>
  
  <!-- Clan -->
  <rect x="20" y="740" width="240" height="50" rx="8" fill="#333333"/>
  <text x="70" y="770" font-family="Arial" font-size="16" fill="#FFFFFF">Clã</text>
  
  <!-- Profile -->
  <rect x="20" y="800" width="240" height="50" rx="8" fill="#333333"/>
  <text x="70" y="830" font-family="Arial" font-size="16" fill="#FFFFFF">Perfil</text>
  
  <!-- Gym -->
  <rect x="20" y="860" width="240" height="50" rx="8" fill="#333333"/>
  <text x="70" y="890" font-family="Arial" font-size="16" fill="#FFFFFF">Academia</text>
  
  <!-- Bank -->
  <rect x="20" y="920" width="240" height="50" rx="8" fill="#333333"/>
  <text x="70" y="950" font-family="Arial" font-size="16" fill="#FFFFFF">Banco</text>
  
  <!-- Enterprise -->
  <rect x="20" y="980" width="240" height="50" rx="8" fill="#333333"/>
  <text x="70" y="1010" font-family="Arial" font-size="16" fill="#FFFFFF">Empresas</text>
  
  <!-- Main Content Area -->
  <rect x="300" y="40" width="1580" height="1000" rx="16" fill="#1E1E1E"/>
  
  <!-- Header -->
  <rect x="340" y="80" width="1500" height="80" rx="8" fill="#333333"/>
  <text x="380" y="125" font-family="Arial" font-size="24" fill="#FFFFFF">Tarefas</text>
  
  <!-- User Profile Quick Access -->
  <circle cx="1740" cy="120" r="30" fill="#FF6B00"/>
  <text x="1740" y="128" font-family="Arial" font-size="20" fill="#FFFFFF" text-anchor="middle">US</text>
  
  <!-- Task Type Tabs -->
  <rect x="340" y="180" width="1500" height="60" rx="8" fill="#333333"/>
  
  <!-- Solo Tab (Active) -->
  <rect x="360" y="190" width="200" height="40" rx="8" fill="#FF6B00"/>
  <text x="460" y="215" font-family="Arial" font-size="16" fill="#FFFFFF" text-anchor="middle">SOLO</text>
  
  <!-- Clan Tab -->
  <rect x="580" y="190" width="200" height="40" rx="8" fill="#444444"/>
  <text x="680" y="215" font-family="Arial" font-size="16" fill="#AAAAAA" text-anchor="middle">CLÃ</text>
  
  <!-- Daily Tab -->
  <rect x="800" y="190" width="200" height="40" rx="8" fill="#444444"/>
  <text x="900" y="215" font-family="Arial" font-size="16" fill="#AAAAAA" text-anchor="middle">DIÁRIAS</text>
  
  <!-- Weekly Tab -->
  <rect x="1020" y="190" width="200" height="40" rx="8" fill="#444444"/>
  <text x="1120" y="215" font-family="Arial" font-size="16" fill="#AAAAAA" text-anchor="middle">SEMANAIS</text>
  
  <!-- Task Stats -->
  <rect x="340" y="260" width="360" height="100" rx="16" fill="#333333"/>
  <text x="380" y="300" font-family="Arial" font-size="18" fill="#AAAAAA">Tarefas Completadas</text>
  <text x="380" y="340" font-family="Arial" font-size="36" fill="#FFFFFF">3/10</text>
  
  <rect x="720" y="260" width="360" height="100" rx="16" fill="#333333"/>
  <text x="760" y="300" font-family="Arial" font-size="18" fill="#AAAAAA">XP Ganho</text>
  <text x="760" y="340" font-family="Arial" font-size="36" fill="#FFFFFF">750 XP</text>
  
  <rect x="1100" y="260" width="360" height="100" rx="16" fill="#333333"/>
  <text x="1140" y="300" font-family="Arial" font-size="18" fill="#AAAAAA">Recursos Ganhos</text>
  <text x="1140" y="340" font-family="Arial" font-size="36" fill="#FFFFFF">$1,200</text>
  
  <rect x="1480" y="260" width="360" height="100" rx="16" fill="#333333"/>
  <text x="1520" y="300" font-family="Arial" font-size="18" fill="#AAAAAA">Próximo Reset</text>
  <text x="1520" y="340" font-family="Arial" font-size="36" fill="#FFFFFF">12:45:30</text>
  
  <!-- Task List Section -->
  <text x="340" y="400" font-family="Arial" font-size="24" fill="#FFFFFF">Tarefas Disponíveis</text>
  
  <!-- Task Cards -->
  <!-- Task 1 (In Progress) -->
  <rect x="340" y="430" width="740" height="160" rx="16" fill="#333333"/>
  <rect x="340" y="430" width="10" height="160" rx="5" fill="#FFC107"/>
  <text x="380" y="470" font-family="Arial" font-size="20" fill="#FFFFFF">Roubar o Banco Central</text>
  <text x="380" y="500" font-family="Arial" font-size="14" fill="#AAAAAA">Invada o Banco Central e roube $10,000 sem ser detectado.</text>
  <text x="380" y="530" font-family="Arial" font-size="14" fill="#AAAAAA">Progresso: 2/3</text>
  <text x="380" y="560" font-family="Arial" font-size="14" fill="#AAAAAA">Recompensas:</text>
  <text x="480" y="560" font-family="Arial" font-size="14" fill="#4CAF50">500 XP</text>
  <text x="560" y="560" font-family="Arial" font-size="14" fill="#FF6B00">$2,000</text>
  <rect x="900" y="490" width="150" height="40" rx="8" fill="#FFC107"/>
  <text x="975" y="515" font-family="Arial" font-size="16" fill="#000000" text-anchor="middle">EM PROGRESSO</text>
  
  <!-- Task 2 (Available) -->
  <rect x="340" y="610" width="740" height="160" rx="16" fill="#333333"/>
  <rect x="340" y="610" width="10" height="160" rx="5" fill="#2196F3"/>
  <text x="380" y="650" font-family="Arial" font-size="20" fill="#FFFFFF">Eliminar Rival</text>
  <text x="380" y="680" font-family="Arial" font-size="14" fill="#AAAAAA">Elimine o líder rival que está operando no seu território.</text>
  <text x="380" y="710" font-family="Arial" font-size="14" fill="#AAAAAA">Dificuldade: Média</text>
  <text x="380" y="740" font-family="Arial" font-size="14" fill="#AAAAAA">Recompensas:</text>
  <text x="480" y="740" font-family="Arial" font-size="14" fill="#4CAF50">300 XP</text>
  <text x="560" y="740" font-family="Arial" font-size="14" fill="#FF6B00">$1,500</text>
  <rect x="900" y="670" width="150" height="40" rx="8" fill="#2196F3"/>
  <text x="975" y="695" font-family="Arial" font-size="16" fill="#FFFFFF" text-anchor="middle">INICIAR</text>
  
  <!-- Task 3 (Completed) -->
  <rect x="340" y="790" width="740" height="160" rx="16" fill="#333333"/>
  <rect x="340" y="790" width="10" height="160" rx="5" fill="#4CAF50"/>
  <text x="380" y="830" font-family="Arial" font-size="20" fill="#FFFFFF">Contrabando de Armas</text>
  <text x="380" y="860" font-family="Arial" font-size="14" fill="#AAAAAA">Transporte um carregamento de armas para o outro lado da cidade.</text>
  <text x="380" y="890" font-family="Arial" font-size="14" fill="#AAAAAA">Dificuldade: Fácil</text>
  <text x="380" y="920" font-family="Arial" font-size="14" fill="#AAAAAA">Recompensas:</text>
  <text x="480" y="920" font-family="Arial" font-size="14" fill="#4CAF50">200 XP</text>
  <text x="560" y="920" font-family="Arial" font-size="14" fill="#FF6B00">$800</text>
  <rect x="900" y="850" width="150" height="40" rx="8" fill="#4CAF50"/>
  <text x="975" y="875" font-family="Arial" font-size="16" fill="#FFFFFF" text-anchor="middle">COMPLETADA</text>
  
  <!-- Upcoming Tasks Section -->
  <text x="1100" y="400" font-family="Arial" font-size="24" fill="#FFFFFF">Próximas Tarefas</text>
  
  <!-- Upcoming Task Cards -->
  <!-- Upcoming Task 1 -->
  <rect x="1100" y="430" width="740" height="120" rx="16" fill="#333333"/>
  <rect x="1100" y="430" width="10" height="120" rx="5" fill="#9C27B0"/>
  <text x="1140" y="470" font-family="Arial" font-size="20" fill="#FFFFFF">Assalto ao Cassino</text>
  <text x="1140" y="500" font-family="Arial" font-size="14" fill="#AAAAAA">Disponível em: 2 horas</text>
  <text x="1140" y="530" font-family="Arial" font-size="14" fill="#AAAAAA">Recompensas:</text>
  <text x="1240" y="530" font-family="Arial" font-size="14" fill="#4CAF50">800 XP</text>
  <text x="1320" y="530" font-family="Arial" font-size="14" fill="#FF6B00">$5,000</text>
  <rect x="1660" y="480" width="150" height="40" rx="8" fill="#9C27B0" opacity="0.5"/>
  <text x="1735" y="505" font-family="Arial" font-size="16" fill="#FFFFFF" text-anchor="middle">BLOQUEADA</text>
  
  <!-- Upcoming Task 2 -->
  <rect x="1100" y="570" width="740" height="120" rx="16" fill="#333333"/>
  <rect x="1100" y="570" width="10" height="120" rx="5" fill="#9C27B0"/>
  <text x="1140" y="610" font-family="Arial" font-size="20" fill="#FFFFFF">Hackear Sistema de Segurança</text>
  <text x="1140" y="640" font-family="Arial" font-size="14" fill="#AAAAAA">Disponível em: 5 horas</text>
  <text x="1140" y="670" font-family="Arial" font-size="14" fill="#AAAAAA">Recompensas:</text>
  <text x="1240" y="670" font-family="Arial" font-size="14" fill="#4CAF50">600 XP</text>
  <text x="1320" y="670" font-family="Arial" font-size="14" fill="#FF6B00">$3,000</text>
  <rect x="1660" y="620" width="150" height="40" rx="8" fill="#9C27B0" opacity="0.5"/>
  <text x="1735" y="645" font-family="Arial" font-size="16" fill="#FFFFFF" text-anchor="middle">BLOQUEADA</text>
  
  <!-- Upcoming Task 3 -->
  <rect x="1100" y="710" width="740" height="120" rx="16" fill="#333333"/>
  <rect x="1100" y="710" width="10" height="120" rx="5" fill="#9C27B0"/>
  <text x="1140" y="750" font-family="Arial" font-size="20" fill="#FFFFFF">Proteger Território</text>
  <text x="1140" y="780" font-family="Arial" font-size="14" fill="#AAAAAA">Disponível em: 8 horas</text>
  <text x="1140" y="810" font-family="Arial" font-size="14" fill="#AAAAAA">Recompensas:</text>
  <text x="1240" y="810" font-family="Arial" font-size="14" fill="#4CAF50">400 XP</text>
  <text x="1320" y="810" font-family="Arial" font-size="14" fill="#FF6B00">$2,000</text>
  <rect x="1660" y="760" width="150" height="40" rx="8" fill="#9C27B0" opacity="0.5"/>
  <text x="1735" y="785" font-family="Arial" font-size="16" fill="#FFFFFF" text-anchor="middle">BLOQUEADA</text>
  
  <!-- Upcoming Task 4 -->
  <rect x="1100" y="850" width="740" height="120" rx="16" fill="#333333"/>
  <rect x="1100" y="850" width="10" height="120" rx="5" fill="#9C27B0"/>
  <text x="1140" y="890" font-family="Arial" font-size="20" fill="#FFFFFF">Recrutar Novos Membros</text>
  <text x="1140" y="920" font-family="Arial" font-size="14" fill="#AAAAAA">Disponível em: 12 horas</text>
  <text x="1140" y="950" font-family="Arial" font-size="14" fill="#AAAAAA">Recompensas:</text>
  <text x="1240" y="950" font-family="Arial" font-size="14" fill="#4CAF50">350 XP</text>
  <text x="1320" y="950" font-family="Arial" font-size="14" fill="#FF6B00">$1,800</text>
  <rect x="1660" y="900" width="150" height="40" rx="8" fill="#9C27B0" opacity="0.5"/>
  <text x="1735" y="925" font-family="Arial" font-size="16" fill="#FFFFFF" text-anchor="middle">BLOQUEADA</text>
</svg>