<svg xmlns="http://www.w3.org/2000/svg" xmlns:xlink="http://www.w3.org/1999/xlink" width="2000" zoomAndPan="magnify" viewBox="0 0 1500 1499.999933" height="2000" preserveAspectRatio="xMidYMid meet" version="1.0"><defs><g/><clipPath id="a12599afdc"><path d="M 969 141 L 1500 141 L 1500 713 L 969 713 Z M 969 141 " clip-rule="nonzero"/></clipPath><clipPath id="624eb218e3"><rect x="0" width="1500" y="0" height="852"/></clipPath><clipPath id="a2ad20ccfe"><path d="M 1116 1066.792969 L 1500 1066.792969 L 1500 1500 L 1116 1500 Z M 1116 1066.792969 " clip-rule="nonzero"/></clipPath><clipPath id="50ad3dfb87"><path d="M 0 1066.792969 L 1142 1066.792969 L 1142 1500 L 0 1500 Z M 0 1066.792969 " clip-rule="nonzero"/></clipPath></defs><g transform="matrix(1, 0, 0, 1, 0, 324)"><g clip-path="url(#624eb218e3)"><g fill="#000000" fill-opacity="1"><g transform="translate(0.00003335, 684.668298)"><g><path d="M 341.761719 -509.972656 C 349.929688 -523.042969 361.597656 -531.972656 376.765625 -536.765625 C 388.285156 -540.402344 402.09375 -542.21875 418.1875 -542.21875 C 434.097656 -542.21875 447.269531 -540.6875 457.691406 -537.621094 C 468.898438 -534.324219 477.949219 -530 484.832031 -524.640625 C 493.648438 -517.785156 499.792969 -508.277344 503.269531 -496.117188 L 477.527344 -488.761719 L 502.773438 -497.671875 C 506.597656 -486.832031 508.511719 -471.6875 508.511719 -452.246094 L 508.511719 -240.167969 C 508.511719 -172.363281 487.5 -110.785156 445.480469 -55.4375 C 424.105469 -28.183594 396.878906 -6.289062 363.796875 10.253906 C 330.535156 26.882812 293.890625 35.199219 253.859375 35.199219 C 213.742188 35.199219 177.136719 26.730469 144.046875 9.785156 C 111.117188 -7.074219 84.285156 -29.324219 63.554688 -56.96875 C 22.0625 -111.265625 1.316406 -172.800781 1.316406 -241.570312 L 1.316406 -452.949219 C 1.316406 -465.34375 1.742188 -474.804688 2.59375 -481.339844 C 3.71875 -489.945312 6.917969 -499.195312 12.191406 -509.085938 C 19.363281 -522.535156 30.871094 -531.761719 46.710938 -536.765625 C 58.230469 -540.402344 72.855469 -542.21875 90.589844 -542.21875 C 108.320312 -542.21875 122.949219 -540.402344 134.464844 -536.765625 C 150.84375 -531.59375 162.328125 -521.941406 168.921875 -507.808594 L 144.664062 -496.488281 L 168.398438 -508.871094 C 176.042969 -494.222656 179.863281 -475.347656 179.863281 -452.246094 L 179.863281 -241.570312 C 179.863281 -217.566406 185.796875 -194.683594 197.660156 -172.933594 C 202.308594 -164.257812 209.40625 -157.214844 218.957031 -151.804688 C 228.90625 -146.164062 241.128906 -143.34375 255.617188 -143.34375 C 268.527344 -143.34375 279.488281 -145.578125 288.5 -150.042969 C 296.976562 -154.242188 304.105469 -160.675781 309.886719 -169.34375 C 323.742188 -190.128906 330.667969 -214.4375 330.667969 -242.273438 L 330.667969 -457.160156 C 330.667969 -480.539062 334.367188 -498.140625 341.761719 -509.972656 Z M 387.167969 -481.59375 C 386.640625 -480.75 386.097656 -478.792969 385.539062 -475.722656 C 384.65625 -470.867188 384.214844 -464.679688 384.214844 -457.160156 L 384.214844 -242.273438 C 384.214844 -203.628906 374.289062 -169.421875 354.4375 -139.644531 C 343.363281 -123.027344 329.304688 -110.503906 312.269531 -102.0625 C 295.769531 -93.886719 276.882812 -89.800781 255.617188 -89.800781 C 231.714844 -89.800781 210.695312 -94.9375 192.558594 -105.21875 C 174.019531 -115.722656 160.050781 -129.746094 150.652344 -147.292969 C 134.429688 -177.035156 126.316406 -208.460938 126.316406 -241.570312 L 126.316406 -452.246094 C 126.316406 -466.59375 124.519531 -477.214844 120.925781 -484.101562 L 120.652344 -484.628906 L 120.402344 -485.164062 C 120.507812 -484.933594 120.648438 -484.75 120.816406 -484.613281 C 120.398438 -484.949219 119.574219 -485.3125 118.339844 -485.703125 C 112.070312 -487.683594 102.820312 -488.675781 90.589844 -488.675781 C 78.359375 -488.675781 69.109375 -487.683594 62.835938 -485.703125 C 60.886719 -485.085938 59.753906 -484.484375 59.4375 -483.886719 C 57.222656 -479.734375 55.972656 -476.574219 55.691406 -474.414062 C 55.140625 -470.179688 54.863281 -463.023438 54.863281 -452.949219 L 54.863281 -241.570312 C 54.863281 -184.878906 72.039062 -134.050781 106.390625 -89.097656 C 122.175781 -68.050781 142.859375 -50.976562 168.449219 -37.875 C 193.878906 -24.855469 222.351562 -18.347656 253.859375 -18.347656 C 285.460938 -18.347656 314.125 -24.777344 339.851562 -37.640625 C 365.757812 -50.59375 386.75 -67.320312 402.832031 -87.820312 C 437.589844 -133.59375 454.964844 -184.378906 454.964844 -240.167969 L 454.964844 -452.246094 C 454.964844 -465.574219 454.070312 -474.777344 452.277344 -479.851562 L 452.007812 -480.621094 L 451.78125 -481.40625 C 451.527344 -482.300781 451.292969 -482.921875 451.074219 -483.273438 C 451.242188 -483.003906 451.535156 -482.707031 451.960938 -482.375 C 450.417969 -483.574219 447.292969 -484.867188 442.582031 -486.25 C 437.089844 -487.867188 428.957031 -488.675781 418.1875 -488.675781 C 407.59375 -488.675781 399.164062 -487.683594 392.890625 -485.703125 C 390.269531 -484.875 388.363281 -483.507812 387.167969 -481.59375 Z M 387.167969 -481.59375 "/></g></g></g><g fill="#000000" fill-opacity="1"><g transform="translate(509.828936, 684.668298)"><g><path d="M 334.042969 -156.535156 L 347.699219 -166.398438 L 348.785156 -167.035156 C 368.890625 -178.863281 384.652344 -184.777344 396.066406 -184.777344 C 420.324219 -184.777344 443.511719 -167.570312 465.636719 -133.15625 C 478.769531 -112.261719 485.339844 -94.328125 485.339844 -79.355469 C 485.339844 -62.316406 479.679688 -47.929688 468.359375 -36.191406 C 460.449219 -27.988281 451.304688 -20.71875 440.925781 -14.375 L 416.65625 0.398438 C 407.054688 6.214844 389.285156 13.195312 363.351562 21.332031 C 336.863281 29.640625 311.136719 33.796875 286.164062 33.796875 C 261.664062 33.796875 236.964844 30.585938 212.066406 24.171875 C 187.03125 17.71875 161.414062 6.988281 135.21875 -8.019531 C 108.898438 -23.09375 85.257812 -41.496094 64.296875 -63.222656 C 42.667969 -85.644531 25 -114.050781 11.292969 -148.445312 C -2.378906 -182.761719 -9.21875 -219.886719 -9.21875 -259.832031 C -9.21875 -299.859375 -2.464844 -336.363281 11.039062 -369.34375 C 24.527344 -402.285156 41.964844 -429.71875 63.351562 -451.632812 C 84.222656 -473.015625 108.027344 -490.910156 134.777344 -505.3125 C 184.527344 -532.726562 234.875 -546.433594 285.8125 -546.433594 C 310.429688 -546.433594 335.339844 -542.664062 360.546875 -535.128906 C 385.398438 -527.699219 404.640625 -519.894531 418.265625 -511.71875 L 434.835938 -502.054688 C 444.050781 -496.429688 451.226562 -491.820312 456.363281 -488.222656 L 457.117188 -487.695312 L 457.832031 -487.117188 C 476.636719 -471.929688 486.039062 -453.867188 486.039062 -432.933594 C 486.039062 -414.742188 479.429688 -396.515625 466.203125 -378.257812 C 442.617188 -345.59375 419.003906 -329.265625 395.363281 -329.265625 C 381.53125 -329.265625 364.644531 -335.914062 344.699219 -349.210938 L 343.667969 -349.898438 L 342.703125 -350.679688 C 327.953125 -362.621094 307.351562 -368.589844 280.898438 -368.589844 C 256.1875 -368.589844 231.410156 -359.71875 206.570312 -341.976562 C 196.1875 -334.359375 187.277344 -323.117188 179.84375 -308.25 C 172.367188 -293.292969 168.625 -276.097656 168.625 -256.671875 C 168.625 -237.242188 172.367188 -220.046875 179.84375 -205.089844 C 187.300781 -190.175781 196.574219 -178.605469 207.664062 -170.378906 C 231.355469 -153.292969 255.765625 -144.75 280.898438 -144.75 C 292.867188 -144.75 304.066406 -146.265625 314.5 -149.300781 C 324.742188 -152.28125 331.53125 -154.882812 334.867188 -157.105469 L 349.71875 -134.832031 Z M 365.394531 -113.125 L 364.984375 -112.832031 L 364.570312 -112.554688 C 356.667969 -107.289062 344.964844 -102.398438 329.457031 -97.886719 C 314.140625 -93.433594 297.953125 -91.203125 280.898438 -91.203125 C 244.234375 -91.203125 209.1875 -103.261719 175.761719 -127.375 C 157.824219 -140.683594 143.222656 -158.605469 131.953125 -181.144531 C 120.703125 -203.640625 115.082031 -228.8125 115.082031 -256.671875 C 115.082031 -284.527344 120.703125 -309.703125 131.953125 -332.195312 C 143.246094 -354.78125 157.742188 -372.566406 175.449219 -385.546875 C 209.597656 -409.941406 244.746094 -422.136719 280.898438 -422.136719 C 319.988281 -422.136719 351.820312 -412.191406 376.394531 -392.296875 L 359.550781 -371.488281 L 374.398438 -393.761719 C 380.777344 -389.511719 386.210938 -386.417969 390.695312 -384.484375 C 392.367188 -383.761719 393.785156 -383.253906 394.949219 -382.960938 C 395.265625 -382.878906 395.519531 -382.824219 395.707031 -382.800781 C 395.652344 -382.808594 395.539062 -382.8125 395.363281 -382.8125 L 395.367188 -382.828125 C 395.660156 -382.886719 396.023438 -383.007812 396.460938 -383.1875 C 398.089844 -383.855469 400 -385.03125 402.183594 -386.714844 C 408.324219 -391.453125 415.210938 -399.101562 422.835938 -409.660156 C 429.273438 -418.554688 432.496094 -426.3125 432.496094 -432.933594 C 432.496094 -436.8125 429.726562 -440.988281 424.1875 -445.460938 L 441.007812 -466.289062 L 425.65625 -444.355469 C 421.429688 -447.316406 415.496094 -451.132812 407.855469 -455.804688 L 390.71875 -465.804688 C 380.9375 -471.671875 365.765625 -477.679688 345.207031 -483.828125 C 325.003906 -489.867188 305.207031 -492.886719 285.8125 -492.886719 C 244.058594 -492.886719 202.175781 -481.3125 160.164062 -458.167969 C 138.222656 -446.351562 118.726562 -431.707031 101.675781 -414.234375 C 85.140625 -397.292969 71.445312 -375.566406 60.589844 -349.054688 C 49.75 -322.574219 44.328125 -292.835938 44.328125 -259.832031 C 44.328125 -226.738281 49.898438 -196.21875 61.035156 -168.265625 C 72.144531 -140.394531 86.078125 -117.769531 102.835938 -100.398438 C 120.265625 -82.332031 139.929688 -67.027344 161.832031 -54.480469 C 183.855469 -41.867188 205.054688 -32.933594 225.429688 -27.679688 C 245.945312 -22.394531 266.191406 -19.75 286.164062 -19.75 C 305.667969 -19.75 326.054688 -23.085938 347.320312 -29.757812 C 369.136719 -36.601562 382.96875 -41.796875 388.816406 -45.339844 L 413.003906 -60.0625 C 419.476562 -64.019531 425.082031 -68.453125 429.8125 -73.359375 C 431.132812 -74.726562 431.792969 -76.726562 431.792969 -79.355469 C 431.792969 -80.890625 431.121094 -83.359375 429.785156 -86.769531 C 427.820312 -91.765625 424.757812 -97.578125 420.59375 -104.203125 C 413.644531 -115.015625 407.292969 -122.824219 401.542969 -127.632812 C 399.597656 -129.257812 397.921875 -130.375 396.507812 -130.988281 C 396.195312 -131.125 395.953125 -131.210938 395.777344 -131.25 C 395.832031 -131.238281 395.929688 -131.230469 396.066406 -131.230469 C 396.589844 -131.230469 397.035156 -131.257812 397.398438 -131.3125 C 397.378906 -131.3125 397.273438 -131.285156 397.085938 -131.234375 C 396.050781 -130.964844 394.695312 -130.476562 393.019531 -129.78125 C 388.53125 -127.910156 382.835938 -124.945312 375.933594 -120.882812 L 362.359375 -143.960938 L 378.035156 -122.253906 Z M 365.394531 -113.125 "/></g></g></g><g clip-path="url(#a12599afdc)"><g fill="#000000" fill-opacity="1"><g transform="translate(986.658257, 684.668298)"><g><path d="M 61.796875 -542.21875 L 452.246094 -542.21875 C 471.441406 -542.21875 486.433594 -539.523438 497.222656 -534.125 C 511.035156 -527.21875 520.246094 -516.398438 524.851562 -501.664062 C 528.003906 -491.574219 529.578125 -479.078125 529.578125 -464.183594 C 529.578125 -449.203125 527.976562 -436.75 524.777344 -426.820312 C 520.132812 -412.429688 511.652344 -402.15625 499.332031 -395.996094 C 487.136719 -389.898438 471.207031 -386.847656 451.542969 -386.847656 L 317.414062 -386.847656 L 317.414062 -413.621094 L 344.1875 -413.621094 L 344.1875 -60.394531 C 344.1875 -48.414062 343.753906 -39.25 342.886719 -32.898438 C 341.769531 -24.695312 338.746094 -15.832031 333.820312 -6.308594 C 326.902344 7.066406 315.460938 16.273438 299.492188 21.316406 C 287.976562 24.953125 273.582031 26.773438 256.320312 26.773438 C 238.984375 26.773438 224.644531 24.933594 213.296875 21.253906 C 197.660156 16.183594 186.398438 6.996094 179.519531 -6.308594 C 174.566406 -15.882812 171.539062 -24.914062 170.429688 -33.40625 C 169.578125 -39.9375 169.152344 -49.167969 169.152344 -61.09375 L 169.152344 -413.621094 L 195.925781 -413.621094 L 195.925781 -386.847656 L 61.09375 -386.847656 C 41.902344 -386.847656 26.90625 -389.546875 16.117188 -394.941406 C 2.304688 -401.847656 -6.90625 -412.667969 -11.507812 -427.40625 C -14.664062 -437.496094 -16.238281 -449.988281 -16.238281 -464.886719 C -16.238281 -479.867188 -14.636719 -492.320312 -11.433594 -502.25 C -6.792969 -516.636719 1.6875 -526.914062 14.007812 -533.074219 C 26.207031 -539.171875 42.132812 -542.21875 61.796875 -542.21875 Z M 61.796875 -488.675781 C 50.5625 -488.675781 42.613281 -487.507812 37.957031 -485.179688 C 38.703125 -485.554688 39.3125 -486.039062 39.785156 -486.640625 C 39.867188 -486.746094 39.914062 -486.800781 39.917969 -486.808594 C 39.792969 -486.570312 39.664062 -486.234375 39.523438 -485.808594 C 38.046875 -481.226562 37.308594 -474.25 37.308594 -464.886719 C 37.308594 -455.4375 38.070312 -448.269531 39.597656 -443.378906 C 39.675781 -443.132812 39.832031 -442.953125 40.0625 -442.835938 C 43.316406 -441.207031 50.328125 -440.394531 61.09375 -440.394531 L 222.699219 -440.394531 L 222.699219 -61.09375 C 222.699219 -51.488281 222.976562 -44.566406 223.527344 -40.332031 C 223.824219 -38.054688 225.007812 -34.914062 227.078125 -30.910156 L 227.074219 -30.941406 C 227.609375 -30.519531 228.523438 -30.101562 229.816406 -29.679688 C 235.792969 -27.742188 244.628906 -26.773438 256.320312 -26.773438 C 268.082031 -26.773438 277.097656 -27.761719 283.367188 -29.742188 C 284.785156 -30.191406 285.785156 -30.640625 286.375 -31.09375 C 286.355469 -31.082031 286.316406 -31.019531 286.261719 -30.910156 C 288.355469 -34.960938 289.546875 -38.035156 289.832031 -40.132812 C 290.371094 -44.082031 290.640625 -50.835938 290.640625 -60.394531 L 290.640625 -440.394531 L 451.542969 -440.394531 C 462.777344 -440.394531 470.726562 -441.558594 475.382812 -443.886719 C 474.640625 -443.515625 474.027344 -443.03125 473.554688 -442.429688 C 473.472656 -442.324219 473.429688 -442.269531 473.421875 -442.257812 C 473.546875 -442.5 473.675781 -442.832031 473.816406 -443.257812 C 475.292969 -447.84375 476.035156 -454.820312 476.035156 -464.183594 C 476.035156 -473.632812 475.269531 -480.800781 473.742188 -485.691406 C 473.664062 -485.9375 473.511719 -486.117188 473.277344 -486.234375 C 470.023438 -487.859375 463.011719 -488.675781 452.246094 -488.675781 Z M 61.796875 -488.675781 "/></g></g></g></g><g fill="#f97c2b" fill-opacity="1"><g transform="translate(0.00003335, 684.668298)"><g><path d="M 364.453125 -495.78125 C 369.140625 -503.28125 375.929688 -508.429688 384.828125 -511.234375 C 393.722656 -514.046875 404.84375 -515.453125 418.1875 -515.453125 C 431.53125 -515.453125 442.179688 -514.28125 450.140625 -511.9375 C 458.097656 -509.59375 464.179688 -506.78125 468.390625 -503.5 C 472.609375 -500.226562 475.65625 -495.316406 477.53125 -488.765625 C 480.34375 -480.804688 481.75 -468.632812 481.75 -452.25 L 481.75 -240.171875 C 481.75 -178.367188 462.550781 -122.1875 424.15625 -71.625 C 405.425781 -47.75 381.3125 -28.4375 351.8125 -13.6875 C 322.320312 1.050781 289.671875 8.421875 253.859375 8.421875 C 218.046875 8.421875 185.507812 0.929688 156.25 -14.046875 C 126.988281 -29.023438 103.226562 -48.6875 84.96875 -73.03125 C 47.050781 -122.65625 28.09375 -178.835938 28.09375 -241.578125 L 28.09375 -452.953125 C 28.09375 -464.191406 28.441406 -472.5 29.140625 -477.875 C 29.847656 -483.257812 32.070312 -489.460938 35.8125 -496.484375 C 39.5625 -503.515625 45.882812 -508.429688 54.78125 -511.234375 C 63.675781 -514.046875 75.613281 -515.453125 90.59375 -515.453125 C 105.570312 -515.453125 117.507812 -514.046875 126.40625 -511.234375 C 135.300781 -508.429688 141.382812 -503.515625 144.65625 -496.484375 C 150.28125 -485.722656 153.09375 -470.976562 153.09375 -452.25 L 153.09375 -241.578125 C 153.09375 -213.015625 160.113281 -185.859375 174.15625 -160.109375 C 181.175781 -147.003906 191.707031 -136.472656 205.75 -128.515625 C 219.800781 -120.554688 236.425781 -116.578125 255.625 -116.578125 C 289.800781 -116.578125 315.3125 -129.21875 332.15625 -154.5 C 349.007812 -179.78125 357.4375 -209.039062 357.4375 -242.28125 L 357.4375 -457.171875 C 357.4375 -475.421875 359.773438 -488.289062 364.453125 -495.78125 Z M 364.453125 -495.78125 "/></g></g></g><g fill="#0085cd" fill-opacity="1"><g transform="translate(509.828936, 684.668298)"><g><path d="M 349.71875 -134.828125 L 362.359375 -143.96875 C 378.273438 -153.320312 389.507812 -158 396.0625 -158 C 410.582031 -158 426.269531 -144.894531 443.125 -118.6875 C 453.414062 -102.289062 458.5625 -89.175781 458.5625 -79.34375 C 458.5625 -69.519531 455.398438 -61.328125 449.078125 -54.765625 C 442.765625 -48.210938 435.394531 -42.363281 426.96875 -37.21875 C 418.539062 -32.070312 410.460938 -27.15625 402.734375 -22.46875 C 395.015625 -17.789062 379.21875 -11.707031 355.34375 -4.21875 C 331.46875 3.269531 308.410156 7.015625 286.171875 7.015625 C 263.929688 7.015625 241.457031 4.09375 218.75 -1.75 C 196.039062 -7.601562 172.628906 -17.4375 148.515625 -31.25 C 124.410156 -45.0625 102.757812 -61.914062 83.5625 -81.8125 C 64.375 -101.707031 48.578125 -127.222656 36.171875 -158.359375 C 23.765625 -189.492188 17.5625 -223.316406 17.5625 -259.828125 C 17.5625 -296.347656 23.644531 -329.472656 35.8125 -359.203125 C 47.988281 -388.929688 63.554688 -413.507812 82.515625 -432.9375 C 101.472656 -452.363281 123.125 -468.632812 147.46875 -481.75 C 193.351562 -507.03125 239.46875 -519.671875 285.8125 -519.671875 C 307.820312 -519.671875 330.175781 -516.273438 352.875 -509.484375 C 375.582031 -502.691406 392.789062 -495.785156 404.5 -488.765625 L 421.34375 -478.9375 C 429.769531 -473.78125 436.328125 -469.566406 441.015625 -466.296875 C 453.179688 -456.460938 459.265625 -445.34375 459.265625 -432.9375 C 459.265625 -420.53125 454.351562 -407.539062 444.53125 -393.96875 C 426.269531 -368.6875 409.878906 -356.046875 395.359375 -356.046875 C 386.929688 -356.046875 374.992188 -361.191406 359.546875 -371.484375 C 339.890625 -387.398438 313.675781 -395.359375 280.90625 -395.359375 C 250.46875 -395.359375 220.503906 -384.828125 191.015625 -363.765625 C 176.960938 -353.460938 165.253906 -338.945312 155.890625 -320.21875 C 146.535156 -301.5 141.859375 -280.316406 141.859375 -256.671875 C 141.859375 -233.023438 146.535156 -211.835938 155.890625 -193.109375 C 165.253906 -174.390625 177.195312 -159.644531 191.71875 -148.875 C 220.269531 -128.28125 250 -117.984375 280.90625 -117.984375 C 295.414062 -117.984375 309.109375 -119.851562 321.984375 -123.59375 C 334.859375 -127.34375 344.101562 -131.085938 349.71875 -134.828125 Z M 349.71875 -134.828125 "/></g></g></g><g fill="#5247a7" fill-opacity="1"><g transform="translate(986.658257, 684.668298)"><g><path d="M 61.796875 -515.453125 L 452.25 -515.453125 C 467.226562 -515.453125 478.226562 -513.695312 485.25 -510.1875 C 492.269531 -506.675781 496.953125 -501.175781 499.296875 -493.6875 C 501.640625 -486.195312 502.8125 -476.363281 502.8125 -464.1875 C 502.8125 -452.007812 501.640625 -442.289062 499.296875 -435.03125 C 496.953125 -427.78125 492.972656 -422.753906 487.359375 -419.953125 C 478.929688 -415.734375 466.992188 -413.625 451.546875 -413.625 L 317.421875 -413.625 L 317.421875 -60.390625 C 317.421875 -49.617188 317.066406 -41.660156 316.359375 -36.515625 C 315.660156 -31.367188 313.554688 -25.398438 310.046875 -18.609375 C 306.535156 -11.816406 300.332031 -7.015625 291.4375 -4.203125 C 282.539062 -1.398438 270.832031 0 256.3125 0 C 241.800781 0 230.210938 -1.398438 221.546875 -4.203125 C 212.890625 -7.015625 206.804688 -11.816406 203.296875 -18.609375 C 199.785156 -25.398438 197.675781 -31.484375 196.96875 -36.859375 C 196.269531 -42.242188 195.921875 -50.320312 195.921875 -61.09375 L 195.921875 -413.625 L 61.09375 -413.625 C 46.113281 -413.625 35.113281 -415.378906 28.09375 -418.890625 C 21.070312 -422.398438 16.390625 -427.898438 14.046875 -435.390625 C 11.703125 -442.878906 10.53125 -452.707031 10.53125 -464.875 C 10.53125 -477.050781 11.703125 -486.769531 14.046875 -494.03125 C 16.390625 -501.289062 20.367188 -506.320312 25.984375 -509.125 C 34.410156 -513.34375 46.347656 -515.453125 61.796875 -515.453125 Z M 61.796875 -515.453125 "/></g></g></g></g></g><g clip-path="url(#a2ad20ccfe)"><path fill="#000000" d="M 1157.109375 1182.429688 C 1157.109375 1182.429688 1161.667969 1141.585938 1186.15625 1105.382812 L 1466.539062 1280.949219 Z M 1173.902344 1066.957031 C 1101.53125 1152.382812 1094.328125 1426.898438 1172.757812 1505.382812 L 1500.015625 1286.167969 L 1173.902344 1066.957031 " fill-opacity="1" fill-rule="nonzero"/></g><g clip-path="url(#50ad3dfb87)"><path fill="#000000" d="M 383.269531 1126.304688 C 383.710938 1123.917969 388.320312 1100.824219 402.328125 1086.960938 L 1089.199219 1086.960938 C 1089.199219 1086.960938 1076.125 1099.691406 1068.953125 1126.511719 Z M 1141.476562 1066.957031 L 380.910156 1066.957031 C 367.113281 1080.75 355.535156 1101.382812 346.292969 1126.304688 L 209.144531 1126.304688 C 193.828125 1126.304688 180.773438 1138.21875 180.234375 1153.53125 C 179.667969 1169.597656 192.523438 1182.800781 208.464844 1182.800781 L 458.574219 1182.800781 C 473.894531 1182.800781 486.945312 1194.714844 487.488281 1210.027344 C 488.0625 1226.097656 475.203125 1239.3125 459.253906 1239.3125 L 29.5625 1239.3125 C 14.242188 1239.3125 1.191406 1251.222656 0.648438 1266.539062 C 0.0742188 1282.605469 12.933594 1295.808594 28.882812 1295.808594 L 540.394531 1295.808594 C 556 1295.808594 568.648438 1308.457031 568.648438 1324.066406 C 568.648438 1339.667969 556 1352.320312 540.394531 1352.320312 L 118.671875 1352.320312 C 103.347656 1352.320312 90.300781 1364.230469 89.761719 1379.542969 C 89.195312 1395.613281 102.050781 1408.816406 117.992188 1408.816406 L 438.570312 1408.816406 C 454.175781 1408.816406 466.824219 1421.472656 466.824219 1437.074219 C 466.824219 1452.675781 454.175781 1465.324219 438.570312 1465.324219 L 388.722656 1465.324219 C 370.960938 1465.324219 361.769531 1486.847656 374.3125 1499.421875 C 374.425781 1499.535156 374.53125 1499.648438 374.644531 1499.761719 C 378.339844 1503.417969 383.390625 1505.382812 388.589844 1505.382812 L 1140.3125 1505.382812 C 1061.878906 1426.898438 1069.085938 1152.382812 1141.476562 1066.957031 " fill-opacity="1" fill-rule="nonzero"/></g></svg>