<svg xmlns="http://www.w3.org/2000/svg" xmlns:xlink="http://www.w3.org/1999/xlink" width="2000" zoomAndPan="magnify" viewBox="0 0 1500 1499.999933" height="2000" preserveAspectRatio="xMidYMid meet" version="1.0"><defs><g/><clipPath id="596ec8747a"><rect x="0" width="1438" y="0" height="802"/></clipPath></defs><g transform="matrix(1, 0, 0, 1, 37, 349)"><g clip-path="url(#596ec8747a)"><g fill="#000000" fill-opacity="1"><g transform="translate(5.943982, 644.856115)"><g><path d="M 322.1875 -480.769531 C 329.890625 -493.089844 340.890625 -501.507812 355.191406 -506.023438 C 366.050781 -509.453125 379.066406 -511.167969 394.238281 -511.167969 C 409.238281 -511.167969 421.652344 -509.722656 431.480469 -506.832031 C 442.046875 -503.726562 450.574219 -499.644531 457.066406 -494.597656 C 465.378906 -488.132812 471.171875 -479.167969 474.449219 -467.703125 L 450.179688 -460.769531 L 473.980469 -469.171875 C 477.585938 -458.949219 479.390625 -444.675781 479.390625 -426.34375 L 479.390625 -226.414062 C 479.390625 -162.492188 459.582031 -104.441406 419.964844 -52.265625 C 399.816406 -26.570312 374.148438 -5.929688 342.964844 9.664062 C 311.605469 25.34375 277.058594 33.183594 239.324219 33.183594 C 201.503906 33.183594 166.992188 25.199219 135.796875 9.226562 C 104.753906 -6.667969 79.457031 -27.648438 59.914062 -53.707031 C 20.796875 -104.894531 1.242188 -162.902344 1.242188 -227.738281 L 1.242188 -427.007812 C 1.242188 -438.691406 1.644531 -447.613281 2.445312 -453.773438 C 3.503906 -461.886719 6.519531 -470.605469 11.492188 -479.929688 C 18.253906 -492.609375 29.105469 -501.308594 44.039062 -506.023438 C 54.898438 -509.453125 68.683594 -511.167969 85.402344 -511.167969 C 102.117188 -511.167969 115.90625 -509.453125 126.765625 -506.023438 C 142.203125 -501.148438 153.03125 -492.050781 159.25 -478.726562 L 136.378906 -468.054688 L 158.753906 -479.726562 C 165.960938 -465.917969 169.5625 -448.125 169.5625 -426.34375 L 169.5625 -227.738281 C 169.5625 -205.105469 175.15625 -183.535156 186.339844 -163.027344 C 190.722656 -154.851562 197.414062 -148.210938 206.417969 -143.109375 C 215.796875 -137.792969 227.320312 -135.136719 240.976562 -135.136719 C 253.148438 -135.136719 263.480469 -137.242188 271.976562 -141.449219 C 279.96875 -145.410156 286.691406 -151.476562 292.136719 -159.648438 C 305.199219 -179.242188 311.730469 -202.15625 311.730469 -228.398438 L 311.730469 -430.980469 C 311.730469 -453.019531 315.21875 -469.613281 322.1875 -480.769531 Z M 364.996094 -454.015625 C 364.5 -453.21875 363.984375 -451.371094 363.460938 -448.476562 C 362.628906 -443.902344 362.210938 -438.070312 362.210938 -430.980469 L 362.210938 -228.398438 C 362.210938 -191.96875 352.855469 -159.71875 334.140625 -131.644531 C 323.699219 -115.984375 310.449219 -104.175781 294.386719 -96.21875 C 278.828125 -88.511719 261.027344 -84.65625 240.976562 -84.65625 C 218.445312 -84.65625 198.628906 -89.5 181.53125 -99.191406 C 164.054688 -109.09375 150.882812 -122.316406 142.023438 -138.855469 C 126.730469 -166.898438 119.082031 -196.523438 119.082031 -227.738281 L 119.082031 -426.34375 C 119.082031 -439.875 117.386719 -449.886719 114 -456.378906 L 113.742188 -456.875 L 113.503906 -457.378906 C 113.605469 -457.160156 113.738281 -456.988281 113.898438 -456.859375 C 113.503906 -457.179688 112.726562 -457.519531 111.5625 -457.886719 C 105.652344 -459.753906 96.929688 -460.6875 85.402344 -460.6875 C 73.871094 -460.6875 65.152344 -459.753906 59.238281 -457.886719 C 57.402344 -457.308594 56.332031 -456.738281 56.035156 -456.175781 C 53.945312 -452.257812 52.769531 -449.28125 52.503906 -447.246094 C 51.980469 -443.253906 51.722656 -436.507812 51.722656 -427.007812 L 51.722656 -227.738281 C 51.722656 -174.289062 67.914062 -126.375 100.296875 -83.996094 C 115.175781 -64.15625 134.679688 -48.058594 158.804688 -35.707031 C 182.777344 -23.433594 209.617188 -17.296875 239.324219 -17.296875 C 269.113281 -17.296875 296.136719 -23.359375 320.386719 -35.484375 C 344.8125 -47.695312 364.601562 -63.464844 379.761719 -82.789062 C 412.527344 -125.945312 428.910156 -173.820312 428.910156 -226.414062 L 428.910156 -426.34375 C 428.910156 -438.910156 428.066406 -447.585938 426.378906 -452.371094 L 426.121094 -453.097656 L 425.910156 -453.835938 C 425.667969 -454.679688 425.445312 -455.265625 425.242188 -455.597656 C 425.398438 -455.34375 425.675781 -455.0625 426.078125 -454.75 C 424.625 -455.878906 421.679688 -457.097656 417.238281 -458.402344 C 412.058594 -459.925781 404.394531 -460.6875 394.238281 -460.6875 C 384.253906 -460.6875 376.304688 -459.753906 370.390625 -457.886719 C 367.921875 -457.105469 366.121094 -455.816406 364.996094 -454.015625 Z M 364.996094 -454.015625 "/></g></g></g><g fill="#000000" fill-opacity="1"><g transform="translate(486.575614, 644.856115)"><g><path d="M 314.910156 -147.570312 L 327.789062 -156.871094 L 328.808594 -157.46875 C 347.765625 -168.621094 362.621094 -174.195312 373.382812 -174.195312 C 396.25 -174.195312 418.113281 -157.972656 438.96875 -125.53125 C 451.351562 -105.832031 457.542969 -88.925781 457.542969 -74.808594 C 457.542969 -58.75 452.207031 -45.1875 441.535156 -34.117188 C 434.078125 -26.386719 425.460938 -19.53125 415.675781 -13.550781 L 392.796875 0.375 C 383.746094 5.859375 366.992188 12.4375 342.542969 20.109375 C 317.574219 27.945312 293.316406 31.859375 269.777344 31.859375 C 246.679688 31.859375 223.394531 28.835938 199.921875 22.785156 C 176.320312 16.703125 152.171875 6.589844 127.472656 -7.558594 C 102.664062 -21.769531 80.375 -39.117188 60.617188 -59.601562 C 40.222656 -80.742188 23.566406 -107.519531 10.648438 -139.945312 C -2.242188 -172.292969 -8.6875 -207.296875 -8.6875 -244.949219 C -8.6875 -282.6875 -2.324219 -317.101562 10.40625 -348.191406 C 23.121094 -379.25 39.5625 -405.109375 59.726562 -425.769531 C 79.398438 -445.925781 101.84375 -462.796875 127.058594 -476.375 C 173.960938 -502.21875 221.421875 -515.140625 269.445312 -515.140625 C 292.648438 -515.140625 316.132812 -511.585938 339.898438 -504.484375 C 363.328125 -497.476562 381.46875 -490.121094 394.3125 -482.414062 L 409.933594 -473.304688 C 418.621094 -468 425.386719 -463.652344 430.226562 -460.261719 L 430.9375 -459.765625 L 431.613281 -459.222656 C 449.339844 -444.902344 458.207031 -427.875 458.207031 -408.140625 C 458.207031 -390.992188 451.972656 -373.808594 439.507812 -356.59375 C 417.269531 -325.804688 395.007812 -310.40625 372.722656 -310.40625 C 359.683594 -310.40625 343.761719 -316.675781 324.957031 -329.210938 L 323.984375 -329.859375 L 323.078125 -330.59375 C 309.171875 -341.851562 289.75 -347.480469 264.8125 -347.480469 C 241.515625 -347.480469 218.160156 -339.117188 194.742188 -322.390625 C 184.953125 -315.210938 176.554688 -304.613281 169.546875 -290.597656 C 162.496094 -276.496094 158.96875 -260.285156 158.96875 -241.972656 C 158.96875 -223.65625 162.496094 -207.445312 169.546875 -193.34375 C 176.574219 -179.285156 185.316406 -168.375 195.773438 -160.621094 C 218.105469 -144.511719 241.117188 -136.460938 264.8125 -136.460938 C 276.09375 -136.460938 286.65625 -137.890625 296.488281 -140.753906 C 306.144531 -143.5625 312.542969 -146.011719 315.6875 -148.109375 L 329.691406 -127.109375 Z M 344.46875 -106.648438 L 344.082031 -106.371094 L 343.691406 -106.109375 C 336.242188 -101.144531 325.210938 -96.535156 310.589844 -92.28125 C 296.148438 -88.082031 280.890625 -85.980469 264.8125 -85.980469 C 230.246094 -85.980469 197.207031 -97.347656 165.695312 -120.078125 C 148.785156 -132.625 135.019531 -149.523438 124.394531 -170.769531 C 113.792969 -191.976562 108.488281 -215.710938 108.488281 -241.972656 C 108.488281 -268.230469 113.792969 -291.964844 124.394531 -313.171875 C 135.042969 -334.464844 148.710938 -351.230469 165.402344 -363.46875 C 197.59375 -386.464844 230.730469 -397.960938 264.8125 -397.960938 C 301.664062 -397.960938 331.671875 -388.585938 354.839844 -369.828125 L 338.957031 -350.210938 L 352.957031 -371.214844 C 358.972656 -367.203125 364.09375 -364.289062 368.320312 -362.464844 C 369.898438 -361.785156 371.234375 -361.304688 372.332031 -361.027344 C 372.628906 -360.953125 372.871094 -360.902344 373.046875 -360.878906 C 372.996094 -360.882812 372.886719 -360.886719 372.722656 -360.886719 L 372.726562 -360.902344 C 373 -360.960938 373.34375 -361.074219 373.757812 -361.242188 C 375.292969 -361.871094 377.089844 -362.980469 379.152344 -364.570312 C 384.941406 -369.035156 391.429688 -376.246094 398.621094 -386.199219 C 404.691406 -394.582031 407.726562 -401.898438 407.726562 -408.140625 C 407.726562 -411.796875 405.117188 -415.734375 399.894531 -419.949219 L 415.753906 -439.585938 L 401.277344 -418.910156 C 397.292969 -421.699219 391.699219 -425.296875 384.5 -429.699219 L 368.34375 -439.128906 C 359.121094 -444.660156 344.820312 -450.324219 325.4375 -456.117188 C 306.390625 -461.8125 287.726562 -464.660156 269.445312 -464.660156 C 230.082031 -464.660156 190.597656 -453.75 150.992188 -431.929688 C 130.308594 -420.789062 111.929688 -406.984375 95.851562 -390.511719 C 80.265625 -374.539062 67.355469 -354.058594 57.121094 -329.0625 C 46.902344 -304.101562 41.789062 -276.0625 41.789062 -244.949219 C 41.789062 -213.753906 47.039062 -184.980469 57.542969 -158.628906 C 68.011719 -132.355469 81.148438 -111.027344 96.945312 -94.648438 C 113.375 -77.617188 131.914062 -63.1875 152.5625 -51.363281 C 173.324219 -39.46875 193.3125 -31.046875 212.519531 -26.097656 C 231.859375 -21.113281 250.945312 -18.621094 269.777344 -18.621094 C 288.164062 -18.621094 307.382812 -21.765625 327.429688 -28.054688 C 347.996094 -34.507812 361.035156 -39.402344 366.550781 -42.746094 L 389.351562 -56.625 C 395.453125 -60.355469 400.738281 -64.53125 405.199219 -69.15625 C 406.441406 -70.449219 407.0625 -72.332031 407.0625 -74.808594 C 407.0625 -76.257812 406.433594 -78.585938 405.171875 -81.800781 C 403.320312 -86.511719 400.433594 -91.988281 396.507812 -98.234375 C 389.953125 -108.429688 383.96875 -115.792969 378.546875 -120.320312 C 376.714844 -121.855469 375.132812 -122.910156 373.800781 -123.488281 C 373.507812 -123.613281 373.277344 -123.695312 373.109375 -123.734375 C 373.164062 -123.722656 373.253906 -123.714844 373.382812 -123.714844 C 373.878906 -123.714844 374.296875 -123.742188 374.640625 -123.792969 C 374.621094 -123.792969 374.523438 -123.765625 374.34375 -123.71875 C 373.367188 -123.460938 372.089844 -123.003906 370.511719 -122.347656 C 366.28125 -120.585938 360.910156 -117.789062 354.402344 -113.960938 L 341.605469 -135.714844 L 356.382812 -115.253906 Z M 344.46875 -106.648438 "/></g></g></g><g fill="#000000" fill-opacity="1"><g transform="translate(936.097509, 644.856115)"><g><path d="M 58.257812 -511.167969 L 426.34375 -511.167969 C 444.441406 -511.167969 458.574219 -508.625 468.75 -503.539062 C 481.769531 -497.027344 490.449219 -486.824219 494.792969 -472.933594 C 497.765625 -463.421875 499.25 -451.644531 499.25 -437.601562 C 499.25 -423.476562 497.742188 -411.738281 494.722656 -402.378906 C 490.347656 -388.8125 482.351562 -379.125 470.734375 -373.316406 C 459.238281 -367.570312 444.21875 -364.695312 425.683594 -364.695312 L 299.238281 -364.695312 L 299.238281 -389.933594 L 324.476562 -389.933594 L 324.476562 -56.933594 C 324.476562 -45.640625 324.066406 -37 323.25 -31.015625 C 322.199219 -23.28125 319.347656 -14.925781 314.703125 -5.949219 C 308.179688 6.660156 297.394531 15.34375 282.34375 20.097656 C 271.484375 23.523438 257.914062 25.238281 241.640625 25.238281 C 225.296875 25.238281 211.777344 23.503906 201.082031 20.035156 C 186.339844 15.253906 175.726562 6.59375 169.238281 -5.949219 C 164.570312 -14.972656 161.714844 -23.488281 160.671875 -31.492188 C 159.867188 -37.652344 159.464844 -46.351562 159.464844 -57.597656 L 159.464844 -389.933594 L 184.707031 -389.933594 L 184.707031 -364.695312 L 57.597656 -364.695312 C 39.5 -364.695312 25.367188 -367.238281 15.195312 -372.324219 C 2.171875 -378.835938 -6.507812 -389.035156 -10.851562 -402.929688 C -13.824219 -412.441406 -15.308594 -424.21875 -15.308594 -438.261719 C -15.308594 -452.382812 -13.800781 -464.125 -10.78125 -473.484375 C -6.40625 -487.050781 1.589844 -496.738281 13.207031 -502.546875 C 24.703125 -508.292969 39.722656 -511.167969 58.257812 -511.167969 Z M 58.257812 -460.6875 C 47.664062 -460.6875 40.175781 -459.589844 35.78125 -457.394531 C 36.484375 -457.746094 37.058594 -458.203125 37.507812 -458.769531 C 37.585938 -458.867188 37.625 -458.921875 37.628906 -458.929688 C 37.515625 -458.703125 37.390625 -458.390625 37.261719 -457.988281 C 35.867188 -453.664062 35.171875 -447.089844 35.171875 -438.261719 C 35.171875 -429.355469 35.890625 -422.597656 37.332031 -417.984375 C 37.402344 -417.753906 37.550781 -417.585938 37.769531 -417.472656 C 40.835938 -415.941406 47.445312 -415.175781 57.597656 -415.175781 L 209.945312 -415.175781 L 209.945312 -57.597656 C 209.945312 -48.539062 210.207031 -42.011719 210.726562 -38.019531 C 211.007812 -35.875 212.121094 -32.914062 214.074219 -29.140625 L 214.070312 -29.171875 C 214.574219 -28.773438 215.4375 -28.375 216.65625 -27.980469 C 222.289062 -26.152344 230.617188 -25.238281 241.640625 -25.238281 C 252.726562 -25.238281 261.226562 -26.171875 267.140625 -28.039062 C 268.476562 -28.460938 269.417969 -28.886719 269.972656 -29.316406 C 269.957031 -29.300781 269.921875 -29.242188 269.867188 -29.140625 C 271.84375 -32.960938 272.964844 -35.859375 273.234375 -37.835938 C 273.742188 -41.558594 273.996094 -47.925781 273.996094 -56.933594 L 273.996094 -415.175781 L 425.683594 -415.175781 C 436.277344 -415.175781 443.769531 -416.273438 448.160156 -418.46875 C 447.457031 -418.117188 446.882812 -417.65625 446.433594 -417.089844 C 446.355469 -416.992188 446.316406 -416.941406 446.3125 -416.933594 C 446.425781 -417.15625 446.550781 -417.472656 446.679688 -417.875 C 448.074219 -422.195312 448.773438 -428.773438 448.773438 -437.601562 C 448.773438 -446.507812 448.050781 -453.265625 446.609375 -457.875 C 446.539062 -458.109375 446.390625 -458.277344 446.171875 -458.386719 C 443.105469 -459.921875 436.496094 -460.6875 426.34375 -460.6875 Z M 58.257812 -460.6875 "/></g></g></g><g fill="#f97c2b" fill-opacity="1"><g transform="translate(5.943982, 644.856115)"><g><path d="M 343.59375 -467.390625 C 348.007812 -474.453125 354.410156 -479.304688 362.796875 -481.953125 C 371.179688 -484.609375 381.660156 -485.9375 394.234375 -485.9375 C 406.816406 -485.9375 416.859375 -484.832031 424.359375 -482.625 C 431.859375 -480.414062 437.59375 -477.765625 441.5625 -474.671875 C 445.539062 -471.585938 448.414062 -466.957031 450.1875 -460.78125 C 452.832031 -453.269531 454.15625 -441.789062 454.15625 -426.34375 L 454.15625 -226.421875 C 454.15625 -168.160156 436.054688 -115.195312 399.859375 -67.53125 C 382.210938 -45.019531 359.484375 -26.8125 331.671875 -12.90625 C 303.867188 0.988281 273.082031 7.9375 239.3125 7.9375 C 205.550781 7.9375 174.878906 0.878906 147.296875 -13.234375 C 119.710938 -27.359375 97.316406 -45.894531 80.109375 -68.84375 C 44.359375 -115.632812 26.484375 -168.597656 26.484375 -227.734375 L 26.484375 -427.015625 C 26.484375 -437.609375 26.8125 -445.441406 27.46875 -450.515625 C 28.132812 -455.585938 30.234375 -461.429688 33.765625 -468.046875 C 37.296875 -474.671875 43.253906 -479.304688 51.640625 -481.953125 C 60.023438 -484.609375 71.28125 -485.9375 85.40625 -485.9375 C 99.53125 -485.9375 110.785156 -484.609375 119.171875 -481.953125 C 127.554688 -479.304688 133.289062 -474.675781 136.375 -468.0625 C 141.675781 -457.90625 144.328125 -444 144.328125 -426.34375 L 144.328125 -227.734375 C 144.328125 -200.816406 150.945312 -175.21875 164.1875 -150.9375 C 170.800781 -138.582031 180.726562 -128.648438 193.96875 -121.140625 C 207.21875 -113.640625 222.890625 -109.890625 240.984375 -109.890625 C 273.203125 -109.890625 297.253906 -121.804688 313.140625 -145.640625 C 329.023438 -169.472656 336.96875 -197.0625 336.96875 -228.40625 L 336.96875 -430.984375 C 336.96875 -448.191406 339.175781 -460.328125 343.59375 -467.390625 Z M 343.59375 -467.390625 "/></g></g></g><g fill="#0085cd" fill-opacity="1"><g transform="translate(486.575614, 644.856115)"><g><path d="M 329.6875 -127.109375 L 341.609375 -135.71875 C 356.609375 -144.539062 367.203125 -148.953125 373.390625 -148.953125 C 387.066406 -148.953125 401.847656 -136.597656 417.734375 -111.890625 C 427.453125 -96.441406 432.3125 -84.082031 432.3125 -74.8125 C 432.3125 -65.539062 429.332031 -57.816406 423.375 -51.640625 C 417.414062 -45.460938 410.460938 -39.945312 402.515625 -35.09375 C 394.566406 -30.238281 386.953125 -25.601562 379.671875 -21.1875 C 372.390625 -16.769531 357.492188 -11.03125 334.984375 -3.96875 C 312.472656 3.09375 290.734375 6.625 269.765625 6.625 C 248.804688 6.625 227.625 3.863281 206.21875 -1.65625 C 184.8125 -7.175781 162.742188 -16.441406 140.015625 -29.453125 C 117.285156 -42.472656 96.875 -58.363281 78.78125 -77.125 C 60.6875 -95.882812 45.789062 -119.9375 34.09375 -149.28125 C 22.394531 -178.632812 16.546875 -210.523438 16.546875 -244.953125 C 16.546875 -279.378906 22.28125 -310.601562 33.75 -338.625 C 45.226562 -366.65625 59.90625 -389.828125 77.78125 -408.140625 C 95.65625 -426.453125 116.070312 -441.789062 139.03125 -454.15625 C 182.28125 -477.988281 225.753906 -489.90625 269.453125 -489.90625 C 290.191406 -489.90625 311.265625 -486.703125 332.671875 -480.296875 C 354.078125 -473.898438 370.296875 -467.394531 381.328125 -460.78125 L 397.21875 -451.5 C 405.164062 -446.644531 411.34375 -442.675781 415.75 -439.59375 C 427.226562 -430.320312 432.96875 -419.835938 432.96875 -408.140625 C 432.96875 -396.441406 428.332031 -384.195312 419.0625 -371.40625 C 401.851562 -347.570312 386.40625 -335.65625 372.71875 -335.65625 C 364.78125 -335.65625 353.523438 -340.507812 338.953125 -350.21875 C 320.421875 -365.21875 295.707031 -372.71875 264.8125 -372.71875 C 236.125 -372.71875 207.878906 -362.789062 180.078125 -342.9375 C 166.835938 -333.226562 155.800781 -319.546875 146.96875 -301.890625 C 138.144531 -284.234375 133.734375 -264.257812 133.734375 -241.96875 C 133.734375 -219.6875 138.144531 -199.71875 146.96875 -182.0625 C 155.800781 -164.40625 167.054688 -150.5 180.734375 -140.34375 C 207.660156 -120.925781 235.6875 -111.21875 264.8125 -111.21875 C 278.488281 -111.21875 291.394531 -112.984375 303.53125 -116.515625 C 315.675781 -120.046875 324.394531 -123.578125 329.6875 -127.109375 Z M 329.6875 -127.109375 "/></g></g></g><g fill="#5247a7" fill-opacity="1"><g transform="translate(936.097509, 644.856115)"><g><path d="M 58.265625 -485.9375 L 426.34375 -485.9375 C 440.46875 -485.9375 450.835938 -484.28125 457.453125 -480.96875 C 464.078125 -477.65625 468.492188 -472.46875 470.703125 -465.40625 C 472.910156 -458.34375 474.015625 -449.070312 474.015625 -437.59375 C 474.015625 -426.125 472.910156 -416.96875 470.703125 -410.125 C 468.492188 -403.28125 464.742188 -398.535156 459.453125 -395.890625 C 451.503906 -391.921875 440.25 -389.9375 425.6875 -389.9375 L 299.234375 -389.9375 L 299.234375 -56.9375 C 299.234375 -46.78125 298.898438 -39.273438 298.234375 -34.421875 C 297.578125 -29.566406 295.59375 -23.9375 292.28125 -17.53125 C 288.976562 -11.132812 283.132812 -6.613281 274.75 -3.96875 C 266.363281 -1.320312 255.328125 0 241.640625 0 C 227.960938 0 217.039062 -1.320312 208.875 -3.96875 C 200.707031 -6.613281 194.96875 -11.132812 191.65625 -17.53125 C 188.34375 -23.9375 186.351562 -29.675781 185.6875 -34.75 C 185.03125 -39.832031 184.703125 -47.445312 184.703125 -57.59375 L 184.703125 -389.9375 L 57.59375 -389.9375 C 43.46875 -389.9375 33.09375 -391.585938 26.46875 -394.890625 C 19.851562 -398.203125 15.441406 -403.390625 13.234375 -410.453125 C 11.035156 -417.515625 9.9375 -426.785156 9.9375 -438.265625 C 9.9375 -449.742188 11.035156 -458.898438 13.234375 -465.734375 C 15.441406 -472.578125 19.195312 -477.320312 24.5 -479.96875 C 32.4375 -483.945312 43.691406 -485.9375 58.265625 -485.9375 Z M 58.265625 -485.9375 "/></g></g></g></g></g><path stroke-linecap="butt" transform="matrix(0.75, 0.000000000000000021, -0.000000000000000021, 0.75, 0.00003335, -0.00002)" fill="none" stroke-linejoin="miter" d="M -0.0000444667 50.000031 L 2000.000128 50.000031 " stroke="#000000" stroke-width="100" stroke-opacity="1" stroke-miterlimit="4"/><path stroke-linecap="butt" transform="matrix(0.75, 0, 0, 0.75, 0.00003335, 1424.999857)" fill="none" stroke-linejoin="miter" d="M -0.0000444667 50.000195 L 2000.000128 50.000195 " stroke="#000000" stroke-width="100" stroke-opacity="1" stroke-miterlimit="4"/></svg>