<svg xmlns="http://www.w3.org/2000/svg" xmlns:xlink="http://www.w3.org/1999/xlink" width="2000" zoomAndPan="magnify" viewBox="0 0 1500 1499.999933" height="2000" preserveAspectRatio="xMidYMid meet" version="1.0"><defs><g/><clipPath id="c7d98384ee"><rect x="0" width="1307" y="0" height="730"/></clipPath></defs><g transform="matrix(1, 0, 0, 1, 102, 385)"><g clip-path="url(#c7d98384ee)"><g fill="#000000" fill-opacity="1"><g transform="translate(5.381325, 586.630973)"><g><path d="M 292.828125 -436.953125 C 299.824219 -448.152344 309.824219 -455.804688 322.820312 -459.90625 C 332.691406 -463.023438 344.519531 -464.582031 358.308594 -464.582031 C 371.941406 -464.582031 383.226562 -463.269531 392.160156 -460.640625 C 401.761719 -457.816406 409.511719 -454.109375 415.414062 -449.523438 C 422.964844 -443.648438 428.230469 -435.5 431.207031 -425.082031 L 409.152344 -418.777344 L 430.785156 -426.414062 C 434.0625 -417.125 435.703125 -404.148438 435.703125 -387.492188 L 435.703125 -205.777344 C 435.703125 -147.683594 417.699219 -94.921875 381.691406 -47.5 C 363.378906 -24.148438 340.050781 -5.386719 311.707031 8.785156 C 283.207031 23.035156 251.808594 30.160156 217.511719 30.160156 C 183.136719 30.160156 151.773438 22.902344 123.421875 8.386719 C 95.207031 -6.0625 72.21875 -25.128906 54.453125 -48.8125 C 18.902344 -95.332031 1.128906 -148.058594 1.128906 -206.984375 L 1.128906 -388.09375 C 1.128906 -398.710938 1.492188 -406.820312 2.222656 -412.417969 C 3.183594 -419.792969 5.925781 -427.71875 10.445312 -436.191406 C 16.589844 -447.714844 26.453125 -455.621094 40.023438 -459.90625 C 49.894531 -463.023438 62.425781 -464.582031 77.617188 -464.582031 C 92.8125 -464.582031 105.34375 -463.023438 115.210938 -459.90625 C 129.246094 -455.476562 139.085938 -447.207031 144.738281 -435.097656 L 123.949219 -425.398438 L 144.285156 -436.007812 C 150.835938 -423.457031 154.109375 -407.285156 154.109375 -387.492188 L 154.109375 -206.984375 C 154.109375 -186.414062 159.191406 -166.808594 169.359375 -148.171875 C 173.339844 -140.738281 179.421875 -134.703125 187.605469 -130.066406 C 196.132812 -125.238281 206.601562 -122.820312 219.015625 -122.820312 C 230.078125 -122.820312 239.46875 -124.734375 247.191406 -128.558594 C 254.457031 -132.160156 260.5625 -137.671875 265.515625 -145.097656 C 277.386719 -162.90625 283.324219 -183.734375 283.324219 -207.585938 L 283.324219 -391.703125 C 283.324219 -411.734375 286.492188 -426.816406 292.828125 -436.953125 Z M 331.730469 -412.636719 C 331.28125 -411.914062 330.8125 -410.238281 330.335938 -407.605469 C 329.578125 -403.445312 329.203125 -398.144531 329.203125 -391.703125 L 329.203125 -207.585938 C 329.203125 -174.472656 320.695312 -145.160156 303.6875 -119.648438 C 294.199219 -105.414062 282.15625 -94.679688 267.558594 -87.449219 C 253.417969 -80.445312 237.238281 -76.941406 219.015625 -76.941406 C 198.539062 -76.941406 180.527344 -81.34375 164.988281 -90.152344 C 149.101562 -99.152344 137.132812 -111.167969 129.082031 -126.203125 C 115.179688 -151.6875 108.230469 -178.613281 108.230469 -206.984375 L 108.230469 -387.492188 C 108.230469 -399.785156 106.691406 -408.882812 103.609375 -414.785156 L 103.375 -415.238281 L 103.160156 -415.695312 C 103.253906 -415.5 103.371094 -415.339844 103.519531 -415.222656 C 103.160156 -415.511719 102.453125 -415.824219 101.398438 -416.15625 C 96.023438 -417.855469 88.097656 -418.703125 77.617188 -418.703125 C 67.140625 -418.703125 59.214844 -417.855469 53.839844 -416.15625 C 52.171875 -415.628906 51.199219 -415.113281 50.925781 -414.601562 C 49.027344 -411.042969 47.957031 -408.335938 47.71875 -406.484375 C 47.242188 -402.855469 47.007812 -396.726562 47.007812 -388.09375 L 47.007812 -206.984375 C 47.007812 -158.40625 61.722656 -114.859375 91.15625 -76.339844 C 104.679688 -58.308594 122.40625 -43.679688 144.332031 -32.453125 C 166.121094 -21.296875 190.511719 -15.71875 217.511719 -15.71875 C 244.589844 -15.71875 269.148438 -21.230469 291.191406 -32.25 C 313.386719 -43.351562 331.375 -57.679688 345.152344 -75.246094 C 374.933594 -114.464844 389.820312 -157.976562 389.820312 -205.777344 L 389.820312 -387.492188 C 389.820312 -398.910156 389.054688 -406.796875 387.519531 -411.144531 L 387.285156 -411.804688 L 387.09375 -412.476562 C 386.875 -413.242188 386.671875 -413.773438 386.488281 -414.074219 C 386.628906 -413.84375 386.882812 -413.589844 387.246094 -413.308594 C 385.925781 -414.332031 383.25 -415.441406 379.210938 -416.628906 C 374.507812 -418.011719 367.539062 -418.703125 358.308594 -418.703125 C 349.234375 -418.703125 342.007812 -417.855469 336.636719 -416.15625 C 334.390625 -415.449219 332.753906 -414.277344 331.730469 -412.636719 Z M 331.730469 -412.636719 "/></g></g></g><g fill="#000000" fill-opacity="1"><g transform="translate(442.210691, 586.630973)"><g><path d="M 286.210938 -134.121094 L 297.914062 -142.574219 L 298.84375 -143.121094 C 316.070312 -153.253906 329.574219 -158.320312 339.355469 -158.320312 C 360.140625 -158.320312 380.007812 -143.578125 398.964844 -114.089844 C 410.21875 -96.1875 415.84375 -80.824219 415.84375 -67.992188 C 415.84375 -53.394531 410.996094 -41.066406 401.296875 -31.007812 C 394.519531 -23.980469 386.683594 -17.75 377.792969 -12.316406 L 357 0.339844 C 348.773438 5.328125 333.546875 11.304688 311.324219 18.277344 C 288.632812 25.398438 266.585938 28.957031 245.191406 28.957031 C 224.199219 28.957031 203.035156 26.207031 181.703125 20.710938 C 160.25 15.179688 138.304688 5.988281 115.855469 -6.871094 C 93.304688 -19.785156 73.050781 -35.554688 55.09375 -54.171875 C 36.558594 -73.382812 21.421875 -97.722656 9.675781 -127.191406 C -2.039062 -156.589844 -7.898438 -188.402344 -7.898438 -222.625 C -7.898438 -256.925781 -2.113281 -288.203125 9.457031 -316.457031 C 21.015625 -344.6875 35.957031 -368.1875 54.28125 -386.964844 C 72.160156 -405.289062 92.5625 -420.617188 115.480469 -432.960938 C 158.105469 -456.449219 201.242188 -468.191406 244.890625 -468.191406 C 265.980469 -468.191406 287.324219 -464.964844 308.921875 -458.507812 C 330.21875 -452.140625 346.703125 -445.453125 358.378906 -438.449219 L 372.574219 -430.167969 C 380.46875 -425.347656 386.617188 -421.398438 391.019531 -418.316406 L 391.664062 -417.867188 L 392.277344 -417.371094 C 408.390625 -404.355469 416.445312 -388.878906 416.445312 -370.945312 C 416.445312 -355.359375 410.78125 -339.742188 399.453125 -324.097656 C 379.242188 -296.109375 359.007812 -282.117188 338.753906 -282.117188 C 326.902344 -282.117188 312.433594 -287.816406 295.34375 -299.210938 L 294.457031 -299.796875 L 293.632812 -300.464844 C 280.996094 -310.699219 263.34375 -315.8125 240.675781 -315.8125 C 219.503906 -315.8125 198.277344 -308.210938 176.992188 -293.011719 C 168.097656 -286.484375 160.464844 -276.851562 154.09375 -264.113281 C 147.6875 -251.296875 144.480469 -236.566406 144.480469 -219.917969 C 144.480469 -203.273438 147.6875 -188.539062 154.09375 -175.726562 C 160.484375 -162.945312 168.429688 -153.03125 177.929688 -145.980469 C 198.226562 -131.34375 219.144531 -124.023438 240.675781 -124.023438 C 250.933594 -124.023438 260.53125 -125.324219 269.46875 -127.925781 C 278.242188 -130.476562 284.058594 -132.707031 286.917969 -134.613281 L 299.644531 -115.523438 Z M 313.074219 -96.929688 L 312.726562 -96.675781 L 312.367188 -96.4375 C 305.597656 -91.925781 295.570312 -87.738281 282.285156 -83.871094 C 269.160156 -80.054688 255.292969 -78.144531 240.675781 -78.144531 C 209.261719 -78.144531 179.234375 -88.476562 150.59375 -109.136719 C 135.226562 -120.539062 122.714844 -135.894531 113.058594 -155.207031 C 103.421875 -174.480469 98.601562 -196.050781 98.601562 -219.917969 C 98.601562 -243.785156 103.421875 -265.355469 113.058594 -284.632812 C 122.734375 -303.984375 135.15625 -319.222656 150.328125 -330.34375 C 179.585938 -351.242188 209.703125 -361.691406 240.675781 -361.691406 C 274.171875 -361.691406 301.445312 -353.171875 322.5 -336.125 L 308.066406 -318.296875 L 320.792969 -337.382812 C 326.257812 -333.738281 330.910156 -331.089844 334.753906 -329.429688 C 336.1875 -328.8125 337.402344 -328.378906 338.398438 -328.125 C 338.671875 -328.054688 338.886719 -328.011719 339.050781 -327.988281 C 339.003906 -327.996094 338.902344 -328 338.753906 -328 L 338.757812 -328.011719 C 339.007812 -328.066406 339.320312 -328.167969 339.695312 -328.320312 C 341.089844 -328.890625 342.726562 -329.898438 344.597656 -331.34375 C 349.859375 -335.402344 355.757812 -341.957031 362.292969 -351.003906 C 367.808594 -358.625 370.566406 -365.269531 370.566406 -370.945312 C 370.566406 -374.269531 368.195312 -377.847656 363.449219 -381.679688 L 377.863281 -399.523438 L 364.707031 -380.730469 C 361.085938 -383.265625 356.003906 -386.535156 349.457031 -390.539062 L 334.773438 -399.109375 C 326.390625 -404.136719 313.394531 -409.285156 295.78125 -414.550781 C 278.46875 -419.726562 261.503906 -422.3125 244.890625 -422.3125 C 209.113281 -422.3125 173.226562 -412.398438 137.230469 -392.5625 C 118.433594 -382.441406 101.726562 -369.894531 87.117188 -354.921875 C 72.949219 -340.40625 61.214844 -321.789062 51.914062 -299.074219 C 42.625 -276.386719 37.980469 -250.90625 37.980469 -222.625 C 37.980469 -194.273438 42.753906 -168.121094 52.296875 -144.171875 C 61.8125 -120.292969 73.753906 -100.910156 88.109375 -86.023438 C 103.042969 -70.546875 119.894531 -57.429688 138.660156 -46.679688 C 157.53125 -35.871094 175.695312 -28.21875 193.152344 -23.71875 C 210.730469 -19.1875 228.074219 -16.921875 245.191406 -16.921875 C 261.902344 -16.921875 279.367188 -19.78125 297.589844 -25.496094 C 316.28125 -31.363281 328.132812 -35.8125 333.144531 -38.847656 L 353.867188 -51.464844 C 359.414062 -54.855469 364.214844 -58.652344 368.269531 -62.855469 C 369.402344 -64.027344 369.964844 -65.738281 369.964844 -67.992188 C 369.964844 -69.308594 369.394531 -71.425781 368.246094 -74.34375 C 366.5625 -78.628906 363.9375 -83.605469 360.371094 -89.28125 C 354.414062 -98.546875 348.972656 -105.238281 344.046875 -109.355469 C 342.382812 -110.75 340.945312 -111.707031 339.734375 -112.234375 C 339.464844 -112.347656 339.257812 -112.425781 339.109375 -112.457031 C 339.15625 -112.445312 339.238281 -112.441406 339.355469 -112.441406 C 339.804688 -112.441406 340.1875 -112.464844 340.496094 -112.511719 C 340.480469 -112.507812 340.390625 -112.488281 340.230469 -112.445312 C 339.34375 -112.210938 338.179688 -111.796875 336.746094 -111.199219 C 332.902344 -109.59375 328.019531 -107.054688 322.105469 -103.574219 L 310.472656 -123.347656 L 323.90625 -104.75 Z M 313.074219 -96.929688 "/></g></g></g><g fill="#000000" fill-opacity="1"><g transform="translate(850.765499, 586.630973)"><g><path d="M 52.949219 -464.582031 L 387.492188 -464.582031 C 403.9375 -464.582031 416.78125 -462.269531 426.027344 -457.648438 C 437.863281 -451.730469 445.753906 -442.460938 449.699219 -429.832031 C 452.402344 -421.1875 453.753906 -410.484375 453.753906 -397.71875 C 453.753906 -384.882812 452.378906 -374.214844 449.636719 -365.707031 C 445.660156 -353.378906 438.390625 -344.574219 427.835938 -339.296875 C 417.386719 -334.070312 403.738281 -331.457031 386.890625 -331.457031 L 271.964844 -331.457031 L 271.964844 -354.398438 L 294.90625 -354.398438 L 294.90625 -51.746094 C 294.90625 -41.480469 294.535156 -33.628906 293.792969 -28.1875 C 292.832031 -21.160156 290.246094 -13.566406 286.023438 -5.40625 C 280.09375 6.054688 270.292969 13.945312 256.609375 18.265625 C 246.742188 21.382812 234.410156 22.941406 219.617188 22.941406 C 204.765625 22.941406 192.476562 21.363281 182.757812 18.210938 C 169.359375 13.863281 159.710938 5.992188 153.816406 -5.40625 C 149.574219 -13.609375 146.976562 -21.347656 146.027344 -28.621094 C 145.296875 -34.21875 144.933594 -42.128906 144.933594 -52.347656 L 144.933594 -354.398438 L 167.871094 -354.398438 L 167.871094 -331.457031 L 52.347656 -331.457031 C 35.902344 -331.457031 23.054688 -333.769531 13.808594 -338.390625 C 1.972656 -344.308594 -5.914062 -353.582031 -9.863281 -366.207031 C -12.5625 -374.851562 -13.914062 -385.558594 -13.914062 -398.320312 C -13.914062 -411.15625 -12.542969 -421.828125 -9.796875 -430.332031 C -5.820312 -442.664062 1.445312 -451.46875 12.003906 -456.746094 C 22.453125 -461.96875 36.101562 -464.582031 52.949219 -464.582031 Z M 52.949219 -418.703125 C 43.320312 -418.703125 36.511719 -417.707031 32.523438 -415.710938 C 33.160156 -416.027344 33.683594 -416.445312 34.089844 -416.960938 C 34.160156 -417.050781 34.199219 -417.097656 34.203125 -417.105469 C 34.09375 -416.898438 33.984375 -416.613281 33.867188 -416.25 C 32.597656 -412.320312 31.964844 -406.34375 31.964844 -398.320312 C 31.964844 -390.226562 32.621094 -384.082031 33.929688 -379.890625 C 33.996094 -379.683594 34.128906 -379.527344 34.328125 -379.429688 C 37.113281 -378.035156 43.121094 -377.335938 52.347656 -377.335938 L 190.8125 -377.335938 L 190.8125 -52.347656 C 190.8125 -44.113281 191.046875 -38.183594 191.523438 -34.554688 C 191.777344 -32.605469 192.789062 -29.914062 194.566406 -26.484375 L 194.5625 -26.511719 C 195.019531 -26.152344 195.804688 -25.789062 196.910156 -25.429688 C 202.03125 -23.769531 209.601562 -22.941406 219.617188 -22.941406 C 229.695312 -22.941406 237.421875 -23.789062 242.796875 -25.484375 C 244.007812 -25.867188 244.867188 -26.253906 245.367188 -26.644531 C 245.351562 -26.632812 245.320312 -26.578125 245.273438 -26.484375 C 247.066406 -29.957031 248.089844 -32.589844 248.332031 -34.386719 C 248.796875 -37.773438 249.027344 -43.558594 249.027344 -51.746094 L 249.027344 -377.335938 L 386.890625 -377.335938 C 396.515625 -377.335938 403.324219 -378.335938 407.316406 -380.332031 C 406.679688 -380.011719 406.15625 -379.59375 405.75 -379.078125 C 405.679688 -378.992188 405.640625 -378.941406 405.636719 -378.933594 C 405.742188 -379.140625 405.855469 -379.425781 405.972656 -379.792969 C 407.238281 -383.71875 407.871094 -389.695312 407.871094 -397.71875 C 407.871094 -405.816406 407.21875 -411.957031 405.910156 -416.148438 C 405.84375 -416.359375 405.710938 -416.511719 405.511719 -416.613281 C 402.722656 -418.007812 396.714844 -418.703125 387.492188 -418.703125 Z M 52.949219 -418.703125 "/></g></g></g><g fill="#f97c2b" fill-opacity="1"><g transform="translate(5.381325, 586.630973)"><g><path d="M 312.28125 -424.796875 C 316.289062 -431.210938 322.101562 -435.625 329.71875 -438.03125 C 337.34375 -440.4375 346.867188 -441.640625 358.296875 -441.640625 C 369.734375 -441.640625 378.859375 -440.632812 385.671875 -438.625 C 392.492188 -436.625 397.707031 -434.21875 401.3125 -431.40625 C 404.925781 -428.601562 407.535156 -424.394531 409.140625 -418.78125 C 411.546875 -411.957031 412.75 -401.523438 412.75 -387.484375 L 412.75 -205.78125 C 412.75 -152.832031 396.304688 -104.695312 363.421875 -61.375 C 347.378906 -40.914062 326.722656 -24.367188 301.453125 -11.734375 C 276.179688 0.898438 248.203125 7.21875 217.515625 7.21875 C 186.828125 7.21875 158.945312 0.800781 133.875 -12.03125 C 108.800781 -24.863281 88.441406 -41.710938 72.796875 -62.578125 C 40.304688 -105.097656 24.0625 -153.234375 24.0625 -206.984375 L 24.0625 -388.09375 C 24.0625 -397.71875 24.363281 -404.835938 24.96875 -409.453125 C 25.570312 -414.066406 27.476562 -419.378906 30.6875 -425.390625 C 33.894531 -431.410156 39.304688 -435.625 46.921875 -438.03125 C 54.546875 -440.4375 64.773438 -441.640625 77.609375 -441.640625 C 90.453125 -441.640625 100.679688 -440.4375 108.296875 -438.03125 C 115.921875 -435.625 121.140625 -431.410156 123.953125 -425.390625 C 128.765625 -416.160156 131.171875 -403.523438 131.171875 -387.484375 L 131.171875 -206.984375 C 131.171875 -182.515625 137.1875 -159.25 149.21875 -137.1875 C 155.238281 -125.957031 164.265625 -116.929688 176.296875 -110.109375 C 188.328125 -103.285156 202.566406 -99.875 219.015625 -99.875 C 248.296875 -99.875 270.15625 -110.703125 284.59375 -132.359375 C 299.039062 -154.023438 306.265625 -179.097656 306.265625 -207.578125 L 306.265625 -391.703125 C 306.265625 -407.347656 308.269531 -418.378906 312.28125 -424.796875 Z M 312.28125 -424.796875 "/></g></g></g><g fill="#0085cd" fill-opacity="1"><g transform="translate(442.210691, 586.630973)"><g><path d="M 299.640625 -115.53125 L 310.46875 -123.34375 C 324.101562 -131.363281 333.734375 -135.375 339.359375 -135.375 C 351.785156 -135.375 365.222656 -124.144531 379.671875 -101.6875 C 388.492188 -87.644531 392.90625 -76.410156 392.90625 -67.984375 C 392.90625 -59.566406 390.195312 -52.550781 384.78125 -46.9375 C 379.363281 -41.320312 373.046875 -36.304688 365.828125 -31.890625 C 358.609375 -27.472656 351.6875 -23.257812 345.0625 -19.25 C 338.445312 -15.238281 324.910156 -10.023438 304.453125 -3.609375 C 283.992188 2.804688 264.238281 6.015625 245.1875 6.015625 C 226.132812 6.015625 206.878906 3.507812 187.421875 -1.5 C 167.972656 -6.519531 147.914062 -14.945312 127.25 -26.78125 C 106.59375 -38.613281 88.039062 -53.050781 71.59375 -70.09375 C 55.15625 -87.144531 41.617188 -109.003906 30.984375 -135.671875 C 20.359375 -162.347656 15.046875 -191.332031 15.046875 -222.625 C 15.046875 -253.914062 20.257812 -282.296875 30.6875 -307.765625 C 41.113281 -333.234375 54.445312 -354.289062 70.6875 -370.9375 C 86.9375 -387.582031 105.492188 -401.519531 126.359375 -412.75 C 165.660156 -434.414062 205.171875 -445.25 244.890625 -445.25 C 263.742188 -445.25 282.894531 -442.335938 302.34375 -436.515625 C 321.800781 -430.703125 336.546875 -424.789062 346.578125 -418.78125 L 361.015625 -410.34375 C 368.234375 -405.9375 373.847656 -402.328125 377.859375 -399.515625 C 388.285156 -391.097656 393.5 -381.570312 393.5 -370.9375 C 393.5 -360.3125 389.289062 -349.179688 380.875 -337.546875 C 365.226562 -315.890625 351.1875 -305.0625 338.75 -305.0625 C 331.53125 -305.0625 321.300781 -309.472656 308.0625 -318.296875 C 291.21875 -331.929688 268.753906 -338.75 240.671875 -338.75 C 214.597656 -338.75 188.925781 -329.722656 163.65625 -311.671875 C 151.625 -302.847656 141.597656 -290.410156 133.578125 -274.359375 C 125.554688 -258.316406 121.546875 -240.164062 121.546875 -219.90625 C 121.546875 -199.65625 125.554688 -181.503906 133.578125 -165.453125 C 141.597656 -149.410156 151.828125 -136.78125 164.265625 -127.5625 C 188.734375 -109.90625 214.203125 -101.078125 240.671875 -101.078125 C 253.109375 -101.078125 264.84375 -102.679688 275.875 -105.890625 C 286.90625 -109.097656 294.828125 -112.3125 299.640625 -115.53125 Z M 299.640625 -115.53125 "/></g></g></g><g fill="#5247a7" fill-opacity="1"><g transform="translate(850.765499, 586.630973)"><g><path d="M 52.953125 -441.640625 L 387.484375 -441.640625 C 400.316406 -441.640625 409.742188 -440.132812 415.765625 -437.125 C 421.785156 -434.113281 425.796875 -429.398438 427.796875 -422.984375 C 429.804688 -416.566406 430.8125 -408.144531 430.8125 -397.71875 C 430.8125 -387.289062 429.804688 -378.96875 427.796875 -372.75 C 425.796875 -366.53125 422.390625 -362.21875 417.578125 -359.8125 C 410.347656 -356.195312 400.117188 -354.390625 386.890625 -354.390625 L 271.96875 -354.390625 L 271.96875 -51.75 C 271.96875 -42.519531 271.664062 -35.695312 271.0625 -31.28125 C 270.457031 -26.875 268.648438 -21.757812 265.640625 -15.9375 C 262.628906 -10.125 257.3125 -6.015625 249.6875 -3.609375 C 242.070312 -1.203125 232.046875 0 219.609375 0 C 207.179688 0 197.253906 -1.203125 189.828125 -3.609375 C 182.410156 -6.015625 177.195312 -10.125 174.1875 -15.9375 C 171.175781 -21.757812 169.367188 -26.976562 168.765625 -31.59375 C 168.171875 -36.207031 167.875 -43.125 167.875 -52.34375 L 167.875 -354.390625 L 52.34375 -354.390625 C 39.507812 -354.390625 30.082031 -355.894531 24.0625 -358.90625 C 18.050781 -361.914062 14.039062 -366.628906 12.03125 -373.046875 C 10.03125 -379.460938 9.03125 -387.882812 9.03125 -398.3125 C 9.03125 -408.75 10.03125 -417.070312 12.03125 -423.28125 C 14.039062 -429.5 17.453125 -433.8125 22.265625 -436.21875 C 29.484375 -439.832031 39.710938 -441.640625 52.953125 -441.640625 Z M 52.953125 -441.640625 "/></g></g></g></g></g><path stroke-linecap="butt" transform="matrix(0.75, 0.000000000000000025, -0.000000000000000025, 0.75, 107.381326, 314.176153)" fill="none" stroke-linejoin="miter" d="M 0.0019824 49.999509 L 1713.647963 49.999509 " stroke="#000000" stroke-width="100" stroke-opacity="1" stroke-miterlimit="4"/><path stroke-linecap="butt" transform="matrix(0.75, 0, 0, 0.75, 107.381326, 1073.321144)" fill="none" stroke-linejoin="miter" d="M 0.0019824 49.998896 L 1713.647963 49.998896 " stroke="#000000" stroke-width="100" stroke-opacity="1" stroke-miterlimit="4"/></svg>