<svg width="1920" height="1080" viewBox="0 0 1920 1080" fill="none" xmlns="http://www.w3.org/2000/svg">
  <!-- Background -->
  <rect width="1920" height="1080" fill="#121212"/>
  
  <!-- Sidebar -->
  <rect x="0" y="0" width="280" height="1080" fill="#1E1E1E"/>
  
  <!-- Logo Area -->
  <rect x="40" y="40" width="200" height="60" rx="8" fill="#333333"/>
  <text x="140" y="75" font-family="Arial" font-size="24" fill="#FF6B00" text-anchor="middle">URBAN CLASH</text>
  
  <!-- Navigation Items -->
  <!-- Dashboard -->
  <rect x="20" y="140" width="240" height="50" rx="8" fill="#FF6B00"/>
  <text x="70" y="170" font-family="Arial" font-size="16" fill="#FFFFFF">Dashboard</text>
  
  <!-- Tasks -->
  <rect x="20" y="200" width="240" height="50" rx="8" fill="#333333"/>
  <text x="70" y="230" font-family="Arial" font-size="16" fill="#FFFFFF">Tarefas</text>
  
  <!-- Restaurant -->
  <rect x="20" y="260" width="240" height="50" rx="8" fill="#333333"/>
  <text x="70" y="290" font-family="Arial" font-size="16" fill="#FFFFFF">Restaurante</text>
  
  <!-- Duels -->
  <rect x="20" y="320" width="240" height="50" rx="8" fill="#333333"/>
  <text x="70" y="350" font-family="Arial" font-size="16" fill="#FFFFFF">Duelos</text>
  
  <!-- Territory -->
  <rect x="20" y="380" width="240" height="50" rx="8" fill="#333333"/>
  <text x="70" y="410" font-family="Arial" font-size="16" fill="#FFFFFF">Território</text>
  
  <!-- Hospital -->
  <rect x="20" y="440" width="240" height="50" rx="8" fill="#333333"/>
  <text x="70" y="470" font-family="Arial" font-size="16" fill="#FFFFFF">Hospital</text>
  
  <!-- Prison -->
  <rect x="20" y="500" width="240" height="50" rx="8" fill="#333333"/>
  <text x="70" y="530" font-family="Arial" font-size="16" fill="#FFFFFF">Prisão</text>
  
  <!-- VIP Area -->
  <rect x="20" y="560" width="240" height="50" rx="8" fill="#333333"/>
  <text x="70" y="590" font-family="Arial" font-size="16" fill="#FFFFFF">Área VIP</text>
  
  <!-- Black Market -->
  <rect x="20" y="620" width="240" height="50" rx="8" fill="#333333"/>
  <text x="70" y="650" font-family="Arial" font-size="16" fill="#FFFFFF">Mercado Negro</text>
  
  <!-- Square -->
  <rect x="20" y="680" width="240" height="50" rx="8" fill="#333333"/>
  <text x="70" y="710" font-family="Arial" font-size="16" fill="#FFFFFF">Praça</text>
  
  <!-- Clan -->
  <rect x="20" y="740" width="240" height="50" rx="8" fill="#333333"/>
  <text x="70" y="770" font-family="Arial" font-size="16" fill="#FFFFFF">Clã</text>
  
  <!-- Profile -->
  <rect x="20" y="800" width="240" height="50" rx="8" fill="#333333"/>
  <text x="70" y="830" font-family="Arial" font-size="16" fill="#FFFFFF">Perfil</text>
  
  <!-- Gym -->
  <rect x="20" y="860" width="240" height="50" rx="8" fill="#333333"/>
  <text x="70" y="890" font-family="Arial" font-size="16" fill="#FFFFFF">Academia</text>
  
  <!-- Bank -->
  <rect x="20" y="920" width="240" height="50" rx="8" fill="#333333"/>
  <text x="70" y="950" font-family="Arial" font-size="16" fill="#FFFFFF">Banco</text>
  
  <!-- Enterprise -->
  <rect x="20" y="980" width="240" height="50" rx="8" fill="#333333"/>
  <text x="70" y="1010" font-family="Arial" font-size="16" fill="#FFFFFF">Empresas</text>
  
  <!-- Main Content Area -->
  <rect x="300" y="40" width="1580" height="1000" rx="16" fill="#1E1E1E"/>
  
  <!-- Header -->
  <rect x="340" y="80" width="1500" height="80" rx="8" fill="#333333"/>
  <text x="380" y="125" font-family="Arial" font-size="24" fill="#FFFFFF">Dashboard</text>
  
  <!-- User Profile Quick Access -->
  <circle cx="1740" cy="120" r="30" fill="#FF6B00"/>
  <text x="1740" y="128" font-family="Arial" font-size="20" fill="#FFFFFF" text-anchor="middle">US</text>
  
  <!-- Stats Cards Row -->
  <!-- Level Card -->
  <rect x="340" y="200" width="360" height="200" rx="16" fill="#333333"/>
  <text x="380" y="240" font-family="Arial" font-size="18" fill="#AAAAAA">Nível</text>
  <text x="380" y="290" font-family="Arial" font-size="36" fill="#FFFFFF">5</text>
  <!-- XP Progress -->
  <rect x="380" y="320" width="280" height="20" rx="10" fill="#555555"/>
  <rect x="380" y="320" width="140" height="20" rx="10" fill="#FF6B00"/>
  <text x="380" y="360" font-family="Arial" font-size="14" fill="#AAAAAA">1250/2500 XP</text>
  
  <!-- Resources Card -->
  <rect x="720" y="200" width="360" height="200" rx="16" fill="#333333"/>
  <text x="760" y="240" font-family="Arial" font-size="18" fill="#AAAAAA">Recursos</text>
  <text x="760" y="290" font-family="Arial" font-size="36" fill="#FFFFFF">$4,500</text>
  <!-- Resources Icon -->
  <circle cx="1000" cy="270" r="40" fill="#555555"/>
  <text x="1000" y="280" font-family="Arial" font-size="24" fill="#FFFFFF" text-anchor="middle">$</text>
  
  <!-- Faction Card -->
  <rect x="1100" y="200" width="360" height="200" rx="16" fill="#333333"/>
  <text x="1140" y="240" font-family="Arial" font-size="18" fill="#AAAAAA">Facção</text>
  <text x="1140" y="290" font-family="Arial" font-size="36" fill="#9C27B0">GANGSTERS</text>
  <!-- Faction Icon -->
  <circle cx="1380" cy="270" r="40" fill="#9C27B0"/>
  <text x="1380" y="280" font-family="Arial" font-size="24" fill="#FFFFFF" text-anchor="middle">G</text>
  
  <!-- Stats Card -->
  <rect x="1480" y="200" width="360" height="200" rx="16" fill="#333333"/>
  <text x="1520" y="240" font-family="Arial" font-size="18" fill="#AAAAAA">Estatísticas</text>
  <!-- Stats Details -->
  <text x="1520" y="280" font-family="Arial" font-size="14" fill="#AAAAAA">Vitórias</text>
  <text x="1650" y="280" font-family="Arial" font-size="14" fill="#FFFFFF">12</text>
  <text x="1520" y="310" font-family="Arial" font-size="14" fill="#AAAAAA">Derrotas</text>
  <text x="1650" y="310" font-family="Arial" font-size="14" fill="#FFFFFF">5</text>
  <text x="1520" y="340" font-family="Arial" font-size="14" fill="#AAAAAA">Sequência</text>
  <text x="1650" y="340" font-family="Arial" font-size="14" fill="#FFFFFF">3</text>
  <text x="1520" y="370" font-family="Arial" font-size="14" fill="#AAAAAA">Taxa de Vitória</text>
  <text x="1650" y="370" font-family="Arial" font-size="14" fill="#FFFFFF">70%</text>
  
  <!-- Quick Actions Section -->
  <text x="340" y="450" font-family="Arial" font-size="24" fill="#FFFFFF">Ações Rápidas</text>
  
  <!-- Action Buttons -->
  <rect x="340" y="480" width="240" height="60" rx="8" fill="#9C27B0"/>
  <text x="460" y="520" font-family="Arial" font-size="16" fill="#FFFFFF" text-anchor="middle">TERRITÓRIO</text>
  
  <rect x="600" y="480" width="240" height="60" rx="8" fill="#2196F3"/>
  <text x="720" y="520" font-family="Arial" font-size="16" fill="#FFFFFF" text-anchor="middle">DUELOS</text>
  
  <rect x="860" y="480" width="240" height="60" rx="8" fill="#FF6B00"/>
  <text x="980" y="520" font-family="Arial" font-size="16" fill="#FFFFFF" text-anchor="middle">CLÃ</text>
  
  <rect x="1120" y="480" width="240" height="60" rx="8" fill="#4CAF50"/>
  <text x="1240" y="520" font-family="Arial" font-size="16" fill="#FFFFFF" text-anchor="middle">MERCADO</text>
  
  <rect x="1380" y="480" width="240" height="60" rx="8" fill="#F44336"/>
  <text x="1500" y="520" font-family="Arial" font-size="16" fill="#FFFFFF" text-anchor="middle">HOSPITAL</text>
  
  <rect x="1640" y="480" width="200" height="60" rx="8" fill="#FFC107"/>
  <text x="1740" y="520" font-family="Arial" font-size="16" fill="#000000" text-anchor="middle">BANCO</text>
  
  <!-- Recent Activity Section -->
  <text x="340" y="590" font-family="Arial" font-size="24" fill="#FFFFFF">Atividades Recentes</text>
  
  <!-- Activity List -->
  <rect x="340" y="620" width="740" height="380" rx="16" fill="#333333"/>
  
  <!-- Activity Items -->
  <rect x="360" y="650" width="700" height="60" rx="8" fill="#444444"/>
  <text x="380" y="685" font-family="Arial" font-size="16" fill="#FFFFFF">Completou uma missão</text>
  <text x="980" y="685" font-family="Arial" font-size="14" fill="#AAAAAA" text-anchor="end">Há 5 minutos</text>
  
  <rect x="360" y="720" width="700" height="60" rx="8" fill="#444444"/>
  <text x="380" y="755" font-family="Arial" font-size="16" fill="#FFFFFF">Ganhou um duelo</text>
  <text x="980" y="755" font-family="Arial" font-size="14" fill="#AAAAAA" text-anchor="end">Há 20 minutos</text>
  
  <rect x="360" y="790" width="700" height="60" rx="8" fill="#444444"/>
  <text x="380" y="825" font-family="Arial" font-size="16" fill="#FFFFFF">Recebeu recursos</text>
  <text x="980" y="825" font-family="Arial" font-size="14" fill="#AAAAAA" text-anchor="end">Há 1 hora</text>
  
  <rect x="360" y="860" width="700" height="60" rx="8" fill="#444444"/>
  <text x="380" y="895" font-family="Arial" font-size="16" fill="#FFFFFF">Subiu de nível</text>
  <text x="980" y="895" font-family="Arial" font-size="14" fill="#AAAAAA" text-anchor="end">Há 2 horas</text>
  
  <rect x="360" y="930" width="700" height="60" rx="8" fill="#444444"/>
  <text x="380" y="965" font-family="Arial" font-size="16" fill="#FFFFFF">Entrou no clã</text>
  <text x="980" y="965" font-family="Arial" font-size="14" fill="#AAAAAA" text-anchor="end">Há 1 dia</text>
  
  <!-- Clan Activity Section -->
  <text x="1100" y="590" font-family="Arial" font-size="24" fill="#FFFFFF">Atividades do Clã</text>
  
  <!-- Clan Activity List -->
  <rect x="1100" y="620" width="740" height="380" rx="16" fill="#333333"/>
  
  <!-- Clan Activity Items -->
  <rect x="1120" y="650" width="700" height="60" rx="8" fill="#444444"/>
  <text x="1140" y="685" font-family="Arial" font-size="16" fill="#FFFFFF">Território conquistado</text>
  <text x="1740" y="685" font-family="Arial" font-size="14" fill="#AAAAAA" text-anchor="end">Há 1 hora</text>
  
  <rect x="1120" y="720" width="700" height="60" rx="8" fill="#444444"/>
  <text x="1140" y="755" font-family="Arial" font-size="16" fill="#FFFFFF">Novo membro</text>
  <text x="1740" y="755" font-family="Arial" font-size="14" fill="#AAAAAA" text-anchor="end">Há 3 horas</text>
  
  <rect x="1120" y="790" width="700" height="60" rx="8" fill="#444444"/>
  <text x="1140" y="825" font-family="Arial" font-size="16" fill="#FFFFFF">Missão de clã completada</text>
  <text x="1740" y="825" font-family="Arial" font-size="14" fill="#AAAAAA" text-anchor="end">Há 5 horas</text>
  
  <rect x="1120" y="860" width="700" height="60" rx="8" fill="#444444"/>
  <text x="1140" y="895" font-family="Arial" font-size="16" fill="#FFFFFF">Duelo de clã vencido</text>
  <text x="1740" y="895" font-family="Arial" font-size="14" fill="#AAAAAA" text-anchor="end">Há 1 dia</text>
  
  <rect x="1120" y="930" width="700" height="60" rx="8" fill="#444444"/>
  <text x="1140" y="965" font-family="Arial" font-size="16" fill="#FFFFFF">Clã subiu de nível</text>
  <text x="1740" y="965" font-family="Arial" font-size="14" fill="#AAAAAA" text-anchor="end">Há 3 dias</text>
</svg>