<svg width="1920" height="1080" viewBox="0 0 1920 1080" fill="none" xmlns="http://www.w3.org/2000/svg">
  <!-- Background -->
  <rect width="1920" height="1080" fill="#121212"/>
  
  <!-- Sidebar -->
  <rect x="0" y="0" width="280" height="1080" fill="#1E1E1E"/>
  
  <!-- Logo Area -->
  <rect x="40" y="40" width="200" height="60" rx="8" fill="#333333"/>
  <text x="140" y="75" font-family="Arial" font-size="24" fill="#FF6B00" text-anchor="middle">URBAN CLASH</text>
  
  <!-- Navigation Items -->
  <!-- Dashboard -->
  <rect x="20" y="140" width="240" height="50" rx="8" fill="#333333"/>
  <text x="70" y="170" font-family="Arial" font-size="16" fill="#FFFFFF">Dashboard</text>
  
  <!-- Tasks -->
  <rect x="20" y="200" width="240" height="50" rx="8" fill="#333333"/>
  <text x="70" y="230" font-family="Arial" font-size="16" fill="#FFFFFF">Tarefas</text>
  
  <!-- Restaurant -->
  <rect x="20" y="260" width="240" height="50" rx="8" fill="#333333"/>
  <text x="70" y="290" font-family="Arial" font-size="16" fill="#FFFFFF">Restaurante</text>
  
  <!-- Duels -->
  <rect x="20" y="320" width="240" height="50" rx="8" fill="#FF6B00"/>
  <text x="70" y="350" font-family="Arial" font-size="16" fill="#FFFFFF">Duelos</text>
  
  <!-- Territory -->
  <rect x="20" y="380" width="240" height="50" rx="8" fill="#333333"/>
  <text x="70" y="410" font-family="Arial" font-size="16" fill="#FFFFFF">Território</text>
  
  <!-- Hospital -->
  <rect x="20" y="440" width="240" height="50" rx="8" fill="#333333"/>
  <text x="70" y="470" font-family="Arial" font-size="16" fill="#FFFFFF">Hospital</text>
  
  <!-- Prison -->
  <rect x="20" y="500" width="240" height="50" rx="8" fill="#333333"/>
  <text x="70" y="530" font-family="Arial" font-size="16" fill="#FFFFFF">Prisão</text>
  
  <!-- VIP Area -->
  <rect x="20" y="560" width="240" height="50" rx="8" fill="#333333"/>
  <text x="70" y="590" font-family="Arial" font-size="16" fill="#FFFFFF">Área VIP</text>
  
  <!-- Black Market -->
  <rect x="20" y="620" width="240" height="50" rx="8" fill="#333333"/>
  <text x="70" y="650" font-family="Arial" font-size="16" fill="#FFFFFF">Mercado Negro</text>
  
  <!-- Square -->
  <rect x="20" y="680" width="240" height="50" rx="8" fill="#333333"/>
  <text x="70" y="710" font-family="Arial" font-size="16" fill="#FFFFFF">Praça</text>
  
  <!-- Clan -->
  <rect x="20" y="740" width="240" height="50" rx="8" fill="#333333"/>
  <text x="70" y="770" font-family="Arial" font-size="16" fill="#FFFFFF">Clã</text>
  
  <!-- Profile -->
  <rect x="20" y="800" width="240" height="50" rx="8" fill="#333333"/>
  <text x="70" y="830" font-family="Arial" font-size="16" fill="#FFFFFF">Perfil</text>
  
  <!-- Gym -->
  <rect x="20" y="860" width="240" height="50" rx="8" fill="#333333"/>
  <text x="70" y="890" font-family="Arial" font-size="16" fill="#FFFFFF">Academia</text>
  
  <!-- Bank -->
  <rect x="20" y="920" width="240" height="50" rx="8" fill="#333333"/>
  <text x="70" y="950" font-family="Arial" font-size="16" fill="#FFFFFF">Banco</text>
  
  <!-- Enterprise -->
  <rect x="20" y="980" width="240" height="50" rx="8" fill="#333333"/>
  <text x="70" y="1010" font-family="Arial" font-size="16" fill="#FFFFFF">Empresas</text>
  
  <!-- Main Content Area -->
  <rect x="300" y="40" width="1580" height="1000" rx="16" fill="#1E1E1E"/>
  
  <!-- Header -->
  <rect x="340" y="80" width="1500" height="80" rx="8" fill="#333333"/>
  <text x="380" y="125" font-family="Arial" font-size="24" fill="#FFFFFF">Duelos</text>
  
  <!-- User Profile Quick Access -->
  <circle cx="1740" cy="120" r="30" fill="#FF6B00"/>
  <text x="1740" y="128" font-family="Arial" font-size="20" fill="#FFFFFF" text-anchor="middle">US</text>
  
  <!-- Duel Type Tabs -->
  <rect x="340" y="180" width="1500" height="60" rx="8" fill="#333333"/>
  
  <!-- Solo Tab (Active) -->
  <rect x="360" y="190" width="200" height="40" rx="8" fill="#FF6B00"/>
  <text x="460" y="215" font-family="Arial" font-size="16" fill="#FFFFFF" text-anchor="middle">SOLO</text>
  
  <!-- Clan Tab -->
  <rect x="580" y="190" width="200" height="40" rx="8" fill="#444444"/>
  <text x="680" y="215" font-family="Arial" font-size="16" fill="#AAAAAA" text-anchor="middle">CLÃ</text>
  
  <!-- Tournament Tab -->
  <rect x="800" y="190" width="200" height="40" rx="8" fill="#444444"/>
  <text x="900" y="215" font-family="Arial" font-size="16" fill="#AAAAAA" text-anchor="middle">TORNEIOS</text>
  
  <!-- History Tab -->
  <rect x="1020" y="190" width="200" height="40" rx="8" fill="#444444"/>
  <text x="1120" y="215" font-family="Arial" font-size="16" fill="#AAAAAA" text-anchor="middle">HISTÓRICO</text>
  
  <!-- Player Stats -->
  <rect x="340" y="260" width="360" height="100" rx="16" fill="#333333"/>
  <text x="380" y="300" font-family="Arial" font-size="18" fill="#AAAAAA">Vitórias</text>
  <text x="380" y="340" font-family="Arial" font-size="36" fill="#FFFFFF">24</text>
  
  <rect x="720" y="260" width="360" height="100" rx="16" fill="#333333"/>
  <text x="760" y="300" font-family="Arial" font-size="18" fill="#AAAAAA">Derrotas</text>
  <text x="760" y="340" font-family="Arial" font-size="36" fill="#FFFFFF">8</text>
  
  <rect x="1100" y="260" width="360" height="100" rx="16" fill="#333333"/>
  <text x="1140" y="300" font-family="Arial" font-size="18" fill="#AAAAAA">Sequência</text>
  <text x="1140" y="340" font-family="Arial" font-size="36" fill="#FFFFFF">3</text>
  
  <rect x="1480" y="260" width="360" height="100" rx="16" fill="#333333"/>
  <text x="1520" y="300" font-family="Arial" font-size="18" fill="#AAAAAA">Taxa de Vitória</text>
  <text x="1520" y="340" font-family="Arial" font-size="36" fill="#FFFFFF">75%</text>
  
  <!-- Find Opponent Section -->
  <rect x="340" y="380" width="740" height="300" rx="16" fill="#333333"/>
  <text x="380" y="420" font-family="Arial" font-size="24" fill="#FFFFFF">Encontrar Oponente</text>
  
  <!-- Matchmaking Options -->
  <rect x="380" y="450" width="660" height="60" rx="8" fill="#444444"/>
  
  <!-- Random Match (Active) -->
  <rect x="390" y="460" width="200" height="40" rx="8" fill="#FF6B00"/>
  <text x="490" y="485" font-family="Arial" font-size="16" fill="#FFFFFF" text-anchor="middle">ALEATÓRIO</text>
  
  <!-- Ranked Match -->
  <rect x="610" y="460" width="200" height="40" rx="8" fill="#555555"/>
  <text x="710" y="485" font-family="Arial" font-size="16" fill="#AAAAAA" text-anchor="middle">RANQUEADO</text>
  
  <!-- Friend Match -->
  <rect x="830" y="460" width="200" height="40" rx="8" fill="#555555"/>
  <text x="930" y="485" font-family="Arial" font-size="16" fill="#AAAAAA" text-anchor="middle">AMIGO</text>
  
  <!-- Match Settings -->
  <text x="380" y="540" font-family="Arial" font-size="18" fill="#FFFFFF">Configurações da Partida</text>
  
  <!-- Bet Amount -->
  <text x="380" y="580" font-family="Arial" font-size="16" fill="#AAAAAA">Aposta:</text>
  <rect x="480" y="560" width="200" height="40" rx="8" fill="#444444"/>
  <text x="580" y="585" font-family="Arial" font-size="16" fill="#FFFFFF" text-anchor="middle">$500</text>
  
  <!-- Weapon Selection -->
  <text x="380" y="630" font-family="Arial" font-size="16" fill="#AAAAAA">Arma:</text>
  <rect x="480" y="610" width="200" height="40" rx="8" fill="#444444"/>
  <text x="580" y="635" font-family="Arial" font-size="16" fill="#FFFFFF" text-anchor="middle">Pistola</text>
  
  <!-- Find Match Button -->
  <rect x="380" y="670" width="660" height="60" rx="8" fill="#FF6B00"/>
  <text x="710" y="705" font-family="Arial" font-size="20" fill="#FFFFFF" text-anchor="middle">ENCONTRAR PARTIDA</text>
  
  <!-- Top Players Section -->
  <rect x="1100" y="380" width="740" height="300" rx="16" fill="#333333"/>
  <text x="1140" y="420" font-family="Arial" font-size="24" fill="#FFFFFF">Top Jogadores</text>
  
  <!-- Player Rankings -->
  <!-- Player 1 -->
  <rect x="1140" y="450" width="660" height="60" rx="8" fill="#444444"/>
  <circle cx="1170" cy="480" r="20" fill="#FFD700"/>
  <text x="1170" y="485" font-family="Arial" font-size="16" fill="#000000" text-anchor="middle">1</text>
  <text x="1210" y="485" font-family="Arial" font-size="16" fill="#FFFFFF">KingSlayer</text>
  <text x="1600" y="485" font-family="Arial" font-size="16" fill="#FFFFFF">Vitórias: 156 | Taxa: 92%</text>
  
  <!-- Player 2 -->
  <rect x="1140" y="520" width="660" height="60" rx="8" fill="#444444"/>
  <circle cx="1170" cy="550" r="20" fill="#C0C0C0"/>
  <text x="1170" y="555" font-family="Arial" font-size="16" fill="#000000" text-anchor="middle">2</text>
  <text x="1210" y="555" font-family="Arial" font-size="16" fill="#FFFFFF">ShadowHunter</text>
  <text x="1600" y="555" font-family="Arial" font-size="16" fill="#FFFFFF">Vitórias: 142 | Taxa: 88%</text>
  
  <!-- Player 3 -->
  <rect x="1140" y="590" width="660" height="60" rx="8" fill="#444444"/>
  <circle cx="1170" cy="620" r="20" fill="#CD7F32"/>
  <text x="1170" y="625" font-family="Arial" font-size="16" fill="#000000" text-anchor="middle">3</text>
  <text x="1210" y="625" font-family="Arial" font-size="16" fill="#FFFFFF">UrbanLegend</text>
  <text x="1600" y="625" font-family="Arial" font-size="16" fill="#FFFFFF">Vitórias: 128 | Taxa: 85%</text>
  
  <!-- Recent Matches Section -->
  <text x="340" y="700" font-family="Arial" font-size="24" fill="#FFFFFF">Partidas Recentes</text>
  
  <!-- Match 1 (Win) -->
  <rect x="340" y="730" width="1500" height="80" rx="16" fill="#333333"/>
  <rect x="340" y="730" width="10" height="80" rx="5" fill="#4CAF50"/>
  <text x="380" y="770" font-family="Arial" font-size="18" fill="#FFFFFF">vs. NightStalker</text>
  <text x="680" y="770" font-family="Arial" font-size="18" fill="#FFFFFF">Arma: Pistola</text>
  <text x="980" y="770" font-family="Arial" font-size="18" fill="#FFFFFF">Aposta: $500</text>
  <text x="1280" y="770" font-family="Arial" font-size="18" fill="#FFFFFF">Resultado: Vitória</text>
  <text x="1580" y="770" font-family="Arial" font-size="18" fill="#FFFFFF">Há 2 horas</text>
  
  <!-- Match 2 (Win) -->
  <rect x="340" y="820" width="1500" height="80" rx="16" fill="#333333"/>
  <rect x="340" y="820" width="10" height="80" rx="5" fill="#4CAF50"/>
  <text x="380" y="860" font-family="Arial" font-size="18" fill="#FFFFFF">vs. StreetKing</text>
  <text x="680" y="860" font-family="Arial" font-size="18" fill="#FFFFFF">Arma: Faca</text>
  <text x="980" y="860" font-family="Arial" font-size="18" fill="#FFFFFF">Aposta: $1000</text>
  <text x="1280" y="860" font-family="Arial" font-size="18" fill="#FFFFFF">Resultado: Vitória</text>
  <text x="1580" y="860" font-family="Arial" font-size="18" fill="#FFFFFF">Há 5 horas</text>
  
  <!-- Match 3 (Win) -->
  <rect x="340" y="910" width="1500" height="80" rx="16" fill="#333333"/>
  <rect x="340" y="910" width="10" height="80" rx="5" fill="#4CAF50"/>
  <text x="380" y="950" font-family="Arial" font-size="18" fill="#FFFFFF">vs. GhostRider</text>
  <text x="680" y="950" font-family="Arial" font-size="18" fill="#FFFFFF">Arma: Revólver</text>
  <text x="980" y="950" font-family="Arial" font-size="18" fill="#FFFFFF">Aposta: $750</text>
  <text x="1280" y="950" font-family="Arial" font-size="18" fill="#FFFFFF">Resultado: Vitória</text>
  <text x="1580" y="950" font-family="Arial" font-size="18" fill="#FFFFFF">Há 8 horas</text>
</svg>